<?xml version="1.0" encoding="us-ascii" standalone="no"?><svg xmlns="http://www.w3.org/2000/svg" xmlns:xlink="http://www.w3.org/1999/xlink" contentStyleType="text/css" height="644px" preserveAspectRatio="none" style="width:1907px;height:644px;background:#FFFFFF;" version="1.1" viewBox="0 0 1907 644" width="1907px" zoomAndPan="magnify"><defs/><g><!--class ApplicationResource--><g id="elem_ApplicationResource"><rect codeLine="7" fill="#F1F1F1" height="103.8633" id="ApplicationResource" rx="2.5" ry="2.5" style="stroke:#181818;stroke-width:0.5;" width="179" x="856.5" y="7"/><ellipse cx="886.35" cy="23" fill="#A9DCDF" rx="11" ry="11" style="stroke:#181818;stroke-width:1.0;"/><path d="M888.5375,24.7656 L884.3969,24.7656 L883.975,25.7969 L884.3969,25.7969 Q885.0063,25.7969 885.2719,26.0313 Q885.5375,26.2656 885.5375,26.6563 Q885.5375,27.0313 885.2719,27.2656 Q885.0063,27.5 884.3969,27.5 L882.1,27.5 Q881.4906,27.5 881.2406,27.2656 Q880.975,27.0313 880.975,26.6406 Q880.975,26.2656 881.2563,26.0313 Q881.5219,25.7813 882.1469,25.7969 L884.8188,19.1406 L883.7094,19.1406 Q883.1,19.1406 882.8344,18.9063 Q882.5688,18.6719 882.5688,18.2813 Q882.5688,17.9063 882.8344,17.6719 Q883.1,17.4375 883.7094,17.4375 L887.3813,17.4375 L890.7719,25.7969 Q891.3656,25.7969 891.5531,25.9375 Q891.9438,26.2031 891.9438,26.6563 Q891.9438,27.0313 891.6781,27.2656 Q891.4281,27.5 890.8188,27.5 L888.5219,27.5 Q887.9125,27.5 887.6469,27.2656 Q887.3813,27.0313 887.3813,26.6406 Q887.3813,26.2656 887.6469,26.0313 Q887.9125,25.7969 888.5219,25.7969 L888.9438,25.7969 L888.5375,24.7656 Z M887.8188,23.0625 L886.4594,19.6875 L885.0844,23.0625 L887.8188,23.0625 Z " fill="#000000"/><text fill="#000000" font-family="sans-serif" font-size="12" font-style="italic" lengthAdjust="spacing" textLength="114" x="903.65" y="27.9688">ApplicationResource</text><line style="stroke:#181818;stroke-width:0.5;" x1="857.5" x2="1034.5" y1="39" y2="39"/><line style="stroke:#181818;stroke-width:1.0;" x1="857.5" x2="1034.5" y1="47" y2="47"/><text fill="#000000" font-family="sans-serif" font-size="14" lengthAdjust="spacing" textLength="141" x="862.5" y="66.1074">adapter: ActiveRecord</text><text fill="#000000" font-family="sans-serif" font-size="14" lengthAdjust="spacing" textLength="167" x="862.5" y="84.7285">endpoint_namespace: /api</text><text fill="#000000" font-family="sans-serif" font-size="14" lengthAdjust="spacing" textLength="155" x="862.5" y="103.3496">default_page_size: 1000</text></g><!--class UserResource--><g id="elem_UserResource"><rect codeLine="14" fill="#F1F1F1" height="141.1055" id="UserResource" rx="2.5" ry="2.5" style="stroke:#181818;stroke-width:0.5;" width="278" x="7" y="279.5"/><ellipse cx="101.25" cy="295.5" fill="#ADD1B2" rx="11" ry="11" style="stroke:#181818;stroke-width:1.0;"/><path d="M104.0156,291.375 Q104.1719,291.1563 104.3594,291.0469 Q104.5469,290.9375 104.7656,290.9375 Q105.1406,290.9375 105.375,291.2031 Q105.6094,291.4531 105.6094,292.0625 L105.6094,293.5156 Q105.6094,294.125 105.375,294.3906 Q105.1406,294.6563 104.7656,294.6563 Q104.4219,294.6563 104.2188,294.4531 Q104.0156,294.2656 103.9063,293.75 Q103.8594,293.3906 103.6719,293.2031 Q103.3438,292.8281 102.7344,292.6094 Q102.125,292.3906 101.5,292.3906 Q100.7344,292.3906 100.0938,292.7188 Q99.4688,293.0469 98.9688,293.7969 Q98.4844,294.5469 98.4844,295.5781 L98.4844,296.6719 Q98.4844,297.9063 99.375,298.7344 Q100.2656,299.5469 101.8594,299.5469 Q102.7969,299.5469 103.4531,299.2969 Q103.8438,299.1406 104.2656,298.7031 Q104.5313,298.4375 104.6719,298.3594 Q104.8281,298.2813 105.0313,298.2813 Q105.3594,298.2813 105.6094,298.5469 Q105.875,298.7969 105.875,299.1406 Q105.875,299.4844 105.5313,299.8906 Q105.0313,300.4688 104.2344,300.7969 Q103.1563,301.25 101.8594,301.25 Q100.3438,301.25 99.1406,300.625 Q98.1563,300.125 97.4688,299.0625 Q96.7813,297.9844 96.7813,296.7031 L96.7813,295.5469 Q96.7813,294.2188 97.3906,293.0781 Q98.0156,291.9219 99.1094,291.3125 Q100.2031,290.6875 101.4375,290.6875 Q102.1719,290.6875 102.8125,290.8594 Q103.4688,291.0156 104.0156,291.375 Z " fill="#000000"/><text fill="#000000" font-family="sans-serif" font-size="12" lengthAdjust="spacing" textLength="81" x="121.75" y="300.4688">UserResource</text><line style="stroke:#181818;stroke-width:0.5;" x1="8" x2="284" y1="311.5" y2="311.5"/><line style="stroke:#181818;stroke-width:1.0;" x1="8" x2="284" y1="319.5" y2="319.5"/><text fill="#000000" font-family="sans-serif" font-size="14" lengthAdjust="spacing" textLength="80" x="13" y="338.6074">email : string</text><text fill="#000000" font-family="sans-serif" font-size="14" lengthAdjust="spacing" textLength="87" x="13" y="357.2285">phone : string</text><text fill="#000000" font-family="sans-serif" font-size="14" lengthAdjust="spacing" textLength="100" x="13" y="375.8496">active : boolean</text><text fill="#000000" font-family="sans-serif" font-size="14" lengthAdjust="spacing" textLength="181" x="13" y="394.4707">password : string (write-only)</text><text fill="#000000" font-family="sans-serif" font-size="14" lengthAdjust="spacing" textLength="266" x="13" y="413.0918">password_confirmation : string (write-only)</text></g><!--class MasterResource--><g id="elem_MasterResource"><rect codeLine="23" fill="#F1F1F1" height="219.5898" id="MasterResource" rx="2.5" ry="2.5" style="stroke:#181818;stroke-width:0.5;" width="196" x="320" y="240"/><ellipse cx="368.25" cy="256" fill="#ADD1B2" rx="11" ry="11" style="stroke:#181818;stroke-width:1.0;"/><path d="M371.0156,251.875 Q371.1719,251.6563 371.3594,251.5469 Q371.5469,251.4375 371.7656,251.4375 Q372.1406,251.4375 372.375,251.7031 Q372.6094,251.9531 372.6094,252.5625 L372.6094,254.0156 Q372.6094,254.625 372.375,254.8906 Q372.1406,255.1563 371.7656,255.1563 Q371.4219,255.1563 371.2188,254.9531 Q371.0156,254.7656 370.9063,254.25 Q370.8594,253.8906 370.6719,253.7031 Q370.3438,253.3281 369.7344,253.1094 Q369.125,252.8906 368.5,252.8906 Q367.7344,252.8906 367.0938,253.2188 Q366.4688,253.5469 365.9688,254.2969 Q365.4844,255.0469 365.4844,256.0781 L365.4844,257.1719 Q365.4844,258.4063 366.375,259.2344 Q367.2656,260.0469 368.8594,260.0469 Q369.7969,260.0469 370.4531,259.7969 Q370.8438,259.6406 371.2656,259.2031 Q371.5313,258.9375 371.6719,258.8594 Q371.8281,258.7813 372.0313,258.7813 Q372.3594,258.7813 372.6094,259.0469 Q372.875,259.2969 372.875,259.6406 Q372.875,259.9844 372.5313,260.3906 Q372.0313,260.9688 371.2344,261.2969 Q370.1563,261.75 368.8594,261.75 Q367.3438,261.75 366.1406,261.125 Q365.1563,260.625 364.4688,259.5625 Q363.7813,258.4844 363.7813,257.2031 L363.7813,256.0469 Q363.7813,254.7188 364.3906,253.5781 Q365.0156,252.4219 366.1094,251.8125 Q367.2031,251.1875 368.4375,251.1875 Q369.1719,251.1875 369.8125,251.3594 Q370.4688,251.5156 371.0156,251.875 Z " fill="#000000"/><text fill="#000000" font-family="sans-serif" font-size="12" lengthAdjust="spacing" textLength="91" x="388.75" y="260.9688">MasterResource</text><line style="stroke:#181818;stroke-width:0.5;" x1="321" x2="515" y1="272" y2="272"/><line style="stroke:#181818;stroke-width:1.0;" x1="321" x2="515" y1="280" y2="280"/><text fill="#000000" font-family="sans-serif" font-size="14" lengthAdjust="spacing" textLength="113" x="326" y="299.1074">first_name : string</text><text fill="#000000" font-family="sans-serif" font-size="14" lengthAdjust="spacing" textLength="131" x="326" y="317.7285">middle_name : string</text><text fill="#000000" font-family="sans-serif" font-size="14" lengthAdjust="spacing" textLength="112" x="326" y="336.3496">last_name : string</text><text fill="#000000" font-family="sans-serif" font-size="14" lengthAdjust="spacing" textLength="87" x="326" y="354.9707">phone : string</text><text fill="#000000" font-family="sans-serif" font-size="14" lengthAdjust="spacing" textLength="100" x="326" y="373.5918">active : boolean</text><text fill="#000000" font-family="sans-serif" font-size="14" lengthAdjust="spacing" textLength="168" x="326" y="392.2129">salary : integer (write-only)</text><text fill="#000000" font-family="sans-serif" font-size="14" lengthAdjust="spacing" textLength="184" x="326" y="410.834">full_name : string (computed)</text><text fill="#000000" font-family="sans-serif" font-size="14" lengthAdjust="spacing" textLength="94" x="326" y="452.0762">service_id (eq)</text><line style="stroke:#181818;stroke-width:1.0;stroke-dasharray:1.0,2.0;" x1="321" x2="401" y1="427.6582" y2="427.6582"/><text fill="#000000" font-family="sans-serif" font-size="14" lengthAdjust="spacing" textLength="34" x="401" y="432.9551">filters</text><line style="stroke:#181818;stroke-width:1.0;stroke-dasharray:1.0,2.0;" x1="435" x2="515" y1="427.6582" y2="427.6582"/></g><!--class ServiceResource--><g id="elem_ServiceResource"><rect codeLine="36" fill="#F1F1F1" height="182.3477" id="ServiceResource" rx="2.5" ry="2.5" style="stroke:#181818;stroke-width:0.5;" width="195" x="551.5" y="259"/><ellipse cx="597.75" cy="275" fill="#ADD1B2" rx="11" ry="11" style="stroke:#181818;stroke-width:1.0;"/><path d="M600.5156,270.875 Q600.6719,270.6563 600.8594,270.5469 Q601.0469,270.4375 601.2656,270.4375 Q601.6406,270.4375 601.875,270.7031 Q602.1094,270.9531 602.1094,271.5625 L602.1094,273.0156 Q602.1094,273.625 601.875,273.8906 Q601.6406,274.1563 601.2656,274.1563 Q600.9219,274.1563 600.7188,273.9531 Q600.5156,273.7656 600.4063,273.25 Q600.3594,272.8906 600.1719,272.7031 Q599.8438,272.3281 599.2344,272.1094 Q598.625,271.8906 598,271.8906 Q597.2344,271.8906 596.5938,272.2188 Q595.9688,272.5469 595.4688,273.2969 Q594.9844,274.0469 594.9844,275.0781 L594.9844,276.1719 Q594.9844,277.4063 595.875,278.2344 Q596.7656,279.0469 598.3594,279.0469 Q599.2969,279.0469 599.9531,278.7969 Q600.3438,278.6406 600.7656,278.2031 Q601.0313,277.9375 601.1719,277.8594 Q601.3281,277.7813 601.5313,277.7813 Q601.8594,277.7813 602.1094,278.0469 Q602.375,278.2969 602.375,278.6406 Q602.375,278.9844 602.0313,279.3906 Q601.5313,279.9688 600.7344,280.2969 Q599.6563,280.75 598.3594,280.75 Q596.8438,280.75 595.6406,280.125 Q594.6563,279.625 593.9688,278.5625 Q593.2813,277.4844 593.2813,276.2031 L593.2813,275.0469 Q593.2813,273.7188 593.8906,272.5781 Q594.5156,271.4219 595.6094,270.8125 Q596.7031,270.1875 597.9375,270.1875 Q598.6719,270.1875 599.3125,270.3594 Q599.9688,270.5156 600.5156,270.875 Z " fill="#000000"/><text fill="#000000" font-family="sans-serif" font-size="12" lengthAdjust="spacing" textLength="94" x="618.25" y="279.9688">ServiceResource</text><line style="stroke:#181818;stroke-width:0.5;" x1="552.5" x2="745.5" y1="291" y2="291"/><line style="stroke:#181818;stroke-width:1.0;" x1="552.5" x2="745.5" y1="299" y2="299"/><text fill="#000000" font-family="sans-serif" font-size="14" lengthAdjust="spacing" textLength="69" x="557.5" y="318.1074">title : string</text><text fill="#000000" font-family="sans-serif" font-size="14" lengthAdjust="spacing" textLength="116" x="557.5" y="336.7285">description : string</text><text fill="#000000" font-family="sans-serif" font-size="14" lengthAdjust="spacing" textLength="99" x="557.5" y="355.3496">duration : string</text><text fill="#000000" font-family="sans-serif" font-size="14" lengthAdjust="spacing" textLength="87" x="557.5" y="373.9707">price : integer</text><text fill="#000000" font-family="sans-serif" font-size="14" lengthAdjust="spacing" textLength="100" x="557.5" y="392.5918">active : boolean</text><text fill="#000000" font-family="sans-serif" font-size="14" lengthAdjust="spacing" textLength="183" x="557.5" y="433.834">has_many: service_materials</text><line style="stroke:#181818;stroke-width:1.0;stroke-dasharray:1.0,2.0;" x1="552.5" x2="609" y1="409.416" y2="409.416"/><text fill="#000000" font-family="sans-serif" font-size="14" lengthAdjust="spacing" textLength="80" x="609" y="414.7129">relationships</text><line style="stroke:#181818;stroke-width:1.0;stroke-dasharray:1.0,2.0;" x1="689" x2="745.5" y1="409.416" y2="409.416"/></g><!--class ClientResource--><g id="elem_ClientResource"><rect codeLine="47" fill="#F1F1F1" height="103.8633" id="ClientResource" rx="2.5" ry="2.5" style="stroke:#181818;stroke-width:0.5;" width="120" x="782" y="298"/><ellipse cx="797.9" cy="314" fill="#ADD1B2" rx="11" ry="11" style="stroke:#181818;stroke-width:1.0;"/><path d="M800.6656,309.875 Q800.8219,309.6563 801.0094,309.5469 Q801.1969,309.4375 801.4156,309.4375 Q801.7906,309.4375 802.025,309.7031 Q802.2594,309.9531 802.2594,310.5625 L802.2594,312.0156 Q802.2594,312.625 802.025,312.8906 Q801.7906,313.1563 801.4156,313.1563 Q801.0719,313.1563 800.8688,312.9531 Q800.6656,312.7656 800.5563,312.25 Q800.5094,311.8906 800.3219,311.7031 Q799.9938,311.3281 799.3844,311.1094 Q798.775,310.8906 798.15,310.8906 Q797.3844,310.8906 796.7438,311.2188 Q796.1188,311.5469 795.6188,312.2969 Q795.1344,313.0469 795.1344,314.0781 L795.1344,315.1719 Q795.1344,316.4063 796.025,317.2344 Q796.9156,318.0469 798.5094,318.0469 Q799.4469,318.0469 800.1031,317.7969 Q800.4938,317.6406 800.9156,317.2031 Q801.1813,316.9375 801.3219,316.8594 Q801.4781,316.7813 801.6813,316.7813 Q802.0094,316.7813 802.2594,317.0469 Q802.525,317.2969 802.525,317.6406 Q802.525,317.9844 802.1813,318.3906 Q801.6813,318.9688 800.8844,319.2969 Q799.8063,319.75 798.5094,319.75 Q796.9938,319.75 795.7906,319.125 Q794.8063,318.625 794.1188,317.5625 Q793.4313,316.4844 793.4313,315.2031 L793.4313,314.0469 Q793.4313,312.7188 794.0406,311.5781 Q794.6656,310.4219 795.7594,309.8125 Q796.8531,309.1875 798.0875,309.1875 Q798.8219,309.1875 799.4625,309.3594 Q800.1188,309.5156 800.6656,309.875 Z " fill="#000000"/><text fill="#000000" font-family="sans-serif" font-size="12" lengthAdjust="spacing" textLength="86" x="812.1" y="318.9688">ClientResource</text><line style="stroke:#181818;stroke-width:0.5;" x1="783" x2="901" y1="330" y2="330"/><line style="stroke:#181818;stroke-width:1.0;" x1="783" x2="901" y1="338" y2="338"/><text fill="#000000" font-family="sans-serif" font-size="14" lengthAdjust="spacing" textLength="108" x="788" y="357.1074">full_name : string</text><text fill="#000000" font-family="sans-serif" font-size="14" lengthAdjust="spacing" textLength="87" x="788" y="375.7285">phone : string</text><text fill="#000000" font-family="sans-serif" font-size="14" lengthAdjust="spacing" textLength="102" x="788" y="394.3496">telegram : string</text></g><!--class NoteResource--><g id="elem_NoteResource"><rect codeLine="54" fill="#F1F1F1" height="357.9375" id="NoteResource" rx="2.5" ry="2.5" style="stroke:#181818;stroke-width:0.5;" width="227" x="937.5" y="171"/><ellipse cx="1006.75" cy="187" fill="#ADD1B2" rx="11" ry="11" style="stroke:#181818;stroke-width:1.0;"/><path d="M1009.5156,182.875 Q1009.6719,182.6563 1009.8594,182.5469 Q1010.0469,182.4375 1010.2656,182.4375 Q1010.6406,182.4375 1010.875,182.7031 Q1011.1094,182.9531 1011.1094,183.5625 L1011.1094,185.0156 Q1011.1094,185.625 1010.875,185.8906 Q1010.6406,186.1563 1010.2656,186.1563 Q1009.9219,186.1563 1009.7188,185.9531 Q1009.5156,185.7656 1009.4063,185.25 Q1009.3594,184.8906 1009.1719,184.7031 Q1008.8438,184.3281 1008.2344,184.1094 Q1007.625,183.8906 1007,183.8906 Q1006.2344,183.8906 1005.5938,184.2188 Q1004.9688,184.5469 1004.4688,185.2969 Q1003.9844,186.0469 1003.9844,187.0781 L1003.9844,188.1719 Q1003.9844,189.4063 1004.875,190.2344 Q1005.7656,191.0469 1007.3594,191.0469 Q1008.2969,191.0469 1008.9531,190.7969 Q1009.3438,190.6406 1009.7656,190.2031 Q1010.0313,189.9375 1010.1719,189.8594 Q1010.3281,189.7813 1010.5313,189.7813 Q1010.8594,189.7813 1011.1094,190.0469 Q1011.375,190.2969 1011.375,190.6406 Q1011.375,190.9844 1011.0313,191.3906 Q1010.5313,191.9688 1009.7344,192.2969 Q1008.6563,192.75 1007.3594,192.75 Q1005.8438,192.75 1004.6406,192.125 Q1003.6563,191.625 1002.9688,190.5625 Q1002.2813,189.4844 1002.2813,188.2031 L1002.2813,187.0469 Q1002.2813,185.7188 1002.8906,184.5781 Q1003.5156,183.4219 1004.6094,182.8125 Q1005.7031,182.1875 1006.9375,182.1875 Q1007.6719,182.1875 1008.3125,182.3594 Q1008.9688,182.5156 1009.5156,182.875 Z " fill="#000000"/><text fill="#000000" font-family="sans-serif" font-size="12" lengthAdjust="spacing" textLength="80" x="1027.25" y="191.9688">NoteResource</text><line style="stroke:#181818;stroke-width:0.5;" x1="938.5" x2="1163.5" y1="203" y2="203"/><line style="stroke:#181818;stroke-width:1.0;" x1="938.5" x2="1163.5" y1="211" y2="211"/><text fill="#000000" font-family="sans-serif" font-size="14" lengthAdjust="spacing" textLength="85" x="943.5" y="230.1074">status : string</text><text fill="#000000" font-family="sans-serif" font-size="14" lengthAdjust="spacing" textLength="105" x="943.5" y="248.7285">total_price : float</text><text fill="#000000" font-family="sans-serif" font-size="14" lengthAdjust="spacing" textLength="120" x="943.5" y="267.3496">service_id : integer</text><text fill="#000000" font-family="sans-serif" font-size="14" lengthAdjust="spacing" textLength="108" x="943.5" y="285.9707">client_id : integer</text><text fill="#000000" font-family="sans-serif" font-size="14" lengthAdjust="spacing" textLength="118" x="943.5" y="304.5918">master_id : integer</text><text fill="#000000" font-family="sans-serif" font-size="14" lengthAdjust="spacing" textLength="114" x="943.5" y="323.2129">start_at : datetime</text><text fill="#000000" font-family="sans-serif" font-size="14" lengthAdjust="spacing" textLength="110" x="943.5" y="341.834">end_at : datetime</text><text fill="#000000" font-family="sans-serif" font-size="14" lengthAdjust="spacing" textLength="199" x="943.5" y="360.4551">client_name : string (computed)</text><text fill="#000000" font-family="sans-serif" font-size="14" lengthAdjust="spacing" textLength="209" x="943.5" y="379.0762">master_name : string (computed)</text><text fill="#000000" font-family="sans-serif" font-size="14" lengthAdjust="spacing" textLength="198" x="943.5" y="397.6973">service_title : string (computed)</text><text fill="#000000" font-family="sans-serif" font-size="14" lengthAdjust="spacing" textLength="215" x="943.5" y="438.9395">belongs_to: client, master, service</text><line style="stroke:#181818;stroke-width:1.0;stroke-dasharray:1.0,2.0;" x1="938.5" x2="1011" y1="414.5215" y2="414.5215"/><text fill="#000000" font-family="sans-serif" font-size="14" lengthAdjust="spacing" textLength="80" x="1011" y="419.8184">relationships</text><line style="stroke:#181818;stroke-width:1.0;stroke-dasharray:1.0,2.0;" x1="1091" x2="1163.5" y1="414.5215" y2="414.5215"/><text fill="#000000" font-family="sans-serif" font-size="14" lengthAdjust="spacing" textLength="58" x="943.5" y="480.1816">date (eq)</text><line style="stroke:#181818;stroke-width:1.0;stroke-dasharray:1.0,2.0;" x1="938.5" x2="1034" y1="455.7637" y2="455.7637"/><text fill="#000000" font-family="sans-serif" font-size="14" lengthAdjust="spacing" textLength="34" x="1034" y="461.0605">filters</text><line style="stroke:#181818;stroke-width:1.0;stroke-dasharray:1.0,2.0;" x1="1068" x2="1163.5" y1="455.7637" y2="455.7637"/><text fill="#000000" font-family="sans-serif" font-size="14" lengthAdjust="spacing" textLength="48" x="943.5" y="521.4238">start_at</text><line style="stroke:#181818;stroke-width:1.0;stroke-dasharray:1.0,2.0;" x1="938.5" x2="1039" y1="497.0059" y2="497.0059"/><text fill="#000000" font-family="sans-serif" font-size="14" lengthAdjust="spacing" textLength="24" x="1039" y="502.3027">sort</text><line style="stroke:#181818;stroke-width:1.0;stroke-dasharray:1.0,2.0;" x1="1063" x2="1163.5" y1="497.0059" y2="497.0059"/></g><!--class MaterialResource--><g id="elem_MaterialResource"><rect codeLine="74" fill="#F1F1F1" height="163.7266" id="MaterialResource" rx="2.5" ry="2.5" style="stroke:#181818;stroke-width:0.5;" width="195" x="1199.5" y="268"/><ellipse cx="1244.25" cy="284" fill="#ADD1B2" rx="11" ry="11" style="stroke:#181818;stroke-width:1.0;"/><path d="M1247.0156,279.875 Q1247.1719,279.6563 1247.3594,279.5469 Q1247.5469,279.4375 1247.7656,279.4375 Q1248.1406,279.4375 1248.375,279.7031 Q1248.6094,279.9531 1248.6094,280.5625 L1248.6094,282.0156 Q1248.6094,282.625 1248.375,282.8906 Q1248.1406,283.1563 1247.7656,283.1563 Q1247.4219,283.1563 1247.2188,282.9531 Q1247.0156,282.7656 1246.9063,282.25 Q1246.8594,281.8906 1246.6719,281.7031 Q1246.3438,281.3281 1245.7344,281.1094 Q1245.125,280.8906 1244.5,280.8906 Q1243.7344,280.8906 1243.0938,281.2188 Q1242.4688,281.5469 1241.9688,282.2969 Q1241.4844,283.0469 1241.4844,284.0781 L1241.4844,285.1719 Q1241.4844,286.4063 1242.375,287.2344 Q1243.2656,288.0469 1244.8594,288.0469 Q1245.7969,288.0469 1246.4531,287.7969 Q1246.8438,287.6406 1247.2656,287.2031 Q1247.5313,286.9375 1247.6719,286.8594 Q1247.8281,286.7813 1248.0313,286.7813 Q1248.3594,286.7813 1248.6094,287.0469 Q1248.875,287.2969 1248.875,287.6406 Q1248.875,287.9844 1248.5313,288.3906 Q1248.0313,288.9688 1247.2344,289.2969 Q1246.1563,289.75 1244.8594,289.75 Q1243.3438,289.75 1242.1406,289.125 Q1241.1563,288.625 1240.4688,287.5625 Q1239.7813,286.4844 1239.7813,285.2031 L1239.7813,284.0469 Q1239.7813,282.7188 1240.3906,281.5781 Q1241.0156,280.4219 1242.1094,279.8125 Q1243.2031,279.1875 1244.4375,279.1875 Q1245.1719,279.1875 1245.8125,279.3594 Q1246.4688,279.5156 1247.0156,279.875 Z " fill="#000000"/><text fill="#000000" font-family="sans-serif" font-size="12" lengthAdjust="spacing" textLength="97" x="1264.75" y="288.9688">MaterialResource</text><line style="stroke:#181818;stroke-width:0.5;" x1="1200.5" x2="1393.5" y1="300" y2="300"/><line style="stroke:#181818;stroke-width:1.0;" x1="1200.5" x2="1393.5" y1="308" y2="308"/><text fill="#000000" font-family="sans-serif" font-size="14" lengthAdjust="spacing" textLength="69" x="1205.5" y="327.1074">title : string</text><text fill="#000000" font-family="sans-serif" font-size="14" lengthAdjust="spacing" textLength="106" x="1205.5" y="345.7285">quantity : integer</text><text fill="#000000" font-family="sans-serif" font-size="14" lengthAdjust="spacing" textLength="161" x="1205.5" y="364.3496">minimal_quantity : integer</text><text fill="#000000" font-family="sans-serif" font-size="14" lengthAdjust="spacing" textLength="70" x="1205.5" y="382.9707">price : float</text><text fill="#000000" font-family="sans-serif" font-size="14" lengthAdjust="spacing" textLength="183" x="1205.5" y="424.2129">has_many: service_materials</text><line style="stroke:#181818;stroke-width:1.0;stroke-dasharray:1.0,2.0;" x1="1200.5" x2="1257" y1="399.7949" y2="399.7949"/><text fill="#000000" font-family="sans-serif" font-size="14" lengthAdjust="spacing" textLength="80" x="1257" y="405.0918">relationships</text><line style="stroke:#181818;stroke-width:1.0;stroke-dasharray:1.0,2.0;" x1="1337" x2="1393.5" y1="399.7949" y2="399.7949"/></g><!--class ServiceMaterialResource--><g id="elem_ServiceMaterialResource"><rect codeLine="84" fill="#F1F1F1" height="204.9688" id="ServiceMaterialResource" rx="2.5" ry="2.5" style="stroke:#181818;stroke-width:0.5;" width="215" x="1429.5" y="247.5"/><ellipse cx="1465.2" cy="263.5" fill="#ADD1B2" rx="11" ry="11" style="stroke:#181818;stroke-width:1.0;"/><path d="M1467.9656,259.375 Q1468.1219,259.1563 1468.3094,259.0469 Q1468.4969,258.9375 1468.7156,258.9375 Q1469.0906,258.9375 1469.325,259.2031 Q1469.5594,259.4531 1469.5594,260.0625 L1469.5594,261.5156 Q1469.5594,262.125 1469.325,262.3906 Q1469.0906,262.6563 1468.7156,262.6563 Q1468.3719,262.6563 1468.1688,262.4531 Q1467.9656,262.2656 1467.8563,261.75 Q1467.8094,261.3906 1467.6219,261.2031 Q1467.2938,260.8281 1466.6844,260.6094 Q1466.075,260.3906 1465.45,260.3906 Q1464.6844,260.3906 1464.0438,260.7188 Q1463.4188,261.0469 1462.9188,261.7969 Q1462.4344,262.5469 1462.4344,263.5781 L1462.4344,264.6719 Q1462.4344,265.9063 1463.325,266.7344 Q1464.2156,267.5469 1465.8094,267.5469 Q1466.7469,267.5469 1467.4031,267.2969 Q1467.7938,267.1406 1468.2156,266.7031 Q1468.4813,266.4375 1468.6219,266.3594 Q1468.7781,266.2813 1468.9813,266.2813 Q1469.3094,266.2813 1469.5594,266.5469 Q1469.825,266.7969 1469.825,267.1406 Q1469.825,267.4844 1469.4813,267.8906 Q1468.9813,268.4688 1468.1844,268.7969 Q1467.1063,269.25 1465.8094,269.25 Q1464.2938,269.25 1463.0906,268.625 Q1462.1063,268.125 1461.4188,267.0625 Q1460.7313,265.9844 1460.7313,264.7031 L1460.7313,263.5469 Q1460.7313,262.2188 1461.3406,261.0781 Q1461.9656,259.9219 1463.0594,259.3125 Q1464.1531,258.6875 1465.3875,258.6875 Q1466.1219,258.6875 1466.7625,258.8594 Q1467.4188,259.0156 1467.9656,259.375 Z " fill="#000000"/><text fill="#000000" font-family="sans-serif" font-size="12" lengthAdjust="spacing" textLength="137" x="1483.8" y="268.4688">ServiceMaterialResource</text><line style="stroke:#181818;stroke-width:0.5;" x1="1430.5" x2="1643.5" y1="279.5" y2="279.5"/><line style="stroke:#181818;stroke-width:1.0;" x1="1430.5" x2="1643.5" y1="287.5" y2="287.5"/><text fill="#000000" font-family="sans-serif" font-size="14" lengthAdjust="spacing" textLength="167" x="1435.5" y="306.6074">required_quantity : integer</text><text fill="#000000" font-family="sans-serif" font-size="14" lengthAdjust="spacing" textLength="120" x="1435.5" y="325.2285">service_id : integer</text><text fill="#000000" font-family="sans-serif" font-size="14" lengthAdjust="spacing" textLength="125" x="1435.5" y="343.8496">material_id : integer</text><text fill="#000000" font-family="sans-serif" font-size="14" lengthAdjust="spacing" textLength="203" x="1435.5" y="362.4707">material_title : string (computed)</text><text fill="#000000" font-family="sans-serif" font-size="14" lengthAdjust="spacing" textLength="181" x="1435.5" y="403.7129">belongs_to: service, material</text><line style="stroke:#181818;stroke-width:1.0;stroke-dasharray:1.0,2.0;" x1="1430.5" x2="1497" y1="379.2949" y2="379.2949"/><text fill="#000000" font-family="sans-serif" font-size="14" lengthAdjust="spacing" textLength="80" x="1497" y="384.5918">relationships</text><line style="stroke:#181818;stroke-width:1.0;stroke-dasharray:1.0,2.0;" x1="1577" x2="1643.5" y1="379.2949" y2="379.2949"/><text fill="#000000" font-family="sans-serif" font-size="14" lengthAdjust="spacing" textLength="94" x="1435.5" y="444.9551">service_id (eq)</text><line style="stroke:#181818;stroke-width:1.0;stroke-dasharray:1.0,2.0;" x1="1430.5" x2="1520" y1="420.5371" y2="420.5371"/><text fill="#000000" font-family="sans-serif" font-size="14" lengthAdjust="spacing" textLength="34" x="1520" y="425.834">filters</text><line style="stroke:#181818;stroke-width:1.0;stroke-dasharray:1.0,2.0;" x1="1554" x2="1643.5" y1="420.5371" y2="420.5371"/></g><!--class ServiceMasterResource--><g id="elem_ServiceMasterResource"><rect codeLine="96" fill="#F1F1F1" height="186.3477" id="ServiceMasterResource" rx="2.5" ry="2.5" style="stroke:#181818;stroke-width:0.5;" width="221" x="1679.5" y="257"/><ellipse cx="1720.6" cy="273" fill="#ADD1B2" rx="11" ry="11" style="stroke:#181818;stroke-width:1.0;"/><path d="M1723.3656,268.875 Q1723.5219,268.6563 1723.7094,268.5469 Q1723.8969,268.4375 1724.1156,268.4375 Q1724.4906,268.4375 1724.725,268.7031 Q1724.9594,268.9531 1724.9594,269.5625 L1724.9594,271.0156 Q1724.9594,271.625 1724.725,271.8906 Q1724.4906,272.1563 1724.1156,272.1563 Q1723.7719,272.1563 1723.5688,271.9531 Q1723.3656,271.7656 1723.2563,271.25 Q1723.2094,270.8906 1723.0219,270.7031 Q1722.6938,270.3281 1722.0844,270.1094 Q1721.475,269.8906 1720.85,269.8906 Q1720.0844,269.8906 1719.4438,270.2188 Q1718.8188,270.5469 1718.3188,271.2969 Q1717.8344,272.0469 1717.8344,273.0781 L1717.8344,274.1719 Q1717.8344,275.4063 1718.725,276.2344 Q1719.6156,277.0469 1721.2094,277.0469 Q1722.1469,277.0469 1722.8031,276.7969 Q1723.1938,276.6406 1723.6156,276.2031 Q1723.8813,275.9375 1724.0219,275.8594 Q1724.1781,275.7813 1724.3813,275.7813 Q1724.7094,275.7813 1724.9594,276.0469 Q1725.225,276.2969 1725.225,276.6406 Q1725.225,276.9844 1724.8813,277.3906 Q1724.3813,277.9688 1723.5844,278.2969 Q1722.5063,278.75 1721.2094,278.75 Q1719.6938,278.75 1718.4906,278.125 Q1717.5063,277.625 1716.8188,276.5625 Q1716.1313,275.4844 1716.1313,274.2031 L1716.1313,273.0469 Q1716.1313,271.7188 1716.7406,270.5781 Q1717.3656,269.4219 1718.4594,268.8125 Q1719.5531,268.1875 1720.7875,268.1875 Q1721.5219,268.1875 1722.1625,268.3594 Q1722.8188,268.5156 1723.3656,268.875 Z " fill="#000000"/><text fill="#000000" font-family="sans-serif" font-size="12" lengthAdjust="spacing" textLength="131" x="1740.4" y="277.9688">ServiceMasterResource</text><line style="stroke:#181818;stroke-width:0.5;" x1="1680.5" x2="1899.5" y1="289" y2="289"/><line style="stroke:#181818;stroke-width:1.0;" x1="1680.5" x2="1899.5" y1="297" y2="297"/><text fill="#000000" font-family="sans-serif" font-size="14" lengthAdjust="spacing" textLength="120" x="1685.5" y="316.1074">service_id : integer</text><text fill="#000000" font-family="sans-serif" font-size="14" lengthAdjust="spacing" textLength="118" x="1685.5" y="334.7285">master_id : integer</text><text fill="#000000" font-family="sans-serif" font-size="14" lengthAdjust="spacing" textLength="209" x="1685.5" y="353.3496">master_name : string (computed)</text><text fill="#000000" font-family="sans-serif" font-size="14" lengthAdjust="spacing" textLength="174" x="1685.5" y="394.5918">belongs_to: service, master</text><line style="stroke:#181818;stroke-width:1.0;stroke-dasharray:1.0,2.0;" x1="1680.5" x2="1750" y1="370.1738" y2="370.1738"/><text fill="#000000" font-family="sans-serif" font-size="14" lengthAdjust="spacing" textLength="80" x="1750" y="375.4707">relationships</text><line style="stroke:#181818;stroke-width:1.0;stroke-dasharray:1.0,2.0;" x1="1830" x2="1899.5" y1="370.1738" y2="370.1738"/><text fill="#000000" font-family="sans-serif" font-size="14" lengthAdjust="spacing" textLength="94" x="1685.5" y="435.834">service_id (eq)</text><line style="stroke:#181818;stroke-width:1.0;stroke-dasharray:1.0,2.0;" x1="1680.5" x2="1773" y1="411.416" y2="411.416"/><text fill="#000000" font-family="sans-serif" font-size="14" lengthAdjust="spacing" textLength="34" x="1773" y="416.7129">filters</text><line style="stroke:#181818;stroke-width:1.0;stroke-dasharray:1.0,2.0;" x1="1807" x2="1899.5" y1="411.416" y2="411.416"/></g><!--class User--><g id="elem_User"><rect fill="#F1F1F1" height="48" id="User" rx="2.5" ry="2.5" style="stroke:#181818;stroke-width:0.5;" width="59" x="116.5" y="589"/><ellipse cx="131.5" cy="605" fill="#ADD1B2" rx="11" ry="11" style="stroke:#181818;stroke-width:1.0;"/><path d="M134.2656,600.875 Q134.4219,600.6563 134.6094,600.5469 Q134.7969,600.4375 135.0156,600.4375 Q135.3906,600.4375 135.625,600.7031 Q135.8594,600.9531 135.8594,601.5625 L135.8594,603.0156 Q135.8594,603.625 135.625,603.8906 Q135.3906,604.1563 135.0156,604.1563 Q134.6719,604.1563 134.4688,603.9531 Q134.2656,603.7656 134.1563,603.25 Q134.1094,602.8906 133.9219,602.7031 Q133.5938,602.3281 132.9844,602.1094 Q132.375,601.8906 131.75,601.8906 Q130.9844,601.8906 130.3438,602.2188 Q129.7188,602.5469 129.2188,603.2969 Q128.7344,604.0469 128.7344,605.0781 L128.7344,606.1719 Q128.7344,607.4063 129.625,608.2344 Q130.5156,609.0469 132.1094,609.0469 Q133.0469,609.0469 133.7031,608.7969 Q134.0938,608.6406 134.5156,608.2031 Q134.7813,607.9375 134.9219,607.8594 Q135.0781,607.7813 135.2813,607.7813 Q135.6094,607.7813 135.8594,608.0469 Q136.125,608.2969 136.125,608.6406 Q136.125,608.9844 135.7813,609.3906 Q135.2813,609.9688 134.4844,610.2969 Q133.4063,610.75 132.1094,610.75 Q130.5938,610.75 129.3906,610.125 Q128.4063,609.625 127.7188,608.5625 Q127.0313,607.4844 127.0313,606.2031 L127.0313,605.0469 Q127.0313,603.7188 127.6406,602.5781 Q128.2656,601.4219 129.3594,600.8125 Q130.4531,600.1875 131.6875,600.1875 Q132.4219,600.1875 133.0625,600.3594 Q133.7188,600.5156 134.2656,600.875 Z " fill="#000000"/><text fill="#000000" font-family="sans-serif" font-size="12" lengthAdjust="spacing" textLength="27" x="145.5" y="609.9688">User</text><line style="stroke:#181818;stroke-width:0.5;" x1="117.5" x2="174.5" y1="621" y2="621"/><line style="stroke:#181818;stroke-width:0.5;" x1="117.5" x2="174.5" y1="629" y2="629"/></g><!--class Master--><g id="elem_Master"><rect fill="#F1F1F1" height="48" id="Master" rx="2.5" ry="2.5" style="stroke:#181818;stroke-width:0.5;" width="69" x="383.5" y="589"/><ellipse cx="398.5" cy="605" fill="#ADD1B2" rx="11" ry="11" style="stroke:#181818;stroke-width:1.0;"/><path d="M401.2656,600.875 Q401.4219,600.6563 401.6094,600.5469 Q401.7969,600.4375 402.0156,600.4375 Q402.3906,600.4375 402.625,600.7031 Q402.8594,600.9531 402.8594,601.5625 L402.8594,603.0156 Q402.8594,603.625 402.625,603.8906 Q402.3906,604.1563 402.0156,604.1563 Q401.6719,604.1563 401.4688,603.9531 Q401.2656,603.7656 401.1563,603.25 Q401.1094,602.8906 400.9219,602.7031 Q400.5938,602.3281 399.9844,602.1094 Q399.375,601.8906 398.75,601.8906 Q397.9844,601.8906 397.3438,602.2188 Q396.7188,602.5469 396.2188,603.2969 Q395.7344,604.0469 395.7344,605.0781 L395.7344,606.1719 Q395.7344,607.4063 396.625,608.2344 Q397.5156,609.0469 399.1094,609.0469 Q400.0469,609.0469 400.7031,608.7969 Q401.0938,608.6406 401.5156,608.2031 Q401.7813,607.9375 401.9219,607.8594 Q402.0781,607.7813 402.2813,607.7813 Q402.6094,607.7813 402.8594,608.0469 Q403.125,608.2969 403.125,608.6406 Q403.125,608.9844 402.7813,609.3906 Q402.2813,609.9688 401.4844,610.2969 Q400.4063,610.75 399.1094,610.75 Q397.5938,610.75 396.3906,610.125 Q395.4063,609.625 394.7188,608.5625 Q394.0313,607.4844 394.0313,606.2031 L394.0313,605.0469 Q394.0313,603.7188 394.6406,602.5781 Q395.2656,601.4219 396.3594,600.8125 Q397.4531,600.1875 398.6875,600.1875 Q399.4219,600.1875 400.0625,600.3594 Q400.7188,600.5156 401.2656,600.875 Z " fill="#000000"/><text fill="#000000" font-family="sans-serif" font-size="12" lengthAdjust="spacing" textLength="37" x="412.5" y="609.9688">Master</text><line style="stroke:#181818;stroke-width:0.5;" x1="384.5" x2="451.5" y1="621" y2="621"/><line style="stroke:#181818;stroke-width:0.5;" x1="384.5" x2="451.5" y1="629" y2="629"/></g><!--class Service--><g id="elem_Service"><rect fill="#F1F1F1" height="48" id="Service" rx="2.5" ry="2.5" style="stroke:#181818;stroke-width:0.5;" width="72" x="613" y="589"/><ellipse cx="628" cy="605" fill="#ADD1B2" rx="11" ry="11" style="stroke:#181818;stroke-width:1.0;"/><path d="M630.7656,600.875 Q630.9219,600.6563 631.1094,600.5469 Q631.2969,600.4375 631.5156,600.4375 Q631.8906,600.4375 632.125,600.7031 Q632.3594,600.9531 632.3594,601.5625 L632.3594,603.0156 Q632.3594,603.625 632.125,603.8906 Q631.8906,604.1563 631.5156,604.1563 Q631.1719,604.1563 630.9688,603.9531 Q630.7656,603.7656 630.6563,603.25 Q630.6094,602.8906 630.4219,602.7031 Q630.0938,602.3281 629.4844,602.1094 Q628.875,601.8906 628.25,601.8906 Q627.4844,601.8906 626.8438,602.2188 Q626.2188,602.5469 625.7188,603.2969 Q625.2344,604.0469 625.2344,605.0781 L625.2344,606.1719 Q625.2344,607.4063 626.125,608.2344 Q627.0156,609.0469 628.6094,609.0469 Q629.5469,609.0469 630.2031,608.7969 Q630.5938,608.6406 631.0156,608.2031 Q631.2813,607.9375 631.4219,607.8594 Q631.5781,607.7813 631.7813,607.7813 Q632.1094,607.7813 632.3594,608.0469 Q632.625,608.2969 632.625,608.6406 Q632.625,608.9844 632.2813,609.3906 Q631.7813,609.9688 630.9844,610.2969 Q629.9063,610.75 628.6094,610.75 Q627.0938,610.75 625.8906,610.125 Q624.9063,609.625 624.2188,608.5625 Q623.5313,607.4844 623.5313,606.2031 L623.5313,605.0469 Q623.5313,603.7188 624.1406,602.5781 Q624.7656,601.4219 625.8594,600.8125 Q626.9531,600.1875 628.1875,600.1875 Q628.9219,600.1875 629.5625,600.3594 Q630.2188,600.5156 630.7656,600.875 Z " fill="#000000"/><text fill="#000000" font-family="sans-serif" font-size="12" lengthAdjust="spacing" textLength="40" x="642" y="609.9688">Service</text><line style="stroke:#181818;stroke-width:0.5;" x1="614" x2="684" y1="621" y2="621"/><line style="stroke:#181818;stroke-width:0.5;" x1="614" x2="684" y1="629" y2="629"/></g><!--class Client--><g id="elem_Client"><rect fill="#F1F1F1" height="48" id="Client" rx="2.5" ry="2.5" style="stroke:#181818;stroke-width:0.5;" width="64" x="810" y="589"/><ellipse cx="825" cy="605" fill="#ADD1B2" rx="11" ry="11" style="stroke:#181818;stroke-width:1.0;"/><path d="M827.7656,600.875 Q827.9219,600.6563 828.1094,600.5469 Q828.2969,600.4375 828.5156,600.4375 Q828.8906,600.4375 829.125,600.7031 Q829.3594,600.9531 829.3594,601.5625 L829.3594,603.0156 Q829.3594,603.625 829.125,603.8906 Q828.8906,604.1563 828.5156,604.1563 Q828.1719,604.1563 827.9688,603.9531 Q827.7656,603.7656 827.6563,603.25 Q827.6094,602.8906 827.4219,602.7031 Q827.0938,602.3281 826.4844,602.1094 Q825.875,601.8906 825.25,601.8906 Q824.4844,601.8906 823.8438,602.2188 Q823.2188,602.5469 822.7188,603.2969 Q822.2344,604.0469 822.2344,605.0781 L822.2344,606.1719 Q822.2344,607.4063 823.125,608.2344 Q824.0156,609.0469 825.6094,609.0469 Q826.5469,609.0469 827.2031,608.7969 Q827.5938,608.6406 828.0156,608.2031 Q828.2813,607.9375 828.4219,607.8594 Q828.5781,607.7813 828.7813,607.7813 Q829.1094,607.7813 829.3594,608.0469 Q829.625,608.2969 829.625,608.6406 Q829.625,608.9844 829.2813,609.3906 Q828.7813,609.9688 827.9844,610.2969 Q826.9063,610.75 825.6094,610.75 Q824.0938,610.75 822.8906,610.125 Q821.9063,609.625 821.2188,608.5625 Q820.5313,607.4844 820.5313,606.2031 L820.5313,605.0469 Q820.5313,603.7188 821.1406,602.5781 Q821.7656,601.4219 822.8594,600.8125 Q823.9531,600.1875 825.1875,600.1875 Q825.9219,600.1875 826.5625,600.3594 Q827.2188,600.5156 827.7656,600.875 Z " fill="#000000"/><text fill="#000000" font-family="sans-serif" font-size="12" lengthAdjust="spacing" textLength="32" x="839" y="609.9688">Client</text><line style="stroke:#181818;stroke-width:0.5;" x1="811" x2="873" y1="621" y2="621"/><line style="stroke:#181818;stroke-width:0.5;" x1="811" x2="873" y1="629" y2="629"/></g><!--class Note--><g id="elem_Note"><rect fill="#F1F1F1" height="48" id="Note" rx="2.5" ry="2.5" style="stroke:#181818;stroke-width:0.5;" width="58" x="1022" y="589"/><ellipse cx="1037" cy="605" fill="#ADD1B2" rx="11" ry="11" style="stroke:#181818;stroke-width:1.0;"/><path d="M1039.7656,600.875 Q1039.9219,600.6563 1040.1094,600.5469 Q1040.2969,600.4375 1040.5156,600.4375 Q1040.8906,600.4375 1041.125,600.7031 Q1041.3594,600.9531 1041.3594,601.5625 L1041.3594,603.0156 Q1041.3594,603.625 1041.125,603.8906 Q1040.8906,604.1563 1040.5156,604.1563 Q1040.1719,604.1563 1039.9688,603.9531 Q1039.7656,603.7656 1039.6563,603.25 Q1039.6094,602.8906 1039.4219,602.7031 Q1039.0938,602.3281 1038.4844,602.1094 Q1037.875,601.8906 1037.25,601.8906 Q1036.4844,601.8906 1035.8438,602.2188 Q1035.2188,602.5469 1034.7188,603.2969 Q1034.2344,604.0469 1034.2344,605.0781 L1034.2344,606.1719 Q1034.2344,607.4063 1035.125,608.2344 Q1036.0156,609.0469 1037.6094,609.0469 Q1038.5469,609.0469 1039.2031,608.7969 Q1039.5938,608.6406 1040.0156,608.2031 Q1040.2813,607.9375 1040.4219,607.8594 Q1040.5781,607.7813 1040.7813,607.7813 Q1041.1094,607.7813 1041.3594,608.0469 Q1041.625,608.2969 1041.625,608.6406 Q1041.625,608.9844 1041.2813,609.3906 Q1040.7813,609.9688 1039.9844,610.2969 Q1038.9063,610.75 1037.6094,610.75 Q1036.0938,610.75 1034.8906,610.125 Q1033.9063,609.625 1033.2188,608.5625 Q1032.5313,607.4844 1032.5313,606.2031 L1032.5313,605.0469 Q1032.5313,603.7188 1033.1406,602.5781 Q1033.7656,601.4219 1034.8594,600.8125 Q1035.9531,600.1875 1037.1875,600.1875 Q1037.9219,600.1875 1038.5625,600.3594 Q1039.2188,600.5156 1039.7656,600.875 Z " fill="#000000"/><text fill="#000000" font-family="sans-serif" font-size="12" lengthAdjust="spacing" textLength="26" x="1051" y="609.9688">Note</text><line style="stroke:#181818;stroke-width:0.5;" x1="1023" x2="1079" y1="621" y2="621"/><line style="stroke:#181818;stroke-width:0.5;" x1="1023" x2="1079" y1="629" y2="629"/></g><!--class Material--><g id="elem_Material"><rect fill="#F1F1F1" height="48" id="Material" rx="2.5" ry="2.5" style="stroke:#181818;stroke-width:0.5;" width="75" x="1259.5" y="589"/><ellipse cx="1274.5" cy="605" fill="#ADD1B2" rx="11" ry="11" style="stroke:#181818;stroke-width:1.0;"/><path d="M1277.2656,600.875 Q1277.4219,600.6563 1277.6094,600.5469 Q1277.7969,600.4375 1278.0156,600.4375 Q1278.3906,600.4375 1278.625,600.7031 Q1278.8594,600.9531 1278.8594,601.5625 L1278.8594,603.0156 Q1278.8594,603.625 1278.625,603.8906 Q1278.3906,604.1563 1278.0156,604.1563 Q1277.6719,604.1563 1277.4688,603.9531 Q1277.2656,603.7656 1277.1563,603.25 Q1277.1094,602.8906 1276.9219,602.7031 Q1276.5938,602.3281 1275.9844,602.1094 Q1275.375,601.8906 1274.75,601.8906 Q1273.9844,601.8906 1273.3438,602.2188 Q1272.7188,602.5469 1272.2188,603.2969 Q1271.7344,604.0469 1271.7344,605.0781 L1271.7344,606.1719 Q1271.7344,607.4063 1272.625,608.2344 Q1273.5156,609.0469 1275.1094,609.0469 Q1276.0469,609.0469 1276.7031,608.7969 Q1277.0938,608.6406 1277.5156,608.2031 Q1277.7813,607.9375 1277.9219,607.8594 Q1278.0781,607.7813 1278.2813,607.7813 Q1278.6094,607.7813 1278.8594,608.0469 Q1279.125,608.2969 1279.125,608.6406 Q1279.125,608.9844 1278.7813,609.3906 Q1278.2813,609.9688 1277.4844,610.2969 Q1276.4063,610.75 1275.1094,610.75 Q1273.5938,610.75 1272.3906,610.125 Q1271.4063,609.625 1270.7188,608.5625 Q1270.0313,607.4844 1270.0313,606.2031 L1270.0313,605.0469 Q1270.0313,603.7188 1270.6406,602.5781 Q1271.2656,601.4219 1272.3594,600.8125 Q1273.4531,600.1875 1274.6875,600.1875 Q1275.4219,600.1875 1276.0625,600.3594 Q1276.7188,600.5156 1277.2656,600.875 Z " fill="#000000"/><text fill="#000000" font-family="sans-serif" font-size="12" lengthAdjust="spacing" textLength="43" x="1288.5" y="609.9688">Material</text><line style="stroke:#181818;stroke-width:0.5;" x1="1260.5" x2="1333.5" y1="621" y2="621"/><line style="stroke:#181818;stroke-width:0.5;" x1="1260.5" x2="1333.5" y1="629" y2="629"/></g><!--class ServiceMaterial--><g id="elem_ServiceMaterial"><rect fill="#F1F1F1" height="48" id="ServiceMaterial" rx="2.5" ry="2.5" style="stroke:#181818;stroke-width:0.5;" width="115" x="1479.5" y="589"/><ellipse cx="1494.5" cy="605" fill="#ADD1B2" rx="11" ry="11" style="stroke:#181818;stroke-width:1.0;"/><path d="M1497.2656,600.875 Q1497.4219,600.6563 1497.6094,600.5469 Q1497.7969,600.4375 1498.0156,600.4375 Q1498.3906,600.4375 1498.625,600.7031 Q1498.8594,600.9531 1498.8594,601.5625 L1498.8594,603.0156 Q1498.8594,603.625 1498.625,603.8906 Q1498.3906,604.1563 1498.0156,604.1563 Q1497.6719,604.1563 1497.4688,603.9531 Q1497.2656,603.7656 1497.1563,603.25 Q1497.1094,602.8906 1496.9219,602.7031 Q1496.5938,602.3281 1495.9844,602.1094 Q1495.375,601.8906 1494.75,601.8906 Q1493.9844,601.8906 1493.3438,602.2188 Q1492.7188,602.5469 1492.2188,603.2969 Q1491.7344,604.0469 1491.7344,605.0781 L1491.7344,606.1719 Q1491.7344,607.4063 1492.625,608.2344 Q1493.5156,609.0469 1495.1094,609.0469 Q1496.0469,609.0469 1496.7031,608.7969 Q1497.0938,608.6406 1497.5156,608.2031 Q1497.7813,607.9375 1497.9219,607.8594 Q1498.0781,607.7813 1498.2813,607.7813 Q1498.6094,607.7813 1498.8594,608.0469 Q1499.125,608.2969 1499.125,608.6406 Q1499.125,608.9844 1498.7813,609.3906 Q1498.2813,609.9688 1497.4844,610.2969 Q1496.4063,610.75 1495.1094,610.75 Q1493.5938,610.75 1492.3906,610.125 Q1491.4063,609.625 1490.7188,608.5625 Q1490.0313,607.4844 1490.0313,606.2031 L1490.0313,605.0469 Q1490.0313,603.7188 1490.6406,602.5781 Q1491.2656,601.4219 1492.3594,600.8125 Q1493.4531,600.1875 1494.6875,600.1875 Q1495.4219,600.1875 1496.0625,600.3594 Q1496.7188,600.5156 1497.2656,600.875 Z " fill="#000000"/><text fill="#000000" font-family="sans-serif" font-size="12" lengthAdjust="spacing" textLength="83" x="1508.5" y="609.9688">ServiceMaterial</text><line style="stroke:#181818;stroke-width:0.5;" x1="1480.5" x2="1593.5" y1="621" y2="621"/><line style="stroke:#181818;stroke-width:0.5;" x1="1480.5" x2="1593.5" y1="629" y2="629"/></g><!--class ServiceMaster--><g id="elem_ServiceMaster"><rect fill="#F1F1F1" height="48" id="ServiceMaster" rx="2.5" ry="2.5" style="stroke:#181818;stroke-width:0.5;" width="109" x="1735.5" y="589"/><ellipse cx="1750.5" cy="605" fill="#ADD1B2" rx="11" ry="11" style="stroke:#181818;stroke-width:1.0;"/><path d="M1753.2656,600.875 Q1753.4219,600.6563 1753.6094,600.5469 Q1753.7969,600.4375 1754.0156,600.4375 Q1754.3906,600.4375 1754.625,600.7031 Q1754.8594,600.9531 1754.8594,601.5625 L1754.8594,603.0156 Q1754.8594,603.625 1754.625,603.8906 Q1754.3906,604.1563 1754.0156,604.1563 Q1753.6719,604.1563 1753.4688,603.9531 Q1753.2656,603.7656 1753.1563,603.25 Q1753.1094,602.8906 1752.9219,602.7031 Q1752.5938,602.3281 1751.9844,602.1094 Q1751.375,601.8906 1750.75,601.8906 Q1749.9844,601.8906 1749.3438,602.2188 Q1748.7188,602.5469 1748.2188,603.2969 Q1747.7344,604.0469 1747.7344,605.0781 L1747.7344,606.1719 Q1747.7344,607.4063 1748.625,608.2344 Q1749.5156,609.0469 1751.1094,609.0469 Q1752.0469,609.0469 1752.7031,608.7969 Q1753.0938,608.6406 1753.5156,608.2031 Q1753.7813,607.9375 1753.9219,607.8594 Q1754.0781,607.7813 1754.2813,607.7813 Q1754.6094,607.7813 1754.8594,608.0469 Q1755.125,608.2969 1755.125,608.6406 Q1755.125,608.9844 1754.7813,609.3906 Q1754.2813,609.9688 1753.4844,610.2969 Q1752.4063,610.75 1751.1094,610.75 Q1749.5938,610.75 1748.3906,610.125 Q1747.4063,609.625 1746.7188,608.5625 Q1746.0313,607.4844 1746.0313,606.2031 L1746.0313,605.0469 Q1746.0313,603.7188 1746.6406,602.5781 Q1747.2656,601.4219 1748.3594,600.8125 Q1749.4531,600.1875 1750.6875,600.1875 Q1751.4219,600.1875 1752.0625,600.3594 Q1752.7188,600.5156 1753.2656,600.875 Z " fill="#000000"/><text fill="#000000" font-family="sans-serif" font-size="12" lengthAdjust="spacing" textLength="77" x="1764.5" y="609.9688">ServiceMaster</text><line style="stroke:#181818;stroke-width:0.5;" x1="1736.5" x2="1843.5" y1="621" y2="621"/><line style="stroke:#181818;stroke-width:0.5;" x1="1736.5" x2="1843.5" y1="629" y2="629"/></g><!--reverse link ApplicationResource to UserResource--><g id="link_ApplicationResource_UserResource"><path codeLine="108" d="M838.17,59 C629.18,59 146,59 146,59 C146,59 146,193.05 146,279.19 " fill="none" id="ApplicationResource-backto-UserResource" style="stroke:#181818;stroke-width:1.0;"/><polygon fill="none" points="856.17,59,838.17,53,838.17,65,856.17,59" style="stroke:#181818;stroke-width:1.0;"/></g><!--reverse link ApplicationResource to MasterResource--><g id="link_ApplicationResource_MasterResource"><path codeLine="109" d="M867.88,129.19 C867.88,185.74 867.88,250 867.88,250 C867.88,250 648.54,250 516.17,250 " fill="none" id="ApplicationResource-backto-MasterResource" style="stroke:#181818;stroke-width:1.0;"/><polygon fill="none" points="867.88,111.19,861.88,129.19,873.88,129.19,867.88,111.19" style="stroke:#181818;stroke-width:1.0;"/></g><!--reverse link ApplicationResource to ServiceResource--><g id="link_ApplicationResource_ServiceResource"><path codeLine="110" d="M879.25,129.14 C879.25,194.19 879.25,279 879.25,279 C879.25,279 809.4,279 746.65,279 " fill="none" id="ApplicationResource-backto-ServiceResource" style="stroke:#181818;stroke-width:1.0;"/><polygon fill="none" points="879.25,111.14,873.25,129.14,885.25,129.14,879.25,111.14" style="stroke:#181818;stroke-width:1.0;"/></g><!--reverse link ApplicationResource to ClientResource--><g id="link_ApplicationResource_ClientResource"><path codeLine="111" d="M890.62,129.02 C890.62,181.83 890.62,245.12 890.62,297.94 " fill="none" id="ApplicationResource-backto-ClientResource" style="stroke:#181818;stroke-width:1.0;"/><polygon fill="none" points="890.62,111.02,884.62,129.02,896.62,129.02,890.62,111.02" style="stroke:#181818;stroke-width:1.0;"/></g><!--reverse link ApplicationResource to NoteResource--><g id="link_ApplicationResource_NoteResource"><path codeLine="112" d="M986.5,129.02 C986.5,146.52 986.5,149.14 986.5,170.81 " fill="none" id="ApplicationResource-backto-NoteResource" style="stroke:#181818;stroke-width:1.0;"/><polygon fill="none" points="986.5,111.02,980.5,129.02,992.5,129.02,986.5,111.02" style="stroke:#181818;stroke-width:1.0;"/></g><!--reverse link ApplicationResource to MaterialResource--><g id="link_ApplicationResource_MaterialResource"><path codeLine="113" d="M1053.94,85 C1157.93,85 1297,85 1297,85 C1297,85 1297,190.14 1297,267.97 " fill="none" id="ApplicationResource-backto-MaterialResource" style="stroke:#181818;stroke-width:1.0;"/><polygon fill="none" points="1035.94,85,1053.94,91,1053.94,79,1035.94,85" style="stroke:#181818;stroke-width:1.0;"/></g><!--reverse link ApplicationResource to ServiceMaterialResource--><g id="link_ApplicationResource_ServiceMaterialResource"><path codeLine="114" d="M1053.76,59 C1219.09,59 1537,59 1537,59 C1537,59 1537,163.62 1537,247.4 " fill="none" id="ApplicationResource-backto-ServiceMaterialResource" style="stroke:#181818;stroke-width:1.0;"/><polygon fill="none" points="1035.76,59,1053.76,65,1053.76,53,1035.76,59" style="stroke:#181818;stroke-width:1.0;"/></g><!--reverse link ApplicationResource to ServiceMasterResource--><g id="link_ApplicationResource_ServiceMasterResource"><path codeLine="115" d="M1053.52,33 C1270.74,33 1790,33 1790,33 C1790,33 1790,163.1 1790,256.6 " fill="none" id="ApplicationResource-backto-ServiceMasterResource" style="stroke:#181818;stroke-width:1.0;"/><polygon fill="none" points="1035.52,33,1053.52,39,1053.52,27,1035.52,33" style="stroke:#181818;stroke-width:1.0;"/></g><!--link UserResource to User--><g id="link_UserResource_User"><path codeLine="118" d="M146,420.83 C146,476.66 146,545.19 146,582.93 " fill="none" id="UserResource-to-User" style="stroke:#181818;stroke-width:1.0;stroke-dasharray:7.0,7.0;"/><polygon fill="#181818" points="146,588.93,150,579.93,146,583.93,142,579.93,146,588.93" style="stroke:#181818;stroke-width:1.0;"/><text fill="#000000" font-family="sans-serif" font-size="13" lengthAdjust="spacing" textLength="55" x="90" y="500.9083">serializes</text></g><!--link MasterResource to Master--><g id="link_MasterResource_Master"><path codeLine="119" d="M418,460.01 C418,507.73 418,553.33 418,582.75 " fill="none" id="MasterResource-to-Master" style="stroke:#181818;stroke-width:1.0;stroke-dasharray:7.0,7.0;"/><polygon fill="#181818" points="418,588.75,422,579.75,418,583.75,414,579.75,418,588.75" style="stroke:#181818;stroke-width:1.0;"/><text fill="#000000" font-family="sans-serif" font-size="13" lengthAdjust="spacing" textLength="55" x="362" y="520.4083">serializes</text></g><!--link ServiceResource to Service--><g id="link_ServiceResource_Service"><path codeLine="120" d="M649,441.25 C649,493.62 649,549.42 649,582.75 " fill="none" id="ServiceResource-to-Service" style="stroke:#181818;stroke-width:1.0;stroke-dasharray:7.0,7.0;"/><polygon fill="#181818" points="649,588.75,653,579.75,649,583.75,645,579.75,649,588.75" style="stroke:#181818;stroke-width:1.0;"/><text fill="#000000" font-family="sans-serif" font-size="13" lengthAdjust="spacing" textLength="55" x="593" y="511.0283">serializes</text></g><!--link ClientResource to Client--><g id="link_ClientResource_Client"><path codeLine="121" d="M842,402.27 C842,458.9 842,540.77 842,582.89 " fill="none" id="ClientResource-to-Client" style="stroke:#181818;stroke-width:1.0;stroke-dasharray:7.0,7.0;"/><polygon fill="#181818" points="842,588.89,846,579.89,842,583.89,838,579.89,842,588.89" style="stroke:#181818;stroke-width:1.0;"/><text fill="#000000" font-family="sans-serif" font-size="13" lengthAdjust="spacing" textLength="55" x="786" y="491.6083">serializes</text></g><!--link NoteResource to Note--><g id="link_NoteResource_Note"><path codeLine="122" d="M1051,529.06 C1051,552.53 1051,567.66 1051,582.85 " fill="none" id="NoteResource-to-Note" style="stroke:#181818;stroke-width:1.0;stroke-dasharray:7.0,7.0;"/><polygon fill="#181818" points="1051,588.85,1055,579.85,1051,583.85,1047,579.85,1051,588.85" style="stroke:#181818;stroke-width:1.0;"/><text fill="#000000" font-family="sans-serif" font-size="13" lengthAdjust="spacing" textLength="55" x="995" y="554.9883">serializes</text></g><!--link MaterialResource to Material--><g id="link_MaterialResource_Material"><path codeLine="123" d="M1297,432.13 C1297,486.39 1297,547.77 1297,582.99 " fill="none" id="MaterialResource-to-Material" style="stroke:#181818;stroke-width:1.0;stroke-dasharray:7.0,7.0;"/><polygon fill="#181818" points="1297,588.99,1301,579.99,1297,583.99,1293,579.99,1297,588.99" style="stroke:#181818;stroke-width:1.0;"/><text fill="#000000" font-family="sans-serif" font-size="13" lengthAdjust="spacing" textLength="55" x="1241" y="506.5883">serializes</text></g><!--link ServiceMaterialResource to ServiceMaterial--><g id="link_ServiceMaterialResource_ServiceMaterial"><path codeLine="124" d="M1537,452.81 C1537,502.52 1537,551.97 1537,582.85 " fill="none" id="ServiceMaterialResource-to-ServiceMaterial" style="stroke:#181818;stroke-width:1.0;stroke-dasharray:7.0,7.0;"/><polygon fill="#181818" points="1537,588.85,1541,579.85,1537,583.85,1533,579.85,1537,588.85" style="stroke:#181818;stroke-width:1.0;"/><text fill="#000000" font-family="sans-serif" font-size="13" lengthAdjust="spacing" textLength="55" x="1481" y="516.8583">serializes</text></g><!--link ServiceMasterResource to ServiceMaster--><g id="link_ServiceMasterResource_ServiceMaster"><path codeLine="125" d="M1790,443.09 C1790,495.11 1790,549.91 1790,582.83 " fill="none" id="ServiceMasterResource-to-ServiceMaster" style="stroke:#181818;stroke-width:1.0;stroke-dasharray:7.0,7.0;"/><polygon fill="#181818" points="1790,588.83,1794,579.83,1790,583.83,1786,579.83,1790,588.83" style="stroke:#181818;stroke-width:1.0;"/><text fill="#000000" font-family="sans-serif" font-size="13" lengthAdjust="spacing" textLength="55" x="1734" y="511.9883">serializes</text></g><!--SRC=[fLPDRzim3BtxL-Ys3cYoTDWfM0iK0mRqq1rQx6mmDfC8bIL5ebja7_zzbEsabYstMNi9aiSdwZsIak8VfBRWe1A50k-lYPnSrOGtXT7tyXUAHUPZodUZgObSVEw5B1GFiC7du9TUK4cDjBSeZAEjoJ9OUN9GK9jGN5khP04aZRv3RsfNeFYT2J6RyGUKO0dTKbmN91_n3WlZIiPHbzP8JRc62ZrlZqln2QpaK8bhg1NbbWNbdjKinSLYiSZ-PbcxuK-FRhmJLY2LM0hM9lM60Rir6li0D18OMHcZ47JWSBudLdIaYRCd9mbdHglznnuXvuAkfQiQcnFiey1Ry9IIo0bywxWlgv9bgN04SwOnznHF7XIuFKDSNjoW6rfQrqh5YSLPOIhBOrE6-7pEGXKRyFmrv4FtA0lCPIdESDUpUTy6nZv9aefKbkWB9srKkm3N3eQOTPpoMNpQ8ajqg9grVYjj9tGBFgz0xvT7oTmkT1AKVnRzJKdKbEZDg2gfSXCgt8GpSSIEYNyOIfJ24r3jenI6GEK7csjbWE8YzxqNZTeXMZNpDKHvAqSv48Cb-oPPONlGHbYNzOKPw7PuWN4G7FTwD4c9DgrG6RtnEPbbf-Iys-_ya3KnXK5-EtzDpFDTr8rdPxj__Dgkdp2OkneqW_kul5BBYdkK30uRzuvHxCxFj5o7krewBDDA9aRciD4a_hwETRkU7_EzuSQOkXyd7QN6_VKH_Iyp8TbfLZw8oyjBSQEtR9z0im7-dQLUmQz_PhFejPfcnIMPvWtkt6bYVCzDy_hNralouXbzLU0R5aG5wAfyQqfKt1rhGtT3dQF7Vpw_QkehcbRoTlnlmMU3yGga5effm-Shy3ei9WwUZC1hePWMFG21582Xii5HRxMrO59TSiKWDh5mL8Ge4Y_w1m00]--></g></svg>