<?xml version="1.0" encoding="us-ascii" standalone="no"?><svg xmlns="http://www.w3.org/2000/svg" xmlns:xlink="http://www.w3.org/1999/xlink" contentStyleType="text/css" height="730px" preserveAspectRatio="none" style="width:702px;height:730px;background:#FFFFFF;" version="1.1" viewBox="0 0 702 730" width="702px" zoomAndPan="magnify"><defs/><g><!--entity auth--><g id="elem_auth"><path d="M274,6 L321,6 A3.75,3.75 0 0 1 323.5,8.5 L330.5,33.2813 L528,33.2813 A2.5,2.5 0 0 1 530.5,35.7813 L530.5,69.0625 A2.5,2.5 0 0 1 528,71.5625 L274,71.5625 A2.5,2.5 0 0 1 271.5,69.0625 L271.5,8.5 A2.5,2.5 0 0 1 274,6 " fill="#F1F1F1" style="stroke:#181818;stroke-width:0.5;"/><line style="stroke:#181818;stroke-width:0.5;" x1="271.5" x2="330.5" y1="33.2813" y2="33.2813"/><text fill="#000000" font-family="sans-serif" font-size="16" font-weight="bold" lengthAdjust="spacing" textLength="34" x="281.5" y="26.2656">auth</text><text fill="#000000" font-family="sans-serif" font-size="16" lengthAdjust="spacing" textLength="229" x="281.5" y="57.5469">&#1040;&#1091;&#1090;&#1077;&#1085;&#1090;&#1080;&#1092;&#1080;&#1082;&#1072;&#1094;&#1080;&#1103; &#1080; &#1072;&#1074;&#1090;&#1086;&#1088;&#1080;&#1079;&#1072;&#1094;&#1080;&#1103;</text></g><!--entity clients--><g id="elem_clients"><path d="M61.5,165 L124.5,165 A3.75,3.75 0 0 1 127,167.5 L134,192.2813 L252.5,192.2813 A2.5,2.5 0 0 1 255,194.7813 L255,228.0625 A2.5,2.5 0 0 1 252.5,230.5625 L61.5,230.5625 A2.5,2.5 0 0 1 59,228.0625 L59,167.5 A2.5,2.5 0 0 1 61.5,165 " fill="#F1F1F1" style="stroke:#181818;stroke-width:0.5;"/><line style="stroke:#181818;stroke-width:0.5;" x1="59" x2="134" y1="192.2813" y2="192.2813"/><text fill="#000000" font-family="sans-serif" font-size="16" font-weight="bold" lengthAdjust="spacing" textLength="50" x="69" y="185.2656">clients</text><text fill="#000000" font-family="sans-serif" font-size="16" lengthAdjust="spacing" textLength="166" x="69" y="216.5469">&#1059;&#1087;&#1088;&#1072;&#1074;&#1083;&#1077;&#1085;&#1080;&#1077; &#1082;&#1083;&#1080;&#1077;&#1085;&#1090;&#1072;&#1084;&#1080;</text></g><!--entity masters--><g id="elem_masters"><path d="M293,165 L367,165 A3.75,3.75 0 0 1 369.5,167.5 L376.5,192.2813 L509,192.2813 A2.5,2.5 0 0 1 511.5,194.7813 L511.5,228.0625 A2.5,2.5 0 0 1 509,230.5625 L293,230.5625 A2.5,2.5 0 0 1 290.5,228.0625 L290.5,167.5 A2.5,2.5 0 0 1 293,165 " fill="#F1F1F1" style="stroke:#181818;stroke-width:0.5;"/><line style="stroke:#181818;stroke-width:0.5;" x1="290.5" x2="376.5" y1="192.2813" y2="192.2813"/><text fill="#000000" font-family="sans-serif" font-size="16" font-weight="bold" lengthAdjust="spacing" textLength="61" x="300.5" y="185.2656">masters</text><text fill="#000000" font-family="sans-serif" font-size="16" lengthAdjust="spacing" textLength="191" x="300.5" y="216.5469">&#1059;&#1087;&#1088;&#1072;&#1074;&#1083;&#1077;&#1085;&#1080;&#1077; &#1089;&#1086;&#1090;&#1088;&#1091;&#1076;&#1085;&#1080;&#1082;&#1072;&#1084;&#1080;</text></g><!--entity notes--><g id="elem_notes"><path d="M377,324 L433,324 A3.75,3.75 0 0 1 435.5,326.5 L442.5,351.2813 L561,351.2813 A2.5,2.5 0 0 1 563.5,353.7813 L563.5,387.0625 A2.5,2.5 0 0 1 561,389.5625 L377,389.5625 A2.5,2.5 0 0 1 374.5,387.0625 L374.5,326.5 A2.5,2.5 0 0 1 377,324 " fill="#F1F1F1" style="stroke:#181818;stroke-width:0.5;"/><line style="stroke:#181818;stroke-width:0.5;" x1="374.5" x2="442.5" y1="351.2813" y2="351.2813"/><text fill="#000000" font-family="sans-serif" font-size="16" font-weight="bold" lengthAdjust="spacing" textLength="43" x="384.5" y="344.2656">notes</text><text fill="#000000" font-family="sans-serif" font-size="16" lengthAdjust="spacing" textLength="159" x="384.5" y="375.5469">&#1059;&#1087;&#1088;&#1072;&#1074;&#1083;&#1077;&#1085;&#1080;&#1077; &#1079;&#1072;&#1087;&#1080;&#1089;&#1103;&#1084;&#1080;</text></g><!--entity stock--><g id="elem_stock"><path d="M489.5,499 L544.5,499 A3.75,3.75 0 0 1 547,501.5 L554,526.2813 L626.5,526.2813 A2.5,2.5 0 0 1 629,528.7813 L629,562.0625 A2.5,2.5 0 0 1 626.5,564.5625 L489.5,564.5625 A2.5,2.5 0 0 1 487,562.0625 L487,501.5 A2.5,2.5 0 0 1 489.5,499 " fill="#F1F1F1" style="stroke:#181818;stroke-width:0.5;"/><line style="stroke:#181818;stroke-width:0.5;" x1="487" x2="554" y1="526.2813" y2="526.2813"/><text fill="#000000" font-family="sans-serif" font-size="16" font-weight="bold" lengthAdjust="spacing" textLength="42" x="497" y="519.2656">stock</text><text fill="#000000" font-family="sans-serif" font-size="16" lengthAdjust="spacing" textLength="112" x="497" y="550.5469">&#1057;&#1082;&#1083;&#1072;&#1076;&#1089;&#1082;&#1086;&#1081; &#1091;&#1095;&#1105;&#1090;</text></g><!--entity analytics--><g id="elem_analytics"><path d="M187.5,658 L268.5,658 A3.75,3.75 0 0 1 271,660.5 L278,685.2813 L428.5,685.2813 A2.5,2.5 0 0 1 431,687.7813 L431,721.0625 A2.5,2.5 0 0 1 428.5,723.5625 L187.5,723.5625 A2.5,2.5 0 0 1 185,721.0625 L185,660.5 A2.5,2.5 0 0 1 187.5,658 " fill="#F1F1F1" style="stroke:#181818;stroke-width:0.5;"/><line style="stroke:#181818;stroke-width:0.5;" x1="185" x2="278" y1="685.2813" y2="685.2813"/><text fill="#000000" font-family="sans-serif" font-size="16" font-weight="bold" lengthAdjust="spacing" textLength="68" x="195" y="678.2656">analytics</text><text fill="#000000" font-family="sans-serif" font-size="16" lengthAdjust="spacing" textLength="216" x="195" y="709.5469">&#1040;&#1085;&#1072;&#1083;&#1080;&#1090;&#1080;&#1082;&#1072; &#1080; &#1087;&#1088;&#1086;&#1075;&#1085;&#1086;&#1079;&#1080;&#1088;&#1086;&#1074;&#1072;&#1085;&#1080;&#1077;</text></g><!--link auth to clients--><g id="link_auth_clients"><path d="M351.03,72.15 C308.93,99.24 254.0359,134.5636 211.9459,161.6436 " fill="none" id="auth-to-clients" style="stroke:#181818;stroke-width:1.0;stroke-dasharray:7.0,7.0;"/><polygon fill="#181818" points="206.9,164.89,216.6331,163.3843,211.1049,162.1846,212.3045,156.6565,206.9,164.89" style="stroke:#181818;stroke-width:1.0;"/><text fill="#000000" font-family="sans-serif" font-size="12" lengthAdjust="spacing" textLength="53" x="302" y="115.9492">&#1082;&#1086;&#1085;&#1090;&#1088;&#1086;&#1083;&#1100;</text><text fill="#000000" font-family="sans-serif" font-size="12" lengthAdjust="spacing" textLength="44" x="306.5" y="131.9102">&#1076;&#1086;&#1089;&#1090;&#1091;&#1087;&#1072;</text></g><!--link auth to masters--><g id="link_auth_masters"><path d="M401,72.15 C401,99.24 401,131.81 401,158.89 " fill="none" id="auth-to-masters" style="stroke:#181818;stroke-width:1.0;stroke-dasharray:7.0,7.0;"/><polygon fill="#181818" points="401,164.89,405,155.89,401,159.89,397,155.89,401,164.89" style="stroke:#181818;stroke-width:1.0;"/><text fill="#000000" font-family="sans-serif" font-size="12" lengthAdjust="spacing" textLength="53" x="402" y="115.9492">&#1082;&#1086;&#1085;&#1090;&#1088;&#1086;&#1083;&#1100;</text><text fill="#000000" font-family="sans-serif" font-size="12" lengthAdjust="spacing" textLength="44" x="406.5" y="131.9102">&#1076;&#1086;&#1089;&#1090;&#1091;&#1087;&#1072;</text></g><!--link auth to notes--><g id="link_auth_notes"><path d="M449.82,72.22 C478.79,94.43 512.9,126.78 529,165 C551.87,219.29 521.4547,280.4121 496.0547,318.9021 " fill="none" id="auth-to-notes" style="stroke:#181818;stroke-width:1.0;stroke-dasharray:7.0,7.0;"/><polygon fill="#181818" points="492.75,323.91,501.0457,318.6014,495.504,319.7368,494.3685,314.195,492.75,323.91" style="stroke:#181818;stroke-width:1.0;"/><text fill="#000000" font-family="sans-serif" font-size="12" lengthAdjust="spacing" textLength="53" x="538" y="195.4492">&#1082;&#1086;&#1085;&#1090;&#1088;&#1086;&#1083;&#1100;</text><text fill="#000000" font-family="sans-serif" font-size="12" lengthAdjust="spacing" textLength="44" x="542.5" y="211.4102">&#1076;&#1086;&#1089;&#1090;&#1091;&#1087;&#1072;</text></g><!--link auth to stock--><g id="link_auth_stock"><path d="M494.37,72.03 C535.61,91.7 579.37,121.62 600,165 C658.03,287.03 646.4,340.7 604,469 C600.51,479.56 597.9956,484.9497 591.3956,493.9597 " fill="none" id="auth-to-stock" style="stroke:#181818;stroke-width:1.0;stroke-dasharray:7.0,7.0;"/><polygon fill="#181818" points="587.85,498.8,596.3953,493.9033,590.8047,494.7664,589.9416,489.1758,587.85,498.8" style="stroke:#181818;stroke-width:1.0;"/><text fill="#000000" font-family="sans-serif" font-size="12" lengthAdjust="spacing" textLength="53" x="641" y="274.9492">&#1082;&#1086;&#1085;&#1090;&#1088;&#1086;&#1083;&#1100;</text><text fill="#000000" font-family="sans-serif" font-size="12" lengthAdjust="spacing" textLength="44" x="645.5" y="290.9102">&#1076;&#1086;&#1089;&#1090;&#1091;&#1087;&#1072;</text></g><!--link auth to analytics--><g id="link_auth_analytics"><path d="M271.39,65.84 C156.23,92.63 6,138.75 6,197 C6,197 6,197 6,533 C6,617.95 95.3534,655.7418 178.8634,673.6518 " fill="none" id="auth-to-analytics" style="stroke:#181818;stroke-width:1.0;stroke-dasharray:7.0,7.0;"/><polygon fill="#181818" points="184.73,674.91,176.7689,669.1117,179.8412,673.8615,175.0913,676.9338,184.73,674.91" style="stroke:#181818;stroke-width:1.0;"/><text fill="#000000" font-family="sans-serif" font-size="12" lengthAdjust="spacing" textLength="53" x="7" y="354.4492">&#1082;&#1086;&#1085;&#1090;&#1088;&#1086;&#1083;&#1100;</text><text fill="#000000" font-family="sans-serif" font-size="12" lengthAdjust="spacing" textLength="44" x="11.5" y="370.4102">&#1076;&#1086;&#1089;&#1090;&#1091;&#1087;&#1072;</text></g><!--link clients to notes--><g id="link_clients_notes"><path d="M202.9,231.16 C232.15,250.81 271.31,275.61 308,294 C329.69,304.87 348.1777,312.8959 370.9677,321.7559 " fill="none" id="clients-to-notes" style="stroke:#181818;stroke-width:1.0;"/><polygon fill="#181818" points="376.56,323.93,369.621,316.9407,371.8998,322.1183,366.7222,324.397,376.56,323.93" style="stroke:#181818;stroke-width:1.0;"/><text fill="#000000" font-family="sans-serif" font-size="12" lengthAdjust="spacing" textLength="39" x="309.5" y="274.9492">&#1082;&#1083;&#1080;&#1077;&#1085;&#1090;</text><text fill="#000000" font-family="sans-serif" font-size="12" lengthAdjust="spacing" textLength="40" x="309" y="290.9102">&#1079;&#1072;&#1087;&#1080;&#1089;&#1080;</text></g><!--link masters to notes--><g id="link_masters_notes"><path d="M424.21,231.14 C430.25,240.46 436.36,250.87 441,261 C450.24,281.16 455.8226,299.3097 460.5326,318.1197 " fill="none" id="masters-to-notes" style="stroke:#181818;stroke-width:1.0;"/><polygon fill="#181818" points="461.99,323.94,463.6841,314.2379,460.7755,319.0897,455.9237,316.1811,461.99,323.94" style="stroke:#181818;stroke-width:1.0;"/><text fill="#000000" font-family="sans-serif" font-size="12" lengthAdjust="spacing" textLength="41" x="454" y="274.9492">&#1084;&#1072;&#1089;&#1090;&#1077;&#1088;</text><text fill="#000000" font-family="sans-serif" font-size="12" lengthAdjust="spacing" textLength="40" x="454.5" y="290.9102">&#1079;&#1072;&#1087;&#1080;&#1089;&#1080;</text></g><!--link masters to notes--><g id="link_masters_notes"><path d="M373.8,231.27 C361.34,250.16 351.6,274.12 363,294 C369.84,305.93 375.0858,312.295 386.3958,320.365 " fill="none" id="masters-to-notes-1" style="stroke:#181818;stroke-width:1.0;"/><polygon fill="#181818" points="391.28,323.85,386.2771,315.3664,387.2099,320.9459,381.6305,321.8786,391.28,323.85" style="stroke:#181818;stroke-width:1.0;"/><text fill="#000000" font-family="sans-serif" font-size="12" lengthAdjust="spacing" textLength="68" x="364" y="274.9492">&#1088;&#1072;&#1089;&#1087;&#1080;&#1089;&#1072;&#1085;&#1080;&#1077;</text><text fill="#000000" font-family="sans-serif" font-size="12" lengthAdjust="spacing" textLength="44" x="376" y="290.9102">&#1080; &#1089;&#1083;&#1086;&#1090;&#1099;</text></g><!--link notes to stock--><g id="link_notes_stock"><path d="M485.53,390.13 C501.47,421.11 522.7043,462.3951 538.6643,493.4051 " fill="none" id="notes-to-stock" style="stroke:#181818;stroke-width:1.0;"/><polygon fill="#181818" points="541.41,498.74,540.848,488.9072,539.1219,494.2943,533.7348,492.5682,541.41,498.74" style="stroke:#181818;stroke-width:1.0;"/><text fill="#000000" font-family="sans-serif" font-size="12" lengthAdjust="spacing" textLength="60" x="530.5" y="433.9492">&#1089;&#1087;&#1080;&#1089;&#1072;&#1085;&#1080;&#1077; /</text><text fill="#000000" font-family="sans-serif" font-size="12" lengthAdjust="spacing" textLength="44" x="538.5" y="449.9102">&#1074;&#1086;&#1079;&#1074;&#1088;&#1072;&#1090;</text><text fill="#000000" font-family="sans-serif" font-size="12" lengthAdjust="spacing" textLength="69" x="526" y="465.8711">&#1084;&#1072;&#1090;&#1077;&#1088;&#1080;&#1072;&#1083;&#1086;&#1074;</text></g><!--link clients to analytics--><g id="link_clients_analytics"><path d="M166.91,231.22 C194.3,320.29 269.077,563.4149 296.387,652.2549 " fill="none" id="clients-to-analytics" style="stroke:#181818;stroke-width:1.0;stroke-dasharray:7.0,7.0;"/><polygon fill="#181818" points="298.15,657.99,299.3289,648.212,296.6808,653.2107,291.682,650.5626,298.15,657.99" style="stroke:#181818;stroke-width:1.0;"/><text fill="#000000" font-family="sans-serif" font-size="12" lengthAdjust="spacing" textLength="44" x="245" y="441.9492">&#1076;&#1072;&#1085;&#1085;&#1099;&#1077;</text><text fill="#000000" font-family="sans-serif" font-size="12" lengthAdjust="spacing" textLength="52" x="241" y="457.9102">&#1082;&#1083;&#1080;&#1077;&#1085;&#1090;&#1086;&#1074;</text></g><!--link masters to analytics--><g id="link_masters_analytics"><path d="M368.68,231.03 C361.35,240.04 354.43,250.31 350,261 C292.54,399.61 298.8613,578.2676 304.5013,651.8176 " fill="none" id="masters-to-analytics" style="stroke:#181818;stroke-width:1.0;stroke-dasharray:7.0,7.0;"/><polygon fill="#181818" points="304.96,657.8,308.2602,648.5205,304.5777,652.8146,300.2836,649.1322,304.96,657.8" style="stroke:#181818;stroke-width:1.0;"/><text fill="#000000" font-family="sans-serif" font-size="12" lengthAdjust="spacing" textLength="44" x="324" y="441.9492">&#1076;&#1072;&#1085;&#1085;&#1099;&#1077;</text><text fill="#000000" font-family="sans-serif" font-size="12" lengthAdjust="spacing" textLength="70" x="311" y="457.9102">&#1089;&#1086;&#1090;&#1088;&#1091;&#1076;&#1085;&#1080;&#1082;&#1086;&#1074;</text></g><!--link notes to analytics--><g id="link_notes_analytics"><path d="M453.42,390.14 C422.64,453.6 356.9985,588.9715 326.2085,652.4515 " fill="none" id="notes-to-analytics" style="stroke:#181818;stroke-width:1.0;stroke-dasharray:7.0,7.0;"/><polygon fill="#181818" points="323.59,657.85,331.1167,651.4979,325.772,653.3513,323.9187,648.0066,323.59,657.85" style="stroke:#181818;stroke-width:1.0;"/><text fill="#000000" font-family="sans-serif" font-size="12" lengthAdjust="spacing" textLength="44" x="402.5" y="529.4492">&#1076;&#1072;&#1085;&#1085;&#1099;&#1077;</text><text fill="#000000" font-family="sans-serif" font-size="12" lengthAdjust="spacing" textLength="47" x="401" y="545.4102">&#1079;&#1072;&#1087;&#1080;&#1089;&#1077;&#1081;</text></g><!--link stock to analytics--><g id="link_stock_analytics"><path d="M517.93,565.12 C493.04,584.4 459.98,608.83 429,628 C412.04,638.5 398.428,646.0804 380.658,655.2004 " fill="none" id="stock-to-analytics" style="stroke:#181818;stroke-width:1.0;stroke-dasharray:7.0,7.0;"/><polygon fill="#181818" points="375.32,657.94,385.1534,657.3893,379.7684,655.657,381.5006,650.2719,375.32,657.94" style="stroke:#181818;stroke-width:1.0;"/><text fill="#000000" font-family="sans-serif" font-size="12" lengthAdjust="spacing" textLength="44" x="493.5" y="608.9492">&#1076;&#1072;&#1085;&#1085;&#1099;&#1077;</text><text fill="#000000" font-family="sans-serif" font-size="12" lengthAdjust="spacing" textLength="75" x="478" y="624.9102">&#1087;&#1086;&#1090;&#1088;&#1077;&#1073;&#1083;&#1077;&#1085;&#1080;&#1103;</text></g><!--SRC=[bLDBJkD04DttALhi0ng4MB10OiC5c2MRbcc25QSTsOtuh9A0O05IPew0k809YSOanBb2zOscgXn_0eYGZUFurNlrNdLrtF9DHqMgBRsmtGcDDlOmDFR8lzRoruw8IxYZl9PgwWhShO4gYiAB2jgkGIVwL9q7zhU-j0U1tpHjx20zVEZei_gHlGgqZBHdbMa6MeZ5Txa1VzoDwyCOPlXCtIsaC874tU7xG48g8O4X8fdh8lAlG3QaYgKwjsSreMUOOn6MmvJai7miKMjABwoUm3kapFG27ut6AyYkXstxhkjkOCIV9ZM9jeenwIe9SWnpTDnpWv9gGglhn2TscS086quWWpU98xbtVrsVosCRUgtwm50xeLWqCFB4OwBU6RmYbc7JbFyDiOvzvECoAhYolXSBGPEJcvlxnI3adkJECugBlrFtU6mmT8Q- -nX_3ad5MIHVYyEHrs9mwhKOPRwVi4IHlD5OSbTk2pBAiuDK5A6Nojzn7NkqlAxxWt9Q3WJpaiN182sbFPlofZs8l9POHVwF3Bc5d24Vyf0LoIaPOHjOGQk1Hryb_3IR4MlDt0FthzyGuXNMlwTzSJU8dFjVqR4Qr1ZUH1vq1MMUTqF2It6xt43y1m00]--></g></svg>