<?xml version="1.0" encoding="us-ascii" standalone="no"?><svg xmlns="http://www.w3.org/2000/svg" xmlns:xlink="http://www.w3.org/1999/xlink" contentStyleType="text/css" height="906px" preserveAspectRatio="none" style="width:3052px;height:906px;background:#FFFFFF;" version="1.1" viewBox="0 0 3052 906" width="3052px" zoomAndPan="magnify"><defs/><g><!--cluster Services--><g id="cluster_Services"><path d="M8.5,6.0137 L71.5,6.0137 A3.75,3.75 0 0 1 74,8.5137 L81,30.6348 L1913.5,30.6348 A2.5,2.5 0 0 1 1916,33.1348 L1916,896.5137 A2.5,2.5 0 0 1 1913.5,899.0137 L8.5,899.0137 A2.5,2.5 0 0 1 6,896.5137 L6,8.5137 A2.5,2.5 0 0 1 8.5,6.0137 " fill="none" style="stroke:#000000;stroke-width:1.5;"/><line style="stroke:#000000;stroke-width:1.5;" x1="6" x2="81" y1="30.6348" y2="30.6348"/><text fill="#000000" font-family="sans-serif" font-size="14" font-weight="bold" lengthAdjust="spacing" textLength="62" x="10" y="23.1211">Services</text></g><!--cluster ML Services--><g id="cluster_ML Services"><path d="M1942.5,296.0137 L2030.5,296.0137 A3.75,3.75 0 0 1 2033,298.5137 L2040,320.6348 L3042.5,320.6348 A2.5,2.5 0 0 1 3045,323.1348 L3045,572.5137 A2.5,2.5 0 0 1 3042.5,575.0137 L1942.5,575.0137 A2.5,2.5 0 0 1 1940,572.5137 L1940,298.5137 A2.5,2.5 0 0 1 1942.5,296.0137 " fill="none" style="stroke:#000000;stroke-width:1.5;"/><line style="stroke:#000000;stroke-width:1.5;" x1="1940" x2="2040" y1="320.6348" y2="320.6348"/><text fill="#000000" font-family="sans-serif" font-size="14" font-weight="bold" lengthAdjust="spacing" textLength="87" x="1944" y="313.1211">ML Services</text></g><!--cluster Jobs--><g id="cluster_Jobs"><path d="M2388.5,45.5137 L2423.5,45.5137 A3.75,3.75 0 0 1 2426,48.0137 L2433,70.1348 L2873.5,70.1348 A2.5,2.5 0 0 1 2876,72.6348 L2876,247.0137 A2.5,2.5 0 0 1 2873.5,249.5137 L2388.5,249.5137 A2.5,2.5 0 0 1 2386,247.0137 L2386,48.0137 A2.5,2.5 0 0 1 2388.5,45.5137 " fill="none" style="stroke:#000000;stroke-width:1.5;"/><line style="stroke:#000000;stroke-width:1.5;" x1="2386" x2="2433" y1="70.1348" y2="70.1348"/><text fill="#000000" font-family="sans-serif" font-size="14" font-weight="bold" lengthAdjust="spacing" textLength="34" x="2390" y="62.6211">Jobs</text></g><!--class JwtService--><g id="elem_JwtService"><rect codeLine="9" fill="#F1F1F1" height="169.6484" id="JwtService" rx="2.5" ry="2.5" style="stroke:#181818;stroke-width:0.5;" width="242" x="1152" y="361.0137"/><ellipse cx="1239.75" cy="381.9746" fill="#ADD1B2" rx="11" ry="11" style="stroke:#181818;stroke-width:1.0;"/><path d="M1242.5156,377.8496 Q1242.6719,377.6309 1242.8594,377.5215 Q1243.0469,377.4121 1243.2656,377.4121 Q1243.6406,377.4121 1243.875,377.6777 Q1244.1094,377.9277 1244.1094,378.5371 L1244.1094,379.9902 Q1244.1094,380.5996 1243.875,380.8652 Q1243.6406,381.1309 1243.2656,381.1309 Q1242.9219,381.1309 1242.7188,380.9277 Q1242.5156,380.7402 1242.4063,380.2246 Q1242.3594,379.8652 1242.1719,379.6777 Q1241.8438,379.3027 1241.2344,379.084 Q1240.625,378.8652 1240,378.8652 Q1239.2344,378.8652 1238.5938,379.1934 Q1237.9688,379.5215 1237.4688,380.2715 Q1236.9844,381.0215 1236.9844,382.0527 L1236.9844,383.1465 Q1236.9844,384.3809 1237.875,385.209 Q1238.7656,386.0215 1240.3594,386.0215 Q1241.2969,386.0215 1241.9531,385.7715 Q1242.3438,385.6152 1242.7656,385.1777 Q1243.0313,384.9121 1243.1719,384.834 Q1243.3281,384.7559 1243.5313,384.7559 Q1243.8594,384.7559 1244.1094,385.0215 Q1244.375,385.2715 1244.375,385.6152 Q1244.375,385.959 1244.0313,386.3652 Q1243.5313,386.9434 1242.7344,387.2715 Q1241.6563,387.7246 1240.3594,387.7246 Q1238.8438,387.7246 1237.6406,387.0996 Q1236.6563,386.5996 1235.9688,385.5371 Q1235.2813,384.459 1235.2813,383.1777 L1235.2813,382.0215 Q1235.2813,380.6934 1235.8906,379.5527 Q1236.5156,378.3965 1237.6094,377.7871 Q1238.7031,377.1621 1239.9375,377.1621 Q1240.6719,377.1621 1241.3125,377.334 Q1241.9688,377.4902 1242.5156,377.8496 Z " fill="#000000"/><text fill="#000000" font-family="sans-serif" font-size="12" font-style="italic" lengthAdjust="spacing" textLength="55" x="1261.75" y="378.9629">&#171;Service&#187;</text><text fill="#000000" font-family="sans-serif" font-size="12" lengthAdjust="spacing" textLength="58" x="1260.25" y="394.9238">JwtService</text><line style="stroke:#181818;stroke-width:0.5;" x1="1153" x2="1393" y1="402.9355" y2="402.9355"/><text fill="#000000" font-family="sans-serif" font-size="14" lengthAdjust="spacing" text-decoration="underline" textLength="145" x="1158" y="422.043">-SECRET_KEY : String</text><text fill="#000000" font-family="sans-serif" font-size="14" lengthAdjust="spacing" text-decoration="underline" textLength="203" x="1158" y="440.6641">-ALGORITHM : String = "HS256"</text><text fill="#000000" font-family="sans-serif" font-size="14" lengthAdjust="spacing" text-decoration="underline" textLength="230" x="1158" y="459.2852">-DEFAULT_EXPIRY : Duration = 12h</text><line style="stroke:#181818;stroke-width:1.0;" x1="1153" x2="1393" y1="466.7988" y2="466.7988"/><text fill="#000000" font-family="sans-serif" font-size="14" lengthAdjust="spacing" text-decoration="underline" textLength="152" x="1158" y="485.9063">+encode(**data) : String</text><text fill="#000000" font-family="sans-serif" font-size="14" lengthAdjust="spacing" text-decoration="underline" textLength="144" x="1158" y="504.5273">+decode(token) : Hash</text><text fill="#000000" font-family="sans-serif" font-size="14" lengthAdjust="spacing" text-decoration="underline" textLength="193" x="1158" y="523.1484">+decode_silent(token) : Hash?</text></g><!--class SignInService--><g id="elem_SignInService"><rect codeLine="19" fill="#F1F1F1" height="173.6484" id="SignInService" rx="2.5" ry="2.5" style="stroke:#181818;stroke-width:0.5;" width="188" x="1179" y="71.0137"/><ellipse cx="1231.25" cy="91.9746" fill="#ADD1B2" rx="11" ry="11" style="stroke:#181818;stroke-width:1.0;"/><path d="M1234.0156,87.8496 Q1234.1719,87.6309 1234.3594,87.5215 Q1234.5469,87.4121 1234.7656,87.4121 Q1235.1406,87.4121 1235.375,87.6777 Q1235.6094,87.9277 1235.6094,88.5371 L1235.6094,89.9902 Q1235.6094,90.5996 1235.375,90.8652 Q1235.1406,91.1309 1234.7656,91.1309 Q1234.4219,91.1309 1234.2188,90.9277 Q1234.0156,90.7402 1233.9063,90.2246 Q1233.8594,89.8652 1233.6719,89.6777 Q1233.3438,89.3027 1232.7344,89.084 Q1232.125,88.8652 1231.5,88.8652 Q1230.7344,88.8652 1230.0938,89.1934 Q1229.4688,89.5215 1228.9688,90.2715 Q1228.4844,91.0215 1228.4844,92.0527 L1228.4844,93.1465 Q1228.4844,94.3809 1229.375,95.209 Q1230.2656,96.0215 1231.8594,96.0215 Q1232.7969,96.0215 1233.4531,95.7715 Q1233.8438,95.6152 1234.2656,95.1777 Q1234.5313,94.9121 1234.6719,94.834 Q1234.8281,94.7559 1235.0313,94.7559 Q1235.3594,94.7559 1235.6094,95.0215 Q1235.875,95.2715 1235.875,95.6152 Q1235.875,95.959 1235.5313,96.3652 Q1235.0313,96.9434 1234.2344,97.2715 Q1233.1563,97.7246 1231.8594,97.7246 Q1230.3438,97.7246 1229.1406,97.0996 Q1228.1563,96.5996 1227.4688,95.5371 Q1226.7813,94.459 1226.7813,93.1777 L1226.7813,92.0215 Q1226.7813,90.6934 1227.3906,89.5527 Q1228.0156,88.3965 1229.1094,87.7871 Q1230.2031,87.1621 1231.4375,87.1621 Q1232.1719,87.1621 1232.8125,87.334 Q1233.4688,87.4902 1234.0156,87.8496 Z " fill="#000000"/><text fill="#000000" font-family="sans-serif" font-size="12" font-style="italic" lengthAdjust="spacing" textLength="55" x="1261.75" y="88.9629">&#171;Service&#187;</text><text fill="#000000" font-family="sans-serif" font-size="12" lengthAdjust="spacing" textLength="75" x="1251.75" y="104.9238">SignInService</text><line style="stroke:#181818;stroke-width:0.5;" x1="1180" x2="1366" y1="112.9355" y2="112.9355"/><text fill="#000000" font-family="sans-serif" font-size="14" lengthAdjust="spacing" textLength="87" x="1185" y="132.043">-email : String</text><text fill="#000000" font-family="sans-serif" font-size="14" lengthAdjust="spacing" textLength="114" x="1185" y="150.6641">-password : String</text><line style="stroke:#181818;stroke-width:1.0;" x1="1180" x2="1366" y1="158.1777" y2="158.1777"/><text fill="#000000" font-family="sans-serif" font-size="14" lengthAdjust="spacing" textLength="176" x="1185" y="177.2852">+initialize(email:, password:)</text><text fill="#000000" font-family="sans-serif" font-size="14" lengthAdjust="spacing" textLength="130" x="1185" y="195.9063">+call() : String (JWT)</text><text fill="#000000" font-family="sans-serif" font-size="14" lengthAdjust="spacing" textLength="112" x="1185" y="237.1484">InvalidCredentials</text><line style="stroke:#181818;stroke-width:1.0;stroke-dasharray:1.0,2.0;" x1="1180" x2="1239.5" y1="212.7305" y2="212.7305"/><text fill="#000000" font-family="sans-serif" font-size="14" lengthAdjust="spacing" textLength="67" x="1239.5" y="218.0273">exceptions</text><line style="stroke:#181818;stroke-width:1.0;stroke-dasharray:1.0,2.0;" x1="1306.5" x2="1366" y1="212.7305" y2="212.7305"/></g><!--class CreateNoteService--><g id="elem_CreateNoteService"><rect codeLine="29" fill="#F1F1F1" height="229.5117" id="CreateNoteService" rx="2.5" ry="2.5" style="stroke:#181818;stroke-width:0.5;" width="266" x="628" y="43.0137"/><ellipse cx="705.25" cy="63.9746" fill="#ADD1B2" rx="11" ry="11" style="stroke:#181818;stroke-width:1.0;"/><path d="M708.0156,59.8496 Q708.1719,59.6309 708.3594,59.5215 Q708.5469,59.4121 708.7656,59.4121 Q709.1406,59.4121 709.375,59.6777 Q709.6094,59.9277 709.6094,60.5371 L709.6094,61.9902 Q709.6094,62.5996 709.375,62.8652 Q709.1406,63.1309 708.7656,63.1309 Q708.4219,63.1309 708.2188,62.9277 Q708.0156,62.7402 707.9063,62.2246 Q707.8594,61.8652 707.6719,61.6777 Q707.3438,61.3027 706.7344,61.084 Q706.125,60.8652 705.5,60.8652 Q704.7344,60.8652 704.0938,61.1934 Q703.4688,61.5215 702.9688,62.2715 Q702.4844,63.0215 702.4844,64.0527 L702.4844,65.1465 Q702.4844,66.3809 703.375,67.209 Q704.2656,68.0215 705.8594,68.0215 Q706.7969,68.0215 707.4531,67.7715 Q707.8438,67.6152 708.2656,67.1777 Q708.5313,66.9121 708.6719,66.834 Q708.8281,66.7559 709.0313,66.7559 Q709.3594,66.7559 709.6094,67.0215 Q709.875,67.2715 709.875,67.6152 Q709.875,67.959 709.5313,68.3652 Q709.0313,68.9434 708.2344,69.2715 Q707.1563,69.7246 705.8594,69.7246 Q704.3438,69.7246 703.1406,69.0996 Q702.1563,68.5996 701.4688,67.5371 Q700.7813,66.459 700.7813,65.1777 L700.7813,64.0215 Q700.7813,62.6934 701.3906,61.5527 Q702.0156,60.3965 703.1094,59.7871 Q704.2031,59.1621 705.4375,59.1621 Q706.1719,59.1621 706.8125,59.334 Q707.4688,59.4902 708.0156,59.8496 Z " fill="#000000"/><text fill="#000000" font-family="sans-serif" font-size="12" font-style="italic" lengthAdjust="spacing" textLength="55" x="749.75" y="60.9629">&#171;Service&#187;</text><text fill="#000000" font-family="sans-serif" font-size="12" lengthAdjust="spacing" textLength="103" x="725.75" y="76.9238">CreateNoteService</text><line style="stroke:#181818;stroke-width:0.5;" x1="629" x2="893" y1="84.9355" y2="84.9355"/><text fill="#000000" font-family="sans-serif" font-size="14" lengthAdjust="spacing" textLength="137" x="634" y="104.043">-client_params : Hash</text><text fill="#000000" font-family="sans-serif" font-size="14" lengthAdjust="spacing" textLength="132" x="634" y="122.6641">-note_params : Hash</text><line style="stroke:#181818;stroke-width:1.0;" x1="629" x2="893" y1="130.1777" y2="130.1777"/><text fill="#000000" font-family="sans-serif" font-size="14" lengthAdjust="spacing" textLength="254" x="634" y="149.2852">+initialize(client_params:, note_params:)</text><text fill="#000000" font-family="sans-serif" font-size="14" lengthAdjust="spacing" textLength="80" x="634" y="167.9063">+call() : Note</text><text fill="#000000" font-family="sans-serif" font-size="14" lengthAdjust="spacing" textLength="196" x="634" y="186.5273">-find_or_create_client() : Client</text><text fill="#000000" font-family="sans-serif" font-size="14" lengthAdjust="spacing" textLength="170" x="634" y="205.1484">-validate_reliability!() : void</text><text fill="#000000" font-family="sans-serif" font-size="14" lengthAdjust="spacing" textLength="208" x="634" y="223.7695">-build_resource_params() : Hash</text><text fill="#000000" font-family="sans-serif" font-size="14" lengthAdjust="spacing" textLength="86" x="634" y="265.0117">ClientBlocked</text><line style="stroke:#181818;stroke-width:1.0;stroke-dasharray:1.0,2.0;" x1="629" x2="727.5" y1="240.5938" y2="240.5938"/><text fill="#000000" font-family="sans-serif" font-size="14" lengthAdjust="spacing" textLength="67" x="727.5" y="245.8906">exceptions</text><line style="stroke:#181818;stroke-width:1.0;stroke-dasharray:1.0,2.0;" x1="794.5" x2="893" y1="240.5938" y2="240.5938"/></g><!--class CompleteNoteService--><g id="elem_CompleteNoteService"><rect codeLine="42" fill="#F1F1F1" height="155.0273" id="CompleteNoteService" rx="2.5" ry="2.5" style="stroke:#181818;stroke-width:0.5;" width="152" x="1467" y="80.5137"/><ellipse cx="1482" cy="101.4746" fill="#ADD1B2" rx="11" ry="11" style="stroke:#181818;stroke-width:1.0;"/><path d="M1484.7656,97.3496 Q1484.9219,97.1309 1485.1094,97.0215 Q1485.2969,96.9121 1485.5156,96.9121 Q1485.8906,96.9121 1486.125,97.1777 Q1486.3594,97.4277 1486.3594,98.0371 L1486.3594,99.4902 Q1486.3594,100.0996 1486.125,100.3652 Q1485.8906,100.6309 1485.5156,100.6309 Q1485.1719,100.6309 1484.9688,100.4277 Q1484.7656,100.2402 1484.6563,99.7246 Q1484.6094,99.3652 1484.4219,99.1777 Q1484.0938,98.8027 1483.4844,98.584 Q1482.875,98.3652 1482.25,98.3652 Q1481.4844,98.3652 1480.8438,98.6934 Q1480.2188,99.0215 1479.7188,99.7715 Q1479.2344,100.5215 1479.2344,101.5527 L1479.2344,102.6465 Q1479.2344,103.8809 1480.125,104.709 Q1481.0156,105.5215 1482.6094,105.5215 Q1483.5469,105.5215 1484.2031,105.2715 Q1484.5938,105.1152 1485.0156,104.6777 Q1485.2813,104.4121 1485.4219,104.334 Q1485.5781,104.2559 1485.7813,104.2559 Q1486.1094,104.2559 1486.3594,104.5215 Q1486.625,104.7715 1486.625,105.1152 Q1486.625,105.459 1486.2813,105.8652 Q1485.7813,106.4434 1484.9844,106.7715 Q1483.9063,107.2246 1482.6094,107.2246 Q1481.0938,107.2246 1479.8906,106.5996 Q1478.9063,106.0996 1478.2188,105.0371 Q1477.5313,103.959 1477.5313,102.6777 L1477.5313,101.5215 Q1477.5313,100.1934 1478.1406,99.0527 Q1478.7656,97.8965 1479.8594,97.2871 Q1480.9531,96.6621 1482.1875,96.6621 Q1482.9219,96.6621 1483.5625,96.834 Q1484.2188,96.9902 1484.7656,97.3496 Z " fill="#000000"/><text fill="#000000" font-family="sans-serif" font-size="12" font-style="italic" lengthAdjust="spacing" textLength="55" x="1528.5" y="98.4629">&#171;Service&#187;</text><text fill="#000000" font-family="sans-serif" font-size="12" lengthAdjust="spacing" textLength="120" x="1496" y="114.4238">CompleteNoteService</text><line style="stroke:#181818;stroke-width:0.5;" x1="1468" x2="1618" y1="122.4355" y2="122.4355"/><text fill="#000000" font-family="sans-serif" font-size="14" lengthAdjust="spacing" textLength="74" x="1473" y="141.543">-note : Note</text><line style="stroke:#181818;stroke-width:1.0;" x1="1468" x2="1618" y1="149.0566" y2="149.0566"/><text fill="#000000" font-family="sans-serif" font-size="14" lengthAdjust="spacing" textLength="95" x="1473" y="168.1641">+initialize(note)</text><text fill="#000000" font-family="sans-serif" font-size="14" lengthAdjust="spacing" textLength="77" x="1473" y="186.7852">+call() : void</text><text fill="#000000" font-family="sans-serif" font-size="14" lengthAdjust="spacing" textLength="80" x="1473" y="228.0273">InvalidStatus</text><line style="stroke:#181818;stroke-width:1.0;stroke-dasharray:1.0,2.0;" x1="1468" x2="1509.5" y1="203.6094" y2="203.6094"/><text fill="#000000" font-family="sans-serif" font-size="14" lengthAdjust="spacing" textLength="67" x="1509.5" y="208.9063">exceptions</text><line style="stroke:#181818;stroke-width:1.0;stroke-dasharray:1.0,2.0;" x1="1576.5" x2="1618" y1="203.6094" y2="203.6094"/></g><!--class CancelNoteService--><g id="elem_CancelNoteService"><rect codeLine="51" fill="#F1F1F1" height="155.0273" id="CancelNoteService" rx="2.5" ry="2.5" style="stroke:#181818;stroke-width:0.5;" width="137" x="65.5" y="80.5137"/><ellipse cx="80.5" cy="101.4746" fill="#ADD1B2" rx="11" ry="11" style="stroke:#181818;stroke-width:1.0;"/><path d="M83.2656,97.3496 Q83.4219,97.1309 83.6094,97.0215 Q83.7969,96.9121 84.0156,96.9121 Q84.3906,96.9121 84.625,97.1777 Q84.8594,97.4277 84.8594,98.0371 L84.8594,99.4902 Q84.8594,100.0996 84.625,100.3652 Q84.3906,100.6309 84.0156,100.6309 Q83.6719,100.6309 83.4688,100.4277 Q83.2656,100.2402 83.1563,99.7246 Q83.1094,99.3652 82.9219,99.1777 Q82.5938,98.8027 81.9844,98.584 Q81.375,98.3652 80.75,98.3652 Q79.9844,98.3652 79.3438,98.6934 Q78.7188,99.0215 78.2188,99.7715 Q77.7344,100.5215 77.7344,101.5527 L77.7344,102.6465 Q77.7344,103.8809 78.625,104.709 Q79.5156,105.5215 81.1094,105.5215 Q82.0469,105.5215 82.7031,105.2715 Q83.0938,105.1152 83.5156,104.6777 Q83.7813,104.4121 83.9219,104.334 Q84.0781,104.2559 84.2813,104.2559 Q84.6094,104.2559 84.8594,104.5215 Q85.125,104.7715 85.125,105.1152 Q85.125,105.459 84.7813,105.8652 Q84.2813,106.4434 83.4844,106.7715 Q82.4063,107.2246 81.1094,107.2246 Q79.5938,107.2246 78.3906,106.5996 Q77.4063,106.0996 76.7188,105.0371 Q76.0313,103.959 76.0313,102.6777 L76.0313,101.5215 Q76.0313,100.1934 76.6406,99.0527 Q77.2656,97.8965 78.3594,97.2871 Q79.4531,96.6621 80.6875,96.6621 Q81.4219,96.6621 82.0625,96.834 Q82.7188,96.9902 83.2656,97.3496 Z " fill="#000000"/><text fill="#000000" font-family="sans-serif" font-size="12" font-style="italic" lengthAdjust="spacing" textLength="55" x="119.5" y="98.4629">&#171;Service&#187;</text><text fill="#000000" font-family="sans-serif" font-size="12" lengthAdjust="spacing" textLength="105" x="94.5" y="114.4238">CancelNoteService</text><line style="stroke:#181818;stroke-width:0.5;" x1="66.5" x2="201.5" y1="122.4355" y2="122.4355"/><text fill="#000000" font-family="sans-serif" font-size="14" lengthAdjust="spacing" textLength="74" x="71.5" y="141.543">-note : Note</text><line style="stroke:#181818;stroke-width:1.0;" x1="66.5" x2="201.5" y1="149.0566" y2="149.0566"/><text fill="#000000" font-family="sans-serif" font-size="14" lengthAdjust="spacing" textLength="95" x="71.5" y="168.1641">+initialize(note)</text><text fill="#000000" font-family="sans-serif" font-size="14" lengthAdjust="spacing" textLength="77" x="71.5" y="186.7852">+call() : void</text><text fill="#000000" font-family="sans-serif" font-size="14" lengthAdjust="spacing" textLength="80" x="71.5" y="228.0273">InvalidStatus</text><line style="stroke:#181818;stroke-width:1.0;stroke-dasharray:1.0,2.0;" x1="66.5" x2="100.5" y1="203.6094" y2="203.6094"/><text fill="#000000" font-family="sans-serif" font-size="14" lengthAdjust="spacing" textLength="67" x="100.5" y="208.9063">exceptions</text><line style="stroke:#181818;stroke-width:1.0;stroke-dasharray:1.0,2.0;" x1="167.5" x2="201.5" y1="203.6094" y2="203.6094"/></g><!--class ClientReliabilityService--><g id="elem_ClientReliabilityService"><rect codeLine="60" fill="#F1F1F1" height="169.6484" id="ClientReliabilityService" rx="2.5" ry="2.5" style="stroke:#181818;stroke-width:0.5;" width="301" x="281.5" y="361.0137"/><ellipse cx="365.25" cy="381.9746" fill="#ADD1B2" rx="11" ry="11" style="stroke:#181818;stroke-width:1.0;"/><path d="M368.0156,377.8496 Q368.1719,377.6309 368.3594,377.5215 Q368.5469,377.4121 368.7656,377.4121 Q369.1406,377.4121 369.375,377.6777 Q369.6094,377.9277 369.6094,378.5371 L369.6094,379.9902 Q369.6094,380.5996 369.375,380.8652 Q369.1406,381.1309 368.7656,381.1309 Q368.4219,381.1309 368.2188,380.9277 Q368.0156,380.7402 367.9063,380.2246 Q367.8594,379.8652 367.6719,379.6777 Q367.3438,379.3027 366.7344,379.084 Q366.125,378.8652 365.5,378.8652 Q364.7344,378.8652 364.0938,379.1934 Q363.4688,379.5215 362.9688,380.2715 Q362.4844,381.0215 362.4844,382.0527 L362.4844,383.1465 Q362.4844,384.3809 363.375,385.209 Q364.2656,386.0215 365.8594,386.0215 Q366.7969,386.0215 367.4531,385.7715 Q367.8438,385.6152 368.2656,385.1777 Q368.5313,384.9121 368.6719,384.834 Q368.8281,384.7559 369.0313,384.7559 Q369.3594,384.7559 369.6094,385.0215 Q369.875,385.2715 369.875,385.6152 Q369.875,385.959 369.5313,386.3652 Q369.0313,386.9434 368.2344,387.2715 Q367.1563,387.7246 365.8594,387.7246 Q364.3438,387.7246 363.1406,387.0996 Q362.1563,386.5996 361.4688,385.5371 Q360.7813,384.459 360.7813,383.1777 L360.7813,382.0215 Q360.7813,380.6934 361.3906,379.5527 Q362.0156,378.3965 363.1094,377.7871 Q364.2031,377.1621 365.4375,377.1621 Q366.1719,377.1621 366.8125,377.334 Q367.4688,377.4902 368.0156,377.8496 Z " fill="#000000"/><text fill="#000000" font-family="sans-serif" font-size="12" font-style="italic" lengthAdjust="spacing" textLength="55" x="420.75" y="378.9629">&#171;Service&#187;</text><text fill="#000000" font-family="sans-serif" font-size="12" lengthAdjust="spacing" textLength="125" x="385.75" y="394.9238">ClientReliabilityService</text><line style="stroke:#181818;stroke-width:0.5;" x1="282.5" x2="581.5" y1="402.9355" y2="402.9355"/><text fill="#000000" font-family="sans-serif" font-size="14" lengthAdjust="spacing" textLength="86" x="287.5" y="422.043">-client : Client</text><text fill="#000000" font-family="sans-serif" font-size="14" lengthAdjust="spacing" text-decoration="underline" textLength="197" x="287.5" y="440.6641">-PERIOD : Duration = 3.months</text><text fill="#000000" font-family="sans-serif" font-size="14" lengthAdjust="spacing" text-decoration="underline" textLength="289" x="287.5" y="459.2852">-CANCELLATION_THRESHOLD : Integer = 10</text><line style="stroke:#181818;stroke-width:1.0;" x1="282.5" x2="581.5" y1="466.7988" y2="466.7988"/><text fill="#000000" font-family="sans-serif" font-size="14" lengthAdjust="spacing" textLength="100" x="287.5" y="485.9063">+initialize(client)</text><text fill="#000000" font-family="sans-serif" font-size="14" lengthAdjust="spacing" textLength="103" x="287.5" y="504.5273">+call() : Boolean</text><text fill="#000000" font-family="sans-serif" font-size="14" lengthAdjust="spacing" textLength="196" x="287.5" y="523.1484">-cancellations_count() : Integer</text></g><!--class DiscontService--><g id="elem_DiscontService"><rect codeLine="70" fill="#F1F1F1" height="151.0273" id="DiscontService" rx="2.5" ry="2.5" style="stroke:#181818;stroke-width:0.5;" width="287" x="617.5" y="370.5137"/><ellipse cx="715.75" cy="391.4746" fill="#ADD1B2" rx="11" ry="11" style="stroke:#181818;stroke-width:1.0;"/><path d="M718.5156,387.3496 Q718.6719,387.1309 718.8594,387.0215 Q719.0469,386.9121 719.2656,386.9121 Q719.6406,386.9121 719.875,387.1777 Q720.1094,387.4277 720.1094,388.0371 L720.1094,389.4902 Q720.1094,390.0996 719.875,390.3652 Q719.6406,390.6309 719.2656,390.6309 Q718.9219,390.6309 718.7188,390.4277 Q718.5156,390.2402 718.4063,389.7246 Q718.3594,389.3652 718.1719,389.1777 Q717.8438,388.8027 717.2344,388.584 Q716.625,388.3652 716,388.3652 Q715.2344,388.3652 714.5938,388.6934 Q713.9688,389.0215 713.4688,389.7715 Q712.9844,390.5215 712.9844,391.5527 L712.9844,392.6465 Q712.9844,393.8809 713.875,394.709 Q714.7656,395.5215 716.3594,395.5215 Q717.2969,395.5215 717.9531,395.2715 Q718.3438,395.1152 718.7656,394.6777 Q719.0313,394.4121 719.1719,394.334 Q719.3281,394.2559 719.5313,394.2559 Q719.8594,394.2559 720.1094,394.5215 Q720.375,394.7715 720.375,395.1152 Q720.375,395.459 720.0313,395.8652 Q719.5313,396.4434 718.7344,396.7715 Q717.6563,397.2246 716.3594,397.2246 Q714.8438,397.2246 713.6406,396.5996 Q712.6563,396.0996 711.9688,395.0371 Q711.2813,393.959 711.2813,392.6777 L711.2813,391.5215 Q711.2813,390.1934 711.8906,389.0527 Q712.5156,387.8965 713.6094,387.2871 Q714.7031,386.6621 715.9375,386.6621 Q716.6719,386.6621 717.3125,386.834 Q717.9688,386.9902 718.5156,387.3496 Z " fill="#000000"/><text fill="#000000" font-family="sans-serif" font-size="12" font-style="italic" lengthAdjust="spacing" textLength="55" x="749.75" y="388.4629">&#171;Service&#187;</text><text fill="#000000" font-family="sans-serif" font-size="12" lengthAdjust="spacing" textLength="82" x="736.25" y="404.4238">DiscontService</text><line style="stroke:#181818;stroke-width:0.5;" x1="618.5" x2="903.5" y1="412.4355" y2="412.4355"/><text fill="#000000" font-family="sans-serif" font-size="14" lengthAdjust="spacing" textLength="74" x="623.5" y="431.543">-note : Note</text><text fill="#000000" font-family="sans-serif" font-size="14" lengthAdjust="spacing" text-decoration="underline" textLength="275" x="623.5" y="450.1641">-FIRST_DISCONT_PERCENT : Integer = 10</text><line style="stroke:#181818;stroke-width:1.0;" x1="618.5" x2="903.5" y1="457.6777" y2="457.6777"/><text fill="#000000" font-family="sans-serif" font-size="14" lengthAdjust="spacing" textLength="95" x="623.5" y="476.7852">+initialize(note)</text><text fill="#000000" font-family="sans-serif" font-size="14" lengthAdjust="spacing" textLength="77" x="623.5" y="495.4063">+call() : void</text><text fill="#000000" font-family="sans-serif" font-size="14" lengthAdjust="spacing" textLength="207" x="623.5" y="514.0273">-calculate_discont_price() : Float</text></g><!--class ConsumeMaterialsService--><g id="elem_ConsumeMaterialsService"><rect codeLine="79" fill="#F1F1F1" height="113.7852" id="ConsumeMaterialsService" rx="2.5" ry="2.5" style="stroke:#181818;stroke-width:0.5;" width="177" x="939.5" y="389.0137"/><ellipse cx="954.5" cy="409.9746" fill="#ADD1B2" rx="11" ry="11" style="stroke:#181818;stroke-width:1.0;"/><path d="M957.2656,405.8496 Q957.4219,405.6309 957.6094,405.5215 Q957.7969,405.4121 958.0156,405.4121 Q958.3906,405.4121 958.625,405.6777 Q958.8594,405.9277 958.8594,406.5371 L958.8594,407.9902 Q958.8594,408.5996 958.625,408.8652 Q958.3906,409.1309 958.0156,409.1309 Q957.6719,409.1309 957.4688,408.9277 Q957.2656,408.7402 957.1563,408.2246 Q957.1094,407.8652 956.9219,407.6777 Q956.5938,407.3027 955.9844,407.084 Q955.375,406.8652 954.75,406.8652 Q953.9844,406.8652 953.3438,407.1934 Q952.7188,407.5215 952.2188,408.2715 Q951.7344,409.0215 951.7344,410.0527 L951.7344,411.1465 Q951.7344,412.3809 952.625,413.209 Q953.5156,414.0215 955.1094,414.0215 Q956.0469,414.0215 956.7031,413.7715 Q957.0938,413.6152 957.5156,413.1777 Q957.7813,412.9121 957.9219,412.834 Q958.0781,412.7559 958.2813,412.7559 Q958.6094,412.7559 958.8594,413.0215 Q959.125,413.2715 959.125,413.6152 Q959.125,413.959 958.7813,414.3652 Q958.2813,414.9434 957.4844,415.2715 Q956.4063,415.7246 955.1094,415.7246 Q953.5938,415.7246 952.3906,415.0996 Q951.4063,414.5996 950.7188,413.5371 Q950.0313,412.459 950.0313,411.1777 L950.0313,410.0215 Q950.0313,408.6934 950.6406,407.5527 Q951.2656,406.3965 952.3594,405.7871 Q953.4531,405.1621 954.6875,405.1621 Q955.4219,405.1621 956.0625,405.334 Q956.7188,405.4902 957.2656,405.8496 Z " fill="#000000"/><text fill="#000000" font-family="sans-serif" font-size="12" font-style="italic" lengthAdjust="spacing" textLength="55" x="1013.5" y="406.9629">&#171;Service&#187;</text><text fill="#000000" font-family="sans-serif" font-size="12" lengthAdjust="spacing" textLength="145" x="968.5" y="422.9238">ConsumeMaterialsService</text><line style="stroke:#181818;stroke-width:0.5;" x1="940.5" x2="1115.5" y1="430.9355" y2="430.9355"/><text fill="#000000" font-family="sans-serif" font-size="14" lengthAdjust="spacing" textLength="74" x="945.5" y="450.043">-note : Note</text><line style="stroke:#181818;stroke-width:1.0;" x1="940.5" x2="1115.5" y1="457.5566" y2="457.5566"/><text fill="#000000" font-family="sans-serif" font-size="14" lengthAdjust="spacing" textLength="95" x="945.5" y="476.6641">+initialize(note)</text><text fill="#000000" font-family="sans-serif" font-size="14" lengthAdjust="spacing" textLength="77" x="945.5" y="495.2852">+call() : void</text></g><!--class ReturnMaterialsService--><g id="elem_ReturnMaterialsService"><rect codeLine="86" fill="#F1F1F1" height="132.4063" id="ReturnMaterialsService" rx="2.5" ry="2.5" style="stroke:#181818;stroke-width:0.5;" width="224" x="22" y="380.0137"/><ellipse cx="66.25" cy="400.9746" fill="#ADD1B2" rx="11" ry="11" style="stroke:#181818;stroke-width:1.0;"/><path d="M69.0156,396.8496 Q69.1719,396.6309 69.3594,396.5215 Q69.5469,396.4121 69.7656,396.4121 Q70.1406,396.4121 70.375,396.6777 Q70.6094,396.9277 70.6094,397.5371 L70.6094,398.9902 Q70.6094,399.5996 70.375,399.8652 Q70.1406,400.1309 69.7656,400.1309 Q69.4219,400.1309 69.2188,399.9277 Q69.0156,399.7402 68.9063,399.2246 Q68.8594,398.8652 68.6719,398.6777 Q68.3438,398.3027 67.7344,398.084 Q67.125,397.8652 66.5,397.8652 Q65.7344,397.8652 65.0938,398.1934 Q64.4688,398.5215 63.9688,399.2715 Q63.4844,400.0215 63.4844,401.0527 L63.4844,402.1465 Q63.4844,403.3809 64.375,404.209 Q65.2656,405.0215 66.8594,405.0215 Q67.7969,405.0215 68.4531,404.7715 Q68.8438,404.6152 69.2656,404.1777 Q69.5313,403.9121 69.6719,403.834 Q69.8281,403.7559 70.0313,403.7559 Q70.3594,403.7559 70.6094,404.0215 Q70.875,404.2715 70.875,404.6152 Q70.875,404.959 70.5313,405.3652 Q70.0313,405.9434 69.2344,406.2715 Q68.1563,406.7246 66.8594,406.7246 Q65.3438,406.7246 64.1406,406.0996 Q63.1563,405.5996 62.4688,404.5371 Q61.7813,403.459 61.7813,402.1777 L61.7813,401.0215 Q61.7813,399.6934 62.3906,398.5527 Q63.0156,397.3965 64.1094,396.7871 Q65.2031,396.1621 66.4375,396.1621 Q67.1719,396.1621 67.8125,396.334 Q68.4688,396.4902 69.0156,396.8496 Z " fill="#000000"/><text fill="#000000" font-family="sans-serif" font-size="12" font-style="italic" lengthAdjust="spacing" textLength="55" x="122.75" y="397.9629">&#171;Service&#187;</text><text fill="#000000" font-family="sans-serif" font-size="12" lengthAdjust="spacing" textLength="127" x="86.75" y="413.9238">ReturnMaterialsService</text><line style="stroke:#181818;stroke-width:0.5;" x1="23" x2="245" y1="421.9355" y2="421.9355"/><text fill="#000000" font-family="sans-serif" font-size="14" lengthAdjust="spacing" textLength="74" x="28" y="441.043">-note : Note</text><line style="stroke:#181818;stroke-width:1.0;" x1="23" x2="245" y1="448.5566" y2="448.5566"/><text fill="#000000" font-family="sans-serif" font-size="14" lengthAdjust="spacing" textLength="95" x="28" y="467.6641">+initialize(note)</text><text fill="#000000" font-family="sans-serif" font-size="14" lengthAdjust="spacing" textLength="77" x="28" y="486.2852">+call() : void</text><text fill="#000000" font-family="sans-serif" font-size="14" lengthAdjust="spacing" textLength="212" x="28" y="504.9063">-operations_to_return() : Relation</text></g><!--class MasterScheduleService--><g id="elem_MasterScheduleService"><rect codeLine="94" fill="#F1F1F1" height="113.7852" id="MasterScheduleService" rx="2.5" ry="2.5" style="stroke:#181818;stroke-width:0.5;" width="161" x="1654.5" y="101.0137"/><ellipse cx="1669.5" cy="121.9746" fill="#ADD1B2" rx="11" ry="11" style="stroke:#181818;stroke-width:1.0;"/><path d="M1672.2656,117.8496 Q1672.4219,117.6309 1672.6094,117.5215 Q1672.7969,117.4121 1673.0156,117.4121 Q1673.3906,117.4121 1673.625,117.6777 Q1673.8594,117.9277 1673.8594,118.5371 L1673.8594,119.9902 Q1673.8594,120.5996 1673.625,120.8652 Q1673.3906,121.1309 1673.0156,121.1309 Q1672.6719,121.1309 1672.4688,120.9277 Q1672.2656,120.7402 1672.1563,120.2246 Q1672.1094,119.8652 1671.9219,119.6777 Q1671.5938,119.3027 1670.9844,119.084 Q1670.375,118.8652 1669.75,118.8652 Q1668.9844,118.8652 1668.3438,119.1934 Q1667.7188,119.5215 1667.2188,120.2715 Q1666.7344,121.0215 1666.7344,122.0527 L1666.7344,123.1465 Q1666.7344,124.3809 1667.625,125.209 Q1668.5156,126.0215 1670.1094,126.0215 Q1671.0469,126.0215 1671.7031,125.7715 Q1672.0938,125.6152 1672.5156,125.1777 Q1672.7813,124.9121 1672.9219,124.834 Q1673.0781,124.7559 1673.2813,124.7559 Q1673.6094,124.7559 1673.8594,125.0215 Q1674.125,125.2715 1674.125,125.6152 Q1674.125,125.959 1673.7813,126.3652 Q1673.2813,126.9434 1672.4844,127.2715 Q1671.4063,127.7246 1670.1094,127.7246 Q1668.5938,127.7246 1667.3906,127.0996 Q1666.4063,126.5996 1665.7188,125.5371 Q1665.0313,124.459 1665.0313,123.1777 L1665.0313,122.0215 Q1665.0313,120.6934 1665.6406,119.5527 Q1666.2656,118.3965 1667.3594,117.7871 Q1668.4531,117.1621 1669.6875,117.1621 Q1670.4219,117.1621 1671.0625,117.334 Q1671.7188,117.4902 1672.2656,117.8496 Z " fill="#000000"/><text fill="#000000" font-family="sans-serif" font-size="12" font-style="italic" lengthAdjust="spacing" textLength="55" x="1720.5" y="118.9629">&#171;Service&#187;</text><text fill="#000000" font-family="sans-serif" font-size="12" lengthAdjust="spacing" textLength="129" x="1683.5" y="134.9238">MasterScheduleService</text><line style="stroke:#181818;stroke-width:0.5;" x1="1655.5" x2="1814.5" y1="142.9355" y2="142.9355"/><text fill="#000000" font-family="sans-serif" font-size="14" lengthAdjust="spacing" textLength="103" x="1660.5" y="162.043">-master : Master</text><line style="stroke:#181818;stroke-width:1.0;" x1="1655.5" x2="1814.5" y1="169.5566" y2="169.5566"/><text fill="#000000" font-family="sans-serif" font-size="14" lengthAdjust="spacing" textLength="110" x="1660.5" y="188.6641">+initialize(master)</text><text fill="#000000" font-family="sans-serif" font-size="14" lengthAdjust="spacing" textLength="133" x="1660.5" y="207.2852">+call() : Array&lt;Hash&gt;</text></g><!--class AvailableDatesService--><g id="elem_AvailableDatesService"><rect codeLine="101" fill="#F1F1F1" height="151.0273" id="AvailableDatesService" rx="2.5" ry="2.5" style="stroke:#181818;stroke-width:0.5;" width="227" x="1429.5" y="370.5137"/><ellipse cx="1477.75" cy="391.4746" fill="#ADD1B2" rx="11" ry="11" style="stroke:#181818;stroke-width:1.0;"/><path d="M1480.5156,387.3496 Q1480.6719,387.1309 1480.8594,387.0215 Q1481.0469,386.9121 1481.2656,386.9121 Q1481.6406,386.9121 1481.875,387.1777 Q1482.1094,387.4277 1482.1094,388.0371 L1482.1094,389.4902 Q1482.1094,390.0996 1481.875,390.3652 Q1481.6406,390.6309 1481.2656,390.6309 Q1480.9219,390.6309 1480.7188,390.4277 Q1480.5156,390.2402 1480.4063,389.7246 Q1480.3594,389.3652 1480.1719,389.1777 Q1479.8438,388.8027 1479.2344,388.584 Q1478.625,388.3652 1478,388.3652 Q1477.2344,388.3652 1476.5938,388.6934 Q1475.9688,389.0215 1475.4688,389.7715 Q1474.9844,390.5215 1474.9844,391.5527 L1474.9844,392.6465 Q1474.9844,393.8809 1475.875,394.709 Q1476.7656,395.5215 1478.3594,395.5215 Q1479.2969,395.5215 1479.9531,395.2715 Q1480.3438,395.1152 1480.7656,394.6777 Q1481.0313,394.4121 1481.1719,394.334 Q1481.3281,394.2559 1481.5313,394.2559 Q1481.8594,394.2559 1482.1094,394.5215 Q1482.375,394.7715 1482.375,395.1152 Q1482.375,395.459 1482.0313,395.8652 Q1481.5313,396.4434 1480.7344,396.7715 Q1479.6563,397.2246 1478.3594,397.2246 Q1476.8438,397.2246 1475.6406,396.5996 Q1474.6563,396.0996 1473.9688,395.0371 Q1473.2813,393.959 1473.2813,392.6777 L1473.2813,391.5215 Q1473.2813,390.1934 1473.8906,389.0527 Q1474.5156,387.8965 1475.6094,387.2871 Q1476.7031,386.6621 1477.9375,386.6621 Q1478.6719,386.6621 1479.3125,386.834 Q1479.9688,386.9902 1480.5156,387.3496 Z " fill="#000000"/><text fill="#000000" font-family="sans-serif" font-size="12" font-style="italic" lengthAdjust="spacing" textLength="55" x="1531.75" y="388.4629">&#171;Service&#187;</text><text fill="#000000" font-family="sans-serif" font-size="12" lengthAdjust="spacing" textLength="122" x="1498.25" y="404.4238">AvailableDatesService</text><line style="stroke:#181818;stroke-width:0.5;" x1="1430.5" x2="1655.5" y1="412.4355" y2="412.4355"/><text fill="#000000" font-family="sans-serif" font-size="14" lengthAdjust="spacing" textLength="103" x="1435.5" y="431.543">-master : Master</text><text fill="#000000" font-family="sans-serif" font-size="14" lengthAdjust="spacing" textLength="166" x="1435.5" y="450.1641">-days_count : Integer = 30</text><line style="stroke:#181818;stroke-width:1.0;" x1="1430.5" x2="1655.5" y1="457.6777" y2="457.6777"/><text fill="#000000" font-family="sans-serif" font-size="14" lengthAdjust="spacing" textLength="215" x="1435.5" y="476.7852">+initialize(master, days_count: 30)</text><text fill="#000000" font-family="sans-serif" font-size="14" lengthAdjust="spacing" textLength="131" x="1435.5" y="495.4063">+call() : Array&lt;Date&gt;</text><text fill="#000000" font-family="sans-serif" font-size="14" lengthAdjust="spacing" textLength="194" x="1435.5" y="514.0273">-working_day?(date) : Boolean</text></g><!--class AvailableSlotsService--><g id="elem_AvailableSlotsService"><rect codeLine="110" fill="#F1F1F1" height="151.0273" id="AvailableSlotsService" rx="2.5" ry="2.5" style="stroke:#181818;stroke-width:0.5;" width="208" x="1692" y="370.5137"/><ellipse cx="1733.55" cy="391.4746" fill="#ADD1B2" rx="11" ry="11" style="stroke:#181818;stroke-width:1.0;"/><path d="M1736.3156,387.3496 Q1736.4719,387.1309 1736.6594,387.0215 Q1736.8469,386.9121 1737.0656,386.9121 Q1737.4406,386.9121 1737.675,387.1777 Q1737.9094,387.4277 1737.9094,388.0371 L1737.9094,389.4902 Q1737.9094,390.0996 1737.675,390.3652 Q1737.4406,390.6309 1737.0656,390.6309 Q1736.7219,390.6309 1736.5188,390.4277 Q1736.3156,390.2402 1736.2063,389.7246 Q1736.1594,389.3652 1735.9719,389.1777 Q1735.6438,388.8027 1735.0344,388.584 Q1734.425,388.3652 1733.8,388.3652 Q1733.0344,388.3652 1732.3938,388.6934 Q1731.7688,389.0215 1731.2688,389.7715 Q1730.7844,390.5215 1730.7844,391.5527 L1730.7844,392.6465 Q1730.7844,393.8809 1731.675,394.709 Q1732.5656,395.5215 1734.1594,395.5215 Q1735.0969,395.5215 1735.7531,395.2715 Q1736.1438,395.1152 1736.5656,394.6777 Q1736.8313,394.4121 1736.9719,394.334 Q1737.1281,394.2559 1737.3313,394.2559 Q1737.6594,394.2559 1737.9094,394.5215 Q1738.175,394.7715 1738.175,395.1152 Q1738.175,395.459 1737.8313,395.8652 Q1737.3313,396.4434 1736.5344,396.7715 Q1735.4563,397.2246 1734.1594,397.2246 Q1732.6438,397.2246 1731.4406,396.5996 Q1730.4563,396.0996 1729.7688,395.0371 Q1729.0813,393.959 1729.0813,392.6777 L1729.0813,391.5215 Q1729.0813,390.1934 1729.6906,389.0527 Q1730.3156,387.8965 1731.4094,387.2871 Q1732.5031,386.6621 1733.7375,386.6621 Q1734.4719,386.6621 1735.1125,386.834 Q1735.7688,386.9902 1736.3156,387.3496 Z " fill="#000000"/><text fill="#000000" font-family="sans-serif" font-size="12" font-style="italic" lengthAdjust="spacing" textLength="55" x="1784.45" y="388.4629">&#171;Service&#187;</text><text fill="#000000" font-family="sans-serif" font-size="12" lengthAdjust="spacing" textLength="117" x="1753.45" y="404.4238">AvailableSlotsService</text><line style="stroke:#181818;stroke-width:0.5;" x1="1693" x2="1899" y1="412.4355" y2="412.4355"/><text fill="#000000" font-family="sans-serif" font-size="14" lengthAdjust="spacing" textLength="103" x="1698" y="431.543">-master : Master</text><text fill="#000000" font-family="sans-serif" font-size="14" lengthAdjust="spacing" textLength="75" x="1698" y="450.1641">-date : Date</text><text fill="#000000" font-family="sans-serif" font-size="14" lengthAdjust="spacing" text-decoration="underline" textLength="196" x="1698" y="468.7852">-STEP_MINUTES : Integer = 60</text><line style="stroke:#181818;stroke-width:1.0;" x1="1693" x2="1899" y1="476.2988" y2="476.2988"/><text fill="#000000" font-family="sans-serif" font-size="14" lengthAdjust="spacing" textLength="150" x="1698" y="495.4063">+initialize(master, date:)</text><text fill="#000000" font-family="sans-serif" font-size="14" lengthAdjust="spacing" textLength="138" x="1698" y="514.0273">+call() : Array&lt;String&gt;</text></g><!--class OperationsProvider--><g id="elem_OperationsProvider"><rect codeLine="119" fill="#F1F1F1" height="264.0938" id="OperationsProvider" rx="2.5" ry="2.5" style="stroke:#181818;stroke-width:0.5;" width="182" x="490" y="619.0137"/><ellipse cx="524.8" cy="647.9551" fill="#ADD1B2" rx="11" ry="11" style="stroke:#181818;stroke-width:1.0;"/><path d="M527.5656,643.8301 Q527.7219,643.6113 527.9094,643.502 Q528.0969,643.3926 528.3156,643.3926 Q528.6906,643.3926 528.925,643.6582 Q529.1594,643.9082 529.1594,644.5176 L529.1594,645.9707 Q529.1594,646.5801 528.925,646.8457 Q528.6906,647.1113 528.3156,647.1113 Q527.9719,647.1113 527.7688,646.9082 Q527.5656,646.7207 527.4563,646.2051 Q527.4094,645.8457 527.2219,645.6582 Q526.8938,645.2832 526.2844,645.0645 Q525.675,644.8457 525.05,644.8457 Q524.2844,644.8457 523.6438,645.1738 Q523.0188,645.502 522.5188,646.252 Q522.0344,647.002 522.0344,648.0332 L522.0344,649.127 Q522.0344,650.3613 522.925,651.1895 Q523.8156,652.002 525.4094,652.002 Q526.3469,652.002 527.0031,651.752 Q527.3938,651.5957 527.8156,651.1582 Q528.0813,650.8926 528.2219,650.8145 Q528.3781,650.7363 528.5813,650.7363 Q528.9094,650.7363 529.1594,651.002 Q529.425,651.252 529.425,651.5957 Q529.425,651.9395 529.0813,652.3457 Q528.5813,652.9238 527.7844,653.252 Q526.7063,653.7051 525.4094,653.7051 Q523.8938,653.7051 522.6906,653.0801 Q521.7063,652.5801 521.0188,651.5176 Q520.3313,650.4395 520.3313,649.1582 L520.3313,648.002 Q520.3313,646.6738 520.9406,645.5332 Q521.5656,644.377 522.6594,643.7676 Q523.7531,643.1426 524.9875,643.1426 Q525.7219,643.1426 526.3625,643.3145 Q527.0188,643.4707 527.5656,643.8301 Z " fill="#000000"/><text fill="#000000" font-family="sans-serif" font-size="12" font-style="italic" lengthAdjust="spacing" textLength="55" x="568.7" y="636.9629">&#171;Service&#187;</text><text fill="#000000" font-family="sans-serif" font-size="12" lengthAdjust="spacing" textLength="56" x="568.2" y="652.9238">Materials::</text><text fill="#000000" font-family="sans-serif" font-size="12" lengthAdjust="spacing" textLength="106" x="543.2" y="668.8848">OperationsProvider</text><line style="stroke:#181818;stroke-width:0.5;" x1="491" x2="671" y1="676.8965" y2="676.8965"/><text fill="#000000" font-family="sans-serif" font-size="14" lengthAdjust="spacing" textLength="101" x="496" y="696.0039">-action : Symbol</text><text fill="#000000" font-family="sans-serif" font-size="14" lengthAdjust="spacing" textLength="96" x="496" y="714.625">-params : Hash</text><line style="stroke:#181818;stroke-width:1.0;" x1="491" x2="671" y1="722.1387" y2="722.1387"/><text fill="#000000" font-family="sans-serif" font-size="14" lengthAdjust="spacing" text-decoration="underline" textLength="170" x="496" y="741.2461">+call(action, params) : void</text><text fill="#000000" font-family="sans-serif" font-size="14" lengthAdjust="spacing" textLength="92" x="496" y="759.8672">-apply!() : void</text><text fill="#000000" font-family="sans-serif" font-size="14" lengthAdjust="spacing" textLength="104" x="496" y="778.4883">-confirm!() : void</text><text fill="#000000" font-family="sans-serif" font-size="14" lengthAdjust="spacing" textLength="99" x="496" y="797.1094">-cancel!() : void</text><text fill="#000000" font-family="sans-serif" font-size="14" lengthAdjust="spacing" textLength="79" x="496" y="838.3516">InvalidAction</text><text fill="#000000" font-family="sans-serif" font-size="14" lengthAdjust="spacing" textLength="103" x="496" y="856.9727">InvalidTransition</text><text fill="#000000" font-family="sans-serif" font-size="14" lengthAdjust="spacing" textLength="120" x="496" y="875.5938">NotEnoughMaterial</text><line style="stroke:#181818;stroke-width:1.0;stroke-dasharray:1.0,2.0;" x1="491" x2="547.5" y1="813.9336" y2="813.9336"/><text fill="#000000" font-family="sans-serif" font-size="14" lengthAdjust="spacing" textLength="67" x="547.5" y="819.2305">exceptions</text><line style="stroke:#181818;stroke-width:1.0;stroke-dasharray:1.0,2.0;" x1="614.5" x2="671" y1="813.9336" y2="813.9336"/></g><!--class PriceAnalysisService--><g id="elem_PriceAnalysisService"><rect codeLine="136" fill="#F1F1F1" height="206.8906" id="PriceAnalysisService" rx="2.5" ry="2.5" style="stroke:#181818;stroke-width:0.5;" width="232" x="2797" y="342.5137"/><ellipse cx="2851.75" cy="363.4746" fill="#ADD1B2" rx="11" ry="11" style="stroke:#181818;stroke-width:1.0;"/><path d="M2854.5156,359.3496 Q2854.6719,359.1309 2854.8594,359.0215 Q2855.0469,358.9121 2855.2656,358.9121 Q2855.6406,358.9121 2855.875,359.1777 Q2856.1094,359.4277 2856.1094,360.0371 L2856.1094,361.4902 Q2856.1094,362.0996 2855.875,362.3652 Q2855.6406,362.6309 2855.2656,362.6309 Q2854.9219,362.6309 2854.7188,362.4277 Q2854.5156,362.2402 2854.4063,361.7246 Q2854.3594,361.3652 2854.1719,361.1777 Q2853.8438,360.8027 2853.2344,360.584 Q2852.625,360.3652 2852,360.3652 Q2851.2344,360.3652 2850.5938,360.6934 Q2849.9688,361.0215 2849.4688,361.7715 Q2848.9844,362.5215 2848.9844,363.5527 L2848.9844,364.6465 Q2848.9844,365.8809 2849.875,366.709 Q2850.7656,367.5215 2852.3594,367.5215 Q2853.2969,367.5215 2853.9531,367.2715 Q2854.3438,367.1152 2854.7656,366.6777 Q2855.0313,366.4121 2855.1719,366.334 Q2855.3281,366.2559 2855.5313,366.2559 Q2855.8594,366.2559 2856.1094,366.5215 Q2856.375,366.7715 2856.375,367.1152 Q2856.375,367.459 2856.0313,367.8652 Q2855.5313,368.4434 2854.7344,368.7715 Q2853.6563,369.2246 2852.3594,369.2246 Q2850.8438,369.2246 2849.6406,368.5996 Q2848.6563,368.0996 2847.9688,367.0371 Q2847.2813,365.959 2847.2813,364.6777 L2847.2813,363.5215 Q2847.2813,362.1934 2847.8906,361.0527 Q2848.5156,359.8965 2849.6094,359.2871 Q2850.7031,358.6621 2851.9375,358.6621 Q2852.6719,358.6621 2853.3125,358.834 Q2853.9688,358.9902 2854.5156,359.3496 Z " fill="#000000"/><text fill="#000000" font-family="sans-serif" font-size="12" font-style="italic" lengthAdjust="spacing" textLength="55" x="2901.75" y="360.4629">&#171;Service&#187;</text><text fill="#000000" font-family="sans-serif" font-size="12" lengthAdjust="spacing" textLength="114" x="2872.25" y="376.4238">PriceAnalysisService</text><line style="stroke:#181818;stroke-width:0.5;" x1="2798" x2="3028" y1="384.4355" y2="384.4355"/><text fill="#000000" font-family="sans-serif" font-size="14" lengthAdjust="spacing" text-decoration="underline" textLength="137" x="2803" y="403.543">-ALPHA : Float = 0.05</text><text fill="#000000" font-family="sans-serif" font-size="14" lengthAdjust="spacing" text-decoration="underline" textLength="129" x="2803" y="422.1641">-BETA : Float = 0.03</text><line style="stroke:#181818;stroke-width:1.0;" x1="2798" x2="3028" y1="429.6777" y2="429.6777"/><text fill="#000000" font-family="sans-serif" font-size="14" lengthAdjust="spacing" textLength="77" x="2803" y="448.7852">+call() : void</text><text fill="#000000" font-family="sans-serif" font-size="14" lengthAdjust="spacing" textLength="172" x="2803" y="467.4063">-generate_months() : Array</text><text fill="#000000" font-family="sans-serif" font-size="14" lengthAdjust="spacing" textLength="186" x="2803" y="486.0273">-preload_notes_data() : Hash</text><text fill="#000000" font-family="sans-serif" font-size="14" lengthAdjust="spacing" textLength="220" x="2803" y="504.6484">-preload_first_visit_counts() : Hash</text><text fill="#000000" font-family="sans-serif" font-size="14" lengthAdjust="spacing" textLength="212" x="2803" y="523.2695">-compute_material_costs() : Hash</text><text fill="#000000" font-family="sans-serif" font-size="14" lengthAdjust="spacing" textLength="111" x="2803" y="541.8906">-write_csv() : void</text></g><!--class PriceAnalysisResultService--><g id="elem_PriceAnalysisResultService"><rect codeLine="148" fill="#F1F1F1" height="155.0273" id="PriceAnalysisResultService" rx="2.5" ry="2.5" style="stroke:#181818;stroke-width:0.5;" width="250" x="2512" y="368.5137"/><ellipse cx="2557.75" cy="389.4746" fill="#ADD1B2" rx="11" ry="11" style="stroke:#181818;stroke-width:1.0;"/><path d="M2560.5156,385.3496 Q2560.6719,385.1309 2560.8594,385.0215 Q2561.0469,384.9121 2561.2656,384.9121 Q2561.6406,384.9121 2561.875,385.1777 Q2562.1094,385.4277 2562.1094,386.0371 L2562.1094,387.4902 Q2562.1094,388.0996 2561.875,388.3652 Q2561.6406,388.6309 2561.2656,388.6309 Q2560.9219,388.6309 2560.7188,388.4277 Q2560.5156,388.2402 2560.4063,387.7246 Q2560.3594,387.3652 2560.1719,387.1777 Q2559.8438,386.8027 2559.2344,386.584 Q2558.625,386.3652 2558,386.3652 Q2557.2344,386.3652 2556.5938,386.6934 Q2555.9688,387.0215 2555.4688,387.7715 Q2554.9844,388.5215 2554.9844,389.5527 L2554.9844,390.6465 Q2554.9844,391.8809 2555.875,392.709 Q2556.7656,393.5215 2558.3594,393.5215 Q2559.2969,393.5215 2559.9531,393.2715 Q2560.3438,393.1152 2560.7656,392.6777 Q2561.0313,392.4121 2561.1719,392.334 Q2561.3281,392.2559 2561.5313,392.2559 Q2561.8594,392.2559 2562.1094,392.5215 Q2562.375,392.7715 2562.375,393.1152 Q2562.375,393.459 2562.0313,393.8652 Q2561.5313,394.4434 2560.7344,394.7715 Q2559.6563,395.2246 2558.3594,395.2246 Q2556.8438,395.2246 2555.6406,394.5996 Q2554.6563,394.0996 2553.9688,393.0371 Q2553.2813,391.959 2553.2813,390.6777 L2553.2813,389.5215 Q2553.2813,388.1934 2553.8906,387.0527 Q2554.5156,385.8965 2555.6094,385.2871 Q2556.7031,384.6621 2557.9375,384.6621 Q2558.6719,384.6621 2559.3125,384.834 Q2559.9688,384.9902 2560.5156,385.3496 Z " fill="#000000"/><text fill="#000000" font-family="sans-serif" font-size="12" font-style="italic" lengthAdjust="spacing" textLength="55" x="2625.75" y="386.4629">&#171;Service&#187;</text><text fill="#000000" font-family="sans-serif" font-size="12" lengthAdjust="spacing" textLength="150" x="2578.25" y="402.4238">PriceAnalysisResultService</text><line style="stroke:#181818;stroke-width:0.5;" x1="2513" x2="2761" y1="410.4355" y2="410.4355"/><text fill="#000000" font-family="sans-serif" font-size="14" lengthAdjust="spacing" text-decoration="underline" textLength="217" x="2518" y="429.543">-PREDICTIONS_PATH : Pathname</text><line style="stroke:#181818;stroke-width:1.0;" x1="2513" x2="2761" y1="437.0566" y2="437.0566"/><text fill="#000000" font-family="sans-serif" font-size="14" lengthAdjust="spacing" textLength="83" x="2518" y="456.1641">+call() : Hash</text><text fill="#000000" font-family="sans-serif" font-size="14" lengthAdjust="spacing" textLength="238" x="2518" y="474.7852">-enrich_with_titles(predictions) : Array</text><text fill="#000000" font-family="sans-serif" font-size="14" lengthAdjust="spacing" textLength="62" x="2518" y="516.0273">NotFound</text><line style="stroke:#181818;stroke-width:1.0;stroke-dasharray:1.0,2.0;" x1="2513" x2="2603.5" y1="491.6094" y2="491.6094"/><text fill="#000000" font-family="sans-serif" font-size="14" lengthAdjust="spacing" textLength="67" x="2603.5" y="496.9063">exceptions</text><line style="stroke:#181818;stroke-width:1.0;stroke-dasharray:1.0,2.0;" x1="2670.5" x2="2761" y1="491.6094" y2="491.6094"/></g><!--class MaterialForecastService--><g id="elem_MaterialForecastService"><rect codeLine="157" fill="#F1F1F1" height="225.5117" id="MaterialForecastService" rx="2.5" ry="2.5" style="stroke:#181818;stroke-width:0.5;" width="256" x="2221" y="333.0137"/><ellipse cx="2279.25" cy="353.9746" fill="#ADD1B2" rx="11" ry="11" style="stroke:#181818;stroke-width:1.0;"/><path d="M2282.0156,349.8496 Q2282.1719,349.6309 2282.3594,349.5215 Q2282.5469,349.4121 2282.7656,349.4121 Q2283.1406,349.4121 2283.375,349.6777 Q2283.6094,349.9277 2283.6094,350.5371 L2283.6094,351.9902 Q2283.6094,352.5996 2283.375,352.8652 Q2283.1406,353.1309 2282.7656,353.1309 Q2282.4219,353.1309 2282.2188,352.9277 Q2282.0156,352.7402 2281.9063,352.2246 Q2281.8594,351.8652 2281.6719,351.6777 Q2281.3438,351.3027 2280.7344,351.084 Q2280.125,350.8652 2279.5,350.8652 Q2278.7344,350.8652 2278.0938,351.1934 Q2277.4688,351.5215 2276.9688,352.2715 Q2276.4844,353.0215 2276.4844,354.0527 L2276.4844,355.1465 Q2276.4844,356.3809 2277.375,357.209 Q2278.2656,358.0215 2279.8594,358.0215 Q2280.7969,358.0215 2281.4531,357.7715 Q2281.8438,357.6152 2282.2656,357.1777 Q2282.5313,356.9121 2282.6719,356.834 Q2282.8281,356.7559 2283.0313,356.7559 Q2283.3594,356.7559 2283.6094,357.0215 Q2283.875,357.2715 2283.875,357.6152 Q2283.875,357.959 2283.5313,358.3652 Q2283.0313,358.9434 2282.2344,359.2715 Q2281.1563,359.7246 2279.8594,359.7246 Q2278.3438,359.7246 2277.1406,359.0996 Q2276.1563,358.5996 2275.4688,357.5371 Q2274.7813,356.459 2274.7813,355.1777 L2274.7813,354.0215 Q2274.7813,352.6934 2275.3906,351.5527 Q2276.0156,350.3965 2277.1094,349.7871 Q2278.2031,349.1621 2279.4375,349.1621 Q2280.1719,349.1621 2280.8125,349.334 Q2281.4688,349.4902 2282.0156,349.8496 Z " fill="#000000"/><text fill="#000000" font-family="sans-serif" font-size="12" font-style="italic" lengthAdjust="spacing" textLength="55" x="2337.75" y="350.9629">&#171;Service&#187;</text><text fill="#000000" font-family="sans-serif" font-size="12" lengthAdjust="spacing" textLength="131" x="2299.75" y="366.9238">MaterialForecastService</text><line style="stroke:#181818;stroke-width:0.5;" x1="2222" x2="2476" y1="374.9355" y2="374.9355"/><line style="stroke:#181818;stroke-width:1.0;" x1="2222" x2="2476" y1="382.9355" y2="382.9355"/><text fill="#000000" font-family="sans-serif" font-size="14" lengthAdjust="spacing" textLength="77" x="2227" y="402.043">+call() : void</text><text fill="#000000" font-family="sans-serif" font-size="14" lengthAdjust="spacing" textLength="172" x="2227" y="420.6641">-generate_months() : Array</text><text fill="#000000" font-family="sans-serif" font-size="14" lengthAdjust="spacing" textLength="172" x="2227" y="439.2852">-preload_bookings() : Hash</text><text fill="#000000" font-family="sans-serif" font-size="14" lengthAdjust="spacing" textLength="209" x="2227" y="457.9063">-compute_avg_bookings() : Hash</text><text fill="#000000" font-family="sans-serif" font-size="14" lengthAdjust="spacing" textLength="115" x="2227" y="476.5273">-get_ratio() : Float</text><text fill="#000000" font-family="sans-serif" font-size="14" lengthAdjust="spacing" textLength="154" x="2227" y="495.1484">-compute_trend() : Float</text><text fill="#000000" font-family="sans-serif" font-size="14" lengthAdjust="spacing" textLength="191" x="2227" y="513.7695">-export_materials_json() : void</text><text fill="#000000" font-family="sans-serif" font-size="14" lengthAdjust="spacing" textLength="244" x="2227" y="532.3906">-export_service_materials_json() : void</text><text fill="#000000" font-family="sans-serif" font-size="14" lengthAdjust="spacing" textLength="111" x="2227" y="551.0117">-write_csv() : void</text></g><!--class MaterialForecastResultService--><g id="elem_MaterialForecastResultService"><rect codeLine="170" fill="#F1F1F1" height="136.4063" id="MaterialForecastResultService" rx="2.5" ry="2.5" style="stroke:#181818;stroke-width:0.5;" width="229" x="1956.5" y="378.0137"/><ellipse cx="1985" cy="398.9746" fill="#ADD1B2" rx="11" ry="11" style="stroke:#181818;stroke-width:1.0;"/><path d="M1987.7656,394.8496 Q1987.9219,394.6309 1988.1094,394.5215 Q1988.2969,394.4121 1988.5156,394.4121 Q1988.8906,394.4121 1989.125,394.6777 Q1989.3594,394.9277 1989.3594,395.5371 L1989.3594,396.9902 Q1989.3594,397.5996 1989.125,397.8652 Q1988.8906,398.1309 1988.5156,398.1309 Q1988.1719,398.1309 1987.9688,397.9277 Q1987.7656,397.7402 1987.6563,397.2246 Q1987.6094,396.8652 1987.4219,396.6777 Q1987.0938,396.3027 1986.4844,396.084 Q1985.875,395.8652 1985.25,395.8652 Q1984.4844,395.8652 1983.8438,396.1934 Q1983.2188,396.5215 1982.7188,397.2715 Q1982.2344,398.0215 1982.2344,399.0527 L1982.2344,400.1465 Q1982.2344,401.3809 1983.125,402.209 Q1984.0156,403.0215 1985.6094,403.0215 Q1986.5469,403.0215 1987.2031,402.7715 Q1987.5938,402.6152 1988.0156,402.1777 Q1988.2813,401.9121 1988.4219,401.834 Q1988.5781,401.7559 1988.7813,401.7559 Q1989.1094,401.7559 1989.3594,402.0215 Q1989.625,402.2715 1989.625,402.6152 Q1989.625,402.959 1989.2813,403.3652 Q1988.7813,403.9434 1987.9844,404.2715 Q1986.9063,404.7246 1985.6094,404.7246 Q1984.0938,404.7246 1982.8906,404.0996 Q1981.9063,403.5996 1981.2188,402.5371 Q1980.5313,401.459 1980.5313,400.1777 L1980.5313,399.0215 Q1980.5313,397.6934 1981.1406,396.5527 Q1981.7656,395.3965 1982.8594,394.7871 Q1983.9531,394.1621 1985.1875,394.1621 Q1985.9219,394.1621 1986.5625,394.334 Q1987.2188,394.4902 1987.7656,394.8496 Z " fill="#000000"/><text fill="#000000" font-family="sans-serif" font-size="12" font-style="italic" lengthAdjust="spacing" textLength="55" x="2058" y="395.9629">&#171;Service&#187;</text><text fill="#000000" font-family="sans-serif" font-size="12" lengthAdjust="spacing" textLength="167" x="2002" y="411.9238">MaterialForecastResultService</text><line style="stroke:#181818;stroke-width:0.5;" x1="1957.5" x2="2184.5" y1="419.9355" y2="419.9355"/><text fill="#000000" font-family="sans-serif" font-size="14" lengthAdjust="spacing" text-decoration="underline" textLength="217" x="1962.5" y="439.043">-PREDICTIONS_PATH : Pathname</text><line style="stroke:#181818;stroke-width:1.0;" x1="1957.5" x2="2184.5" y1="446.5566" y2="446.5566"/><text fill="#000000" font-family="sans-serif" font-size="14" lengthAdjust="spacing" textLength="83" x="1962.5" y="465.6641">+call() : Hash</text><text fill="#000000" font-family="sans-serif" font-size="14" lengthAdjust="spacing" textLength="62" x="1962.5" y="506.9063">NotFound</text><line style="stroke:#181818;stroke-width:1.0;stroke-dasharray:1.0,2.0;" x1="1957.5" x2="2037.5" y1="482.4883" y2="482.4883"/><text fill="#000000" font-family="sans-serif" font-size="14" lengthAdjust="spacing" textLength="67" x="2037.5" y="487.7852">exceptions</text><line style="stroke:#181818;stroke-width:1.0;stroke-dasharray:1.0,2.0;" x1="2104.5" x2="2184.5" y1="482.4883" y2="482.4883"/></g><!--class PriceAnalysisJob--><g id="elem_PriceAnalysisJob"><rect codeLine="181" fill="#F1F1F1" height="151.0273" id="PriceAnalysisJob" rx="2.5" ry="2.5" style="stroke:#181818;stroke-width:0.5;" width="211" x="2648.5" y="82.5137"/><ellipse cx="2702.75" cy="103.4746" fill="#ADD1B2" rx="11" ry="11" style="stroke:#181818;stroke-width:1.0;"/><path d="M2705.5156,99.3496 Q2705.6719,99.1309 2705.8594,99.0215 Q2706.0469,98.9121 2706.2656,98.9121 Q2706.6406,98.9121 2706.875,99.1777 Q2707.1094,99.4277 2707.1094,100.0371 L2707.1094,101.4902 Q2707.1094,102.0996 2706.875,102.3652 Q2706.6406,102.6309 2706.2656,102.6309 Q2705.9219,102.6309 2705.7188,102.4277 Q2705.5156,102.2402 2705.4063,101.7246 Q2705.3594,101.3652 2705.1719,101.1777 Q2704.8438,100.8027 2704.2344,100.584 Q2703.625,100.3652 2703,100.3652 Q2702.2344,100.3652 2701.5938,100.6934 Q2700.9688,101.0215 2700.4688,101.7715 Q2699.9844,102.5215 2699.9844,103.5527 L2699.9844,104.6465 Q2699.9844,105.8809 2700.875,106.709 Q2701.7656,107.5215 2703.3594,107.5215 Q2704.2969,107.5215 2704.9531,107.2715 Q2705.3438,107.1152 2705.7656,106.6777 Q2706.0313,106.4121 2706.1719,106.334 Q2706.3281,106.2559 2706.5313,106.2559 Q2706.8594,106.2559 2707.1094,106.5215 Q2707.375,106.7715 2707.375,107.1152 Q2707.375,107.459 2707.0313,107.8652 Q2706.5313,108.4434 2705.7344,108.7715 Q2704.6563,109.2246 2703.3594,109.2246 Q2701.8438,109.2246 2700.6406,108.5996 Q2699.6563,108.0996 2698.9688,107.0371 Q2698.2813,105.959 2698.2813,104.6777 L2698.2813,103.5215 Q2698.2813,102.1934 2698.8906,101.0527 Q2699.5156,99.8965 2700.6094,99.2871 Q2701.7031,98.6621 2702.9375,98.6621 Q2703.6719,98.6621 2704.3125,98.834 Q2704.9688,98.9902 2705.5156,99.3496 Z " fill="#000000"/><text fill="#000000" font-family="sans-serif" font-size="12" font-style="italic" lengthAdjust="spacing" textLength="35" x="2752.75" y="100.4629">&#171;Job&#187;</text><text fill="#000000" font-family="sans-serif" font-size="12" lengthAdjust="spacing" textLength="94" x="2723.25" y="116.4238">PriceAnalysisJob</text><line style="stroke:#181818;stroke-width:0.5;" x1="2649.5" x2="2858.5" y1="124.4355" y2="124.4355"/><text fill="#000000" font-family="sans-serif" font-size="14" lengthAdjust="spacing" text-decoration="underline" textLength="181" x="2654.5" y="143.543">-VENV_PYTHON : Pathname</text><text fill="#000000" font-family="sans-serif" font-size="14" lengthAdjust="spacing" text-decoration="underline" textLength="179" x="2654.5" y="162.1641">-TRAIN_SCRIPT : Pathname</text><text fill="#000000" font-family="sans-serif" font-size="14" lengthAdjust="spacing" text-decoration="underline" textLength="199" x="2654.5" y="180.7852">-PREDICT_SCRIPT : Pathname</text><line style="stroke:#181818;stroke-width:1.0;" x1="2649.5" x2="2858.5" y1="188.2988" y2="188.2988"/><text fill="#000000" font-family="sans-serif" font-size="14" lengthAdjust="spacing" textLength="105" x="2654.5" y="207.4063">+perform() : void</text><text fill="#000000" font-family="sans-serif" font-size="14" lengthAdjust="spacing" textLength="150" x="2654.5" y="226.0273">-run_script(script) : void</text></g><!--class MaterialForecastJob--><g id="elem_MaterialForecastJob"><rect codeLine="190" fill="#F1F1F1" height="151.0273" id="MaterialForecastJob" rx="2.5" ry="2.5" style="stroke:#181818;stroke-width:0.5;" width="211" x="2402.5" y="82.5137"/><ellipse cx="2448.25" cy="103.4746" fill="#ADD1B2" rx="11" ry="11" style="stroke:#181818;stroke-width:1.0;"/><path d="M2451.0156,99.3496 Q2451.1719,99.1309 2451.3594,99.0215 Q2451.5469,98.9121 2451.7656,98.9121 Q2452.1406,98.9121 2452.375,99.1777 Q2452.6094,99.4277 2452.6094,100.0371 L2452.6094,101.4902 Q2452.6094,102.0996 2452.375,102.3652 Q2452.1406,102.6309 2451.7656,102.6309 Q2451.4219,102.6309 2451.2188,102.4277 Q2451.0156,102.2402 2450.9063,101.7246 Q2450.8594,101.3652 2450.6719,101.1777 Q2450.3438,100.8027 2449.7344,100.584 Q2449.125,100.3652 2448.5,100.3652 Q2447.7344,100.3652 2447.0938,100.6934 Q2446.4688,101.0215 2445.9688,101.7715 Q2445.4844,102.5215 2445.4844,103.5527 L2445.4844,104.6465 Q2445.4844,105.8809 2446.375,106.709 Q2447.2656,107.5215 2448.8594,107.5215 Q2449.7969,107.5215 2450.4531,107.2715 Q2450.8438,107.1152 2451.2656,106.6777 Q2451.5313,106.4121 2451.6719,106.334 Q2451.8281,106.2559 2452.0313,106.2559 Q2452.3594,106.2559 2452.6094,106.5215 Q2452.875,106.7715 2452.875,107.1152 Q2452.875,107.459 2452.5313,107.8652 Q2452.0313,108.4434 2451.2344,108.7715 Q2450.1563,109.2246 2448.8594,109.2246 Q2447.3438,109.2246 2446.1406,108.5996 Q2445.1563,108.0996 2444.4688,107.0371 Q2443.7813,105.959 2443.7813,104.6777 L2443.7813,103.5215 Q2443.7813,102.1934 2444.3906,101.0527 Q2445.0156,99.8965 2446.1094,99.2871 Q2447.2031,98.6621 2448.4375,98.6621 Q2449.1719,98.6621 2449.8125,98.834 Q2450.4688,98.9902 2451.0156,99.3496 Z " fill="#000000"/><text fill="#000000" font-family="sans-serif" font-size="12" font-style="italic" lengthAdjust="spacing" textLength="35" x="2506.75" y="100.4629">&#171;Job&#187;</text><text fill="#000000" font-family="sans-serif" font-size="12" lengthAdjust="spacing" textLength="111" x="2468.75" y="116.4238">MaterialForecastJob</text><line style="stroke:#181818;stroke-width:0.5;" x1="2403.5" x2="2612.5" y1="124.4355" y2="124.4355"/><text fill="#000000" font-family="sans-serif" font-size="14" lengthAdjust="spacing" text-decoration="underline" textLength="181" x="2408.5" y="143.543">-VENV_PYTHON : Pathname</text><text fill="#000000" font-family="sans-serif" font-size="14" lengthAdjust="spacing" text-decoration="underline" textLength="179" x="2408.5" y="162.1641">-TRAIN_SCRIPT : Pathname</text><text fill="#000000" font-family="sans-serif" font-size="14" lengthAdjust="spacing" text-decoration="underline" textLength="199" x="2408.5" y="180.7852">-PREDICT_SCRIPT : Pathname</text><line style="stroke:#181818;stroke-width:1.0;" x1="2403.5" x2="2612.5" y1="188.2988" y2="188.2988"/><text fill="#000000" font-family="sans-serif" font-size="14" lengthAdjust="spacing" textLength="105" x="2408.5" y="207.4063">+perform() : void</text><text fill="#000000" font-family="sans-serif" font-size="14" lengthAdjust="spacing" textLength="150" x="2408.5" y="226.0273">-run_script(script) : void</text></g><!--link SignInService to JwtService--><g id="link_SignInService_JwtService"><path codeLine="201" d="M1273,245.2037 C1273,281.7937 1273,318.2137 1273,354.6037 " fill="none" id="SignInService-to-JwtService" style="stroke:#181818;stroke-width:1.0;stroke-dasharray:7.0,7.0;"/><polygon fill="#181818" points="1273,360.6037,1277,351.6037,1273,355.6037,1269,351.6037,1273,360.6037" style="stroke:#181818;stroke-width:1.0;"/><text fill="#000000" font-family="sans-serif" font-size="13" lengthAdjust="spacing" textLength="93" x="1179" y="298.932">generates token</text></g><!--link CreateNoteService to ClientReliabilityService--><g id="link_CreateNoteService_ClientReliabilityService"><path codeLine="202" d="M716.67,273.2637 C716.67,321.2537 716.67,366.0137 716.67,366.0137 C716.67,366.0137 656.95,366.0137 588.67,366.0137 " fill="none" id="CreateNoteService-to-ClientReliabilityService" style="stroke:#181818;stroke-width:1.0;stroke-dasharray:7.0,7.0;"/><polygon fill="#181818" points="582.67,366.0137,591.67,370.0137,587.67,366.0137,591.67,362.0137,582.67,366.0137" style="stroke:#181818;stroke-width:1.0;"/><text fill="#000000" font-family="sans-serif" font-size="13" lengthAdjust="spacing" textLength="50" x="645.04" y="362.042">validates</text></g><!--link CreateNoteService to ConsumeMaterialsService--><g id="link_CreateNoteService_ConsumeMaterialsService"><path codeLine="203" d="M894.11,259.0137 C960.99,259.0137 1028,259.0137 1028,259.0137 C1028,259.0137 1028,327.8937 1028,382.8937 " fill="none" id="CreateNoteService-to-ConsumeMaterialsService" style="stroke:#181818;stroke-width:1.0;stroke-dasharray:7.0,7.0;"/><polygon fill="#181818" points="1028,388.8937,1032,379.8937,1028,383.8937,1024,379.8937,1028,388.8937" style="stroke:#181818;stroke-width:1.0;"/><text fill="#000000" font-family="sans-serif" font-size="13" lengthAdjust="spacing" textLength="27" x="997.99" y="255.042">calls</text></g><!--link CreateNoteService to DiscontService--><g id="link_CreateNoteService_DiscontService"><path codeLine="204" d="M805.33,273.0837 C805.33,305.8237 805.33,334.6537 805.33,364.4037 " fill="none" id="CreateNoteService-to-DiscontService" style="stroke:#181818;stroke-width:1.0;stroke-dasharray:7.0,7.0;"/><polygon fill="#181818" points="805.33,370.4037,809.33,361.4037,805.33,365.4037,801.33,361.4037,805.33,370.4037" style="stroke:#181818;stroke-width:1.0;"/><text fill="#000000" font-family="sans-serif" font-size="13" lengthAdjust="spacing" textLength="27" x="777.33" y="317.772">calls</text></g><!--link CancelNoteService to ReturnMaterialsService--><g id="link_CancelNoteService_ReturnMaterialsService"><path codeLine="205" d="M134,235.5737 C134,280.5537 134,330.6137 134,373.5637 " fill="none" id="CancelNoteService-to-ReturnMaterialsService" style="stroke:#181818;stroke-width:1.0;stroke-dasharray:7.0,7.0;"/><polygon fill="#181818" points="134,379.5637,138,370.5637,134,374.5637,130,370.5637,134,379.5637" style="stroke:#181818;stroke-width:1.0;"/><text fill="#000000" font-family="sans-serif" font-size="13" lengthAdjust="spacing" textLength="27" x="106" y="303.592">calls</text></g><!--link ConsumeMaterialsService to OperationsProvider--><g id="link_ConsumeMaterialsService_OperationsProvider"><path codeLine="206" d="M1028,503.0237 C1028,591.3037 1028,751.0137 1028,751.0137 C1028,751.0137 809,751.0137 678.27,751.0137 " fill="none" id="ConsumeMaterialsService-to-OperationsProvider" style="stroke:#181818;stroke-width:1.0;stroke-dasharray:7.0,7.0;"/><polygon fill="#181818" points="672.27,751.0137,681.27,755.0137,677.27,751.0137,681.27,747.0137,672.27,751.0137" style="stroke:#181818;stroke-width:1.0;"/><text fill="#000000" font-family="sans-serif" font-size="13" lengthAdjust="spacing" textLength="27" x="946.13" y="747.042">calls</text></g><!--link ReturnMaterialsService to OperationsProvider--><g id="link_ReturnMaterialsService_OperationsProvider"><path codeLine="207" d="M134,512.1937 C134,601.8937 134,751.0137 134,751.0137 C134,751.0137 353,751.0137 483.73,751.0137 " fill="none" id="ReturnMaterialsService-to-OperationsProvider" style="stroke:#181818;stroke-width:1.0;stroke-dasharray:7.0,7.0;"/><polygon fill="#181818" points="489.73,751.0137,480.73,747.0137,484.73,751.0137,480.73,755.0137,489.73,751.0137" style="stroke:#181818;stroke-width:1.0;"/><text fill="#000000" font-family="sans-serif" font-size="13" lengthAdjust="spacing" textLength="27" x="164.46" y="747.042">calls</text></g><!--link PriceAnalysisJob to PriceAnalysisService--><g id="link_PriceAnalysisJob_PriceAnalysisService"><path codeLine="209" d="M2828.25,233.6837 C2828.25,266.9337 2828.25,300.5037 2828.25,336.4337 " fill="none" id="PriceAnalysisJob-to-PriceAnalysisService" style="stroke:#181818;stroke-width:1.0;stroke-dasharray:7.0,7.0;"/><polygon fill="#181818" points="2828.25,342.4337,2832.25,333.4337,2828.25,337.4337,2824.25,333.4337,2828.25,342.4337" style="stroke:#181818;stroke-width:1.0;"/><text fill="#000000" font-family="sans-serif" font-size="13" lengthAdjust="spacing" textLength="27" x="2800.25" y="284.082">calls</text></g><!--link MaterialForecastJob to MaterialForecastService--><g id="link_MaterialForecastJob_MaterialForecastService"><path codeLine="210" d="M2439.75,233.6837 C2439.75,264.0137 2439.75,293.6137 2439.75,326.9037 " fill="none" id="MaterialForecastJob-to-MaterialForecastService" style="stroke:#181818;stroke-width:1.0;stroke-dasharray:7.0,7.0;"/><polygon fill="#181818" points="2439.75,332.9037,2443.75,323.9037,2439.75,327.9037,2435.75,323.9037,2439.75,332.9037" style="stroke:#181818;stroke-width:1.0;"/><text fill="#000000" font-family="sans-serif" font-size="13" lengthAdjust="spacing" textLength="27" x="2411.75" y="279.322">calls</text></g><!--SRC=[tLZVRzis47xtNw7cPMwN16cpzi58KYYsCYjpRCDIknKOGD0IQtEXIO6ad6P5_lSTALcsVjdfi1N3yX0xv7VaVTyTZyUeUyeJBF7AYHXMojLQqdcgYHy97j0_YNFMKMN8ZU3Qphn-ipELuEWUByXsygUTIKOvqOy9SOJKIz7fv63dA21oJIEYZfoldOwJhU_SFkXytBcuoBzTNG72WPyJvwlIMDFeoGcy_imBqI_U9wVd1E0tNrGXxkZdoSmFXtS5mhbqZeR1cxVlZghOWNVZVXY5oFjjwi_CaeDKmepWOFBwpJA3dzYF7xTMX4SY9jrNhsAiySko8pkmc5YO5lU46zGGgsKp1YdA2DTbw7l0FcqL2kY2-toVI6I5AQlAae3jWv1nPNp3YNAgAMOGlQurxnqN5hsNEIR2Z7MtD9tkxQzXDdTwwf0l4KcCOWh-ieC-NyE2SL-I63Z1ugfC12Qm9cEXoJuo4QDWZMmkgLtnJXmEfaqJ3PnAgm2t7TCwFUDIliLdocCa98gihoXRneBwzciEiqGDG196yPmogXzVMDXQq3W7pLFAOa0eaSfeitktb12DEcOxNJCHtPEu8g5O9OmS5j7GBH5haCXWQb8Kxk-BS00vd5Q3Ytb4s7_GBolcR1kcmxbN3NPnPgVUp9yCoiNY_7G5LN2fgjY-E-vxev4R-fCn2eSpBnXEHiRMvveiY3Hrvkn0-jPKk1Q24Smttbh9cVL4eKYaUQRcEvHr650LcNBzBS7PihdnPq681dxGdun313hqlN7uN3Bx0sfui2XbvZJ5cPCeaU2PXTqmWNNr372LhiWT64XJPFxDVDlPTaPqAlbtsTMi8H8YyyXg0KN4R6unaCfslEpT7LRWM10jIPoolKTmPP6mK6RIwc26gxdeIeaVBqm1kofxuAxX5i5pHWOWaVfc3vmOF-P9NCghyxC37XxlMFO0tkAnyUegtmekEUXM5WWCttTD6I-VhIPI0HFwRv6ocM0shpKqeJT5T_xuG-W59SRldiDOaruBqUokhWJdgCZRNkztFYboQoh5ciP47ZbOEVNXHgOuigKFkeB7rLomejrelPOBojRJpFmuDwXaFKuILhz8eIPyfd9L7xS5yCNpBmWtoazECH9Ap1KjHk78UboaY-L6BolZqquJUpTo6llOgIbPBiViKL7rh8xM7Ks7xgR4GTpFJi_ULZ7NNbY1d9UrRIeT2y9D80dARgPjRcn21KsBm34o9KWXqygMcv8j0bHN6gqfA9GTC5L5Hj2Gf6QhN2-0gJhgGLBJJAbrIsqjYJSZAcNFUnHCPzx0xvihDa1JDnp2ubEibnolI8jCEquH3hikqGFLIwIfPaHrWNTCROweicYDIGN9SWEYnDLAd2bn8oI9uBpk8V9F174kXAbbhO71wqKhPa4qiYU-TDNkMcj9U5oR9LyIUDiLCLVe3oLubK0EKXdf0-132L8LzVlaoE6exrQ6Mp7VKn9W5lo4tqq-VlJ67z7qKpYSZ6lkRL7XpFN7AEZF_6cu1vOJRWDkw4An_opagXe9cNAa8aaJtSq-dXUG_mSz8FY3StbvwGn80eaFptrAb1deb1_XfwTNk_-uw1MdLJds9T-fFtMDIUjRf5SyA5MRQKlJsxDfssPLQVeBSEsjPi0j3MvXrEA1CMte73PcBQiUiEhKpeunQBnZDoPD6McCskhnnkul]--></g></svg>