<?xml version="1.0" encoding="us-ascii" standalone="no"?><svg xmlns="http://www.w3.org/2000/svg" xmlns:xlink="http://www.w3.org/1999/xlink" contentStyleType="text/css" height="504px" preserveAspectRatio="none" style="width:3092px;height:504px;background:#FFFFFF;" version="1.1" viewBox="0 0 3092 504" width="3092px" zoomAndPan="magnify"><defs/><g><!--class ApplicationController--><g id="elem_ApplicationController"><rect codeLine="7" fill="#F1F1F1" height="85.2422" id="ApplicationController" rx="2.5" ry="2.5" style="stroke:#181818;stroke-width:0.5;" width="156" x="1535.5" y="10.7627"/><ellipse cx="1554.55" cy="26.7627" fill="#A9DCDF" rx="11" ry="11" style="stroke:#181818;stroke-width:1.0;"/><path d="M1556.7375,28.5283 L1552.5969,28.5283 L1552.175,29.5596 L1552.5969,29.5596 Q1553.2063,29.5596 1553.4719,29.7939 Q1553.7375,30.0283 1553.7375,30.4189 Q1553.7375,30.7939 1553.4719,31.0283 Q1553.2063,31.2627 1552.5969,31.2627 L1550.3,31.2627 Q1549.6906,31.2627 1549.4406,31.0283 Q1549.175,30.7939 1549.175,30.4033 Q1549.175,30.0283 1549.4563,29.7939 Q1549.7219,29.5439 1550.3469,29.5596 L1553.0188,22.9033 L1551.9094,22.9033 Q1551.3,22.9033 1551.0344,22.6689 Q1550.7688,22.4346 1550.7688,22.0439 Q1550.7688,21.6689 1551.0344,21.4346 Q1551.3,21.2002 1551.9094,21.2002 L1555.5813,21.2002 L1558.9719,29.5596 Q1559.5656,29.5596 1559.7531,29.7002 Q1560.1438,29.9658 1560.1438,30.4189 Q1560.1438,30.7939 1559.8781,31.0283 Q1559.6281,31.2627 1559.0188,31.2627 L1556.7219,31.2627 Q1556.1125,31.2627 1555.8469,31.0283 Q1555.5813,30.7939 1555.5813,30.4033 Q1555.5813,30.0283 1555.8469,29.7939 Q1556.1125,29.5596 1556.7219,29.5596 L1557.1438,29.5596 L1556.7375,28.5283 Z M1556.0188,26.8252 L1554.6594,23.4502 L1553.2844,26.8252 L1556.0188,26.8252 Z " fill="#000000"/><text fill="#000000" font-family="sans-serif" font-size="12" font-style="italic" lengthAdjust="spacing" textLength="115" x="1569.45" y="31.7314">ApplicationController</text><line style="stroke:#181818;stroke-width:0.5;" x1="1536.5" x2="1690.5" y1="42.7627" y2="42.7627"/><text fill="#000000" font-family="sans-serif" font-size="14" lengthAdjust="spacing" textLength="144" x="1541.5" y="61.8701">#@current_user : User</text><line style="stroke:#181818;stroke-width:1.0;" x1="1536.5" x2="1690.5" y1="69.3838" y2="69.3838"/><text fill="#000000" font-family="sans-serif" font-size="14" lengthAdjust="spacing" textLength="139" x="1541.5" y="88.4912">#authenticate!() : void</text></g><!--class AuthController--><g id="elem_AuthController"><rect codeLine="13" fill="#F1F1F1" height="113.1738" id="AuthController" rx="2.5" ry="2.5" style="stroke:#181818;stroke-width:0.5;" width="219" x="7" y="216.2627"/><ellipse cx="73.25" cy="232.2627" fill="#ADD1B2" rx="11" ry="11" style="stroke:#181818;stroke-width:1.0;"/><path d="M76.0156,228.1377 Q76.1719,227.9189 76.3594,227.8096 Q76.5469,227.7002 76.7656,227.7002 Q77.1406,227.7002 77.375,227.9658 Q77.6094,228.2158 77.6094,228.8252 L77.6094,230.2783 Q77.6094,230.8877 77.375,231.1533 Q77.1406,231.4189 76.7656,231.4189 Q76.4219,231.4189 76.2188,231.2158 Q76.0156,231.0283 75.9063,230.5127 Q75.8594,230.1533 75.6719,229.9658 Q75.3438,229.5908 74.7344,229.3721 Q74.125,229.1533 73.5,229.1533 Q72.7344,229.1533 72.0938,229.4814 Q71.4688,229.8096 70.9688,230.5596 Q70.4844,231.3096 70.4844,232.3408 L70.4844,233.4346 Q70.4844,234.6689 71.375,235.4971 Q72.2656,236.3096 73.8594,236.3096 Q74.7969,236.3096 75.4531,236.0596 Q75.8438,235.9033 76.2656,235.4658 Q76.5313,235.2002 76.6719,235.1221 Q76.8281,235.0439 77.0313,235.0439 Q77.3594,235.0439 77.6094,235.3096 Q77.875,235.5596 77.875,235.9033 Q77.875,236.2471 77.5313,236.6533 Q77.0313,237.2314 76.2344,237.5596 Q75.1563,238.0127 73.8594,238.0127 Q72.3438,238.0127 71.1406,237.3877 Q70.1563,236.8877 69.4688,235.8252 Q68.7813,234.7471 68.7813,233.4658 L68.7813,232.3096 Q68.7813,230.9814 69.3906,229.8408 Q70.0156,228.6846 71.1094,228.0752 Q72.2031,227.4502 73.4375,227.4502 Q74.1719,227.4502 74.8125,227.6221 Q75.4688,227.7783 76.0156,228.1377 Z " fill="#000000"/><text fill="#000000" font-family="sans-serif" font-size="12" lengthAdjust="spacing" textLength="78" x="93.75" y="237.2314">AuthController</text><line style="stroke:#181818;stroke-width:0.5;" x1="8" x2="225" y1="248.2627" y2="248.2627"/><line style="stroke:#181818;stroke-width:1.0;stroke-dasharray:1.0,2.0;" x1="8" x2="11" y1="265.5732" y2="265.5732"/><text fill="#000000" font-family="sans-serif" font-size="14" lengthAdjust="spacing" textLength="211" x="11" y="270.8701">skip_before_action: authenticate!</text><line style="stroke:#181818;stroke-width:1.0;stroke-dasharray:1.0,2.0;" x1="222" x2="225" y1="265.5732" y2="265.5732"/><line style="stroke:#181818;stroke-width:1.0;" x1="8" x2="225" y1="284.1943" y2="284.1943"/><text fill="#000000" font-family="sans-serif" font-size="14" lengthAdjust="spacing" textLength="110" x="13" y="303.3018">+sign_in() : JSON</text><text fill="#000000" font-family="sans-serif" font-size="14" lengthAdjust="spacing" textLength="159" x="13" y="321.9229">-sign_in_params() : Hash</text></g><!--class UsersController--><g id="elem_UsersController"><rect codeLine="20" fill="#F1F1F1" height="141.1055" id="UsersController" rx="2.5" ry="2.5" style="stroke:#181818;stroke-width:0.5;" width="149" x="261" y="202.2627"/><ellipse cx="289.05" cy="218.2627" fill="#ADD1B2" rx="11" ry="11" style="stroke:#181818;stroke-width:1.0;"/><path d="M291.8156,214.1377 Q291.9719,213.9189 292.1594,213.8096 Q292.3469,213.7002 292.5656,213.7002 Q292.9406,213.7002 293.175,213.9658 Q293.4094,214.2158 293.4094,214.8252 L293.4094,216.2783 Q293.4094,216.8877 293.175,217.1533 Q292.9406,217.4189 292.5656,217.4189 Q292.2219,217.4189 292.0188,217.2158 Q291.8156,217.0283 291.7063,216.5127 Q291.6594,216.1533 291.4719,215.9658 Q291.1438,215.5908 290.5344,215.3721 Q289.925,215.1533 289.3,215.1533 Q288.5344,215.1533 287.8938,215.4814 Q287.2688,215.8096 286.7688,216.5596 Q286.2844,217.3096 286.2844,218.3408 L286.2844,219.4346 Q286.2844,220.6689 287.175,221.4971 Q288.0656,222.3096 289.6594,222.3096 Q290.5969,222.3096 291.2531,222.0596 Q291.6438,221.9033 292.0656,221.4658 Q292.3313,221.2002 292.4719,221.1221 Q292.6281,221.0439 292.8313,221.0439 Q293.1594,221.0439 293.4094,221.3096 Q293.675,221.5596 293.675,221.9033 Q293.675,222.2471 293.3313,222.6533 Q292.8313,223.2314 292.0344,223.5596 Q290.9563,224.0127 289.6594,224.0127 Q288.1438,224.0127 286.9406,223.3877 Q285.9563,222.8877 285.2688,221.8252 Q284.5813,220.7471 284.5813,219.4658 L284.5813,218.3096 Q284.5813,216.9814 285.1906,215.8408 Q285.8156,214.6846 286.9094,214.0752 Q288.0031,213.4502 289.2375,213.4502 Q289.9719,213.4502 290.6125,213.6221 Q291.2688,213.7783 291.8156,214.1377 Z " fill="#000000"/><text fill="#000000" font-family="sans-serif" font-size="12" lengthAdjust="spacing" textLength="88" x="305.95" y="223.2314">UsersController</text><line style="stroke:#181818;stroke-width:0.5;" x1="262" x2="409" y1="234.2627" y2="234.2627"/><line style="stroke:#181818;stroke-width:1.0;" x1="262" x2="409" y1="242.2627" y2="242.2627"/><text fill="#000000" font-family="sans-serif" font-size="14" lengthAdjust="spacing" textLength="123" x="267" y="261.3701">+index() : JSON:API</text><text fill="#000000" font-family="sans-serif" font-size="14" lengthAdjust="spacing" textLength="122" x="267" y="279.9912">+show() : JSON:API</text><text fill="#000000" font-family="sans-serif" font-size="14" lengthAdjust="spacing" textLength="130" x="267" y="298.6123">+create() : JSON:API</text><text fill="#000000" font-family="sans-serif" font-size="14" lengthAdjust="spacing" textLength="134" x="267" y="317.2334">+update() : JSON:API</text><text fill="#000000" font-family="sans-serif" font-size="14" lengthAdjust="spacing" textLength="137" x="267" y="335.8545">+destroy() : JSON:API</text></g><!--class MastersController--><g id="elem_MastersController"><rect codeLine="29" fill="#F1F1F1" height="234.2109" id="MastersController" rx="2.5" ry="2.5" style="stroke:#181818;stroke-width:0.5;" width="283" x="445" y="155.7627"/><ellipse cx="533.25" cy="171.7627" fill="#ADD1B2" rx="11" ry="11" style="stroke:#181818;stroke-width:1.0;"/><path d="M536.0156,167.6377 Q536.1719,167.4189 536.3594,167.3096 Q536.5469,167.2002 536.7656,167.2002 Q537.1406,167.2002 537.375,167.4658 Q537.6094,167.7158 537.6094,168.3252 L537.6094,169.7783 Q537.6094,170.3877 537.375,170.6533 Q537.1406,170.9189 536.7656,170.9189 Q536.4219,170.9189 536.2188,170.7158 Q536.0156,170.5283 535.9063,170.0127 Q535.8594,169.6533 535.6719,169.4658 Q535.3438,169.0908 534.7344,168.8721 Q534.125,168.6533 533.5,168.6533 Q532.7344,168.6533 532.0938,168.9814 Q531.4688,169.3096 530.9688,170.0596 Q530.4844,170.8096 530.4844,171.8408 L530.4844,172.9346 Q530.4844,174.1689 531.375,174.9971 Q532.2656,175.8096 533.8594,175.8096 Q534.7969,175.8096 535.4531,175.5596 Q535.8438,175.4033 536.2656,174.9658 Q536.5313,174.7002 536.6719,174.6221 Q536.8281,174.5439 537.0313,174.5439 Q537.3594,174.5439 537.6094,174.8096 Q537.875,175.0596 537.875,175.4033 Q537.875,175.7471 537.5313,176.1533 Q537.0313,176.7314 536.2344,177.0596 Q535.1563,177.5127 533.8594,177.5127 Q532.3438,177.5127 531.1406,176.8877 Q530.1563,176.3877 529.4688,175.3252 Q528.7813,174.2471 528.7813,172.9658 L528.7813,171.8096 Q528.7813,170.4814 529.3906,169.3408 Q530.0156,168.1846 531.1094,167.5752 Q532.2031,166.9502 533.4375,166.9502 Q534.1719,166.9502 534.8125,167.1221 Q535.4688,167.2783 536.0156,167.6377 Z " fill="#000000"/><text fill="#000000" font-family="sans-serif" font-size="12" lengthAdjust="spacing" textLength="98" x="553.75" y="176.7314">MastersController</text><line style="stroke:#181818;stroke-width:0.5;" x1="446" x2="727" y1="187.7627" y2="187.7627"/><line style="stroke:#181818;stroke-width:1.0;stroke-dasharray:1.0,2.0;" x1="446" x2="481" y1="205.0732" y2="205.0732"/><text fill="#000000" font-family="sans-serif" font-size="14" lengthAdjust="spacing" textLength="211" x="481" y="210.3701">skip_before_action: authenticate!</text><line style="stroke:#181818;stroke-width:1.0;stroke-dasharray:1.0,2.0;" x1="692" x2="727" y1="205.0732" y2="205.0732"/><line style="stroke:#181818;stroke-width:1.0;stroke-dasharray:1.0,2.0;" x1="446" x2="449" y1="233.0049" y2="233.0049"/><text fill="#000000" font-family="sans-serif" font-size="14" lengthAdjust="spacing" textLength="275" x="449" y="238.3018">only: index, available_dates, available_slots</text><line style="stroke:#181818;stroke-width:1.0;stroke-dasharray:1.0,2.0;" x1="724" x2="727" y1="233.0049" y2="233.0049"/><line style="stroke:#181818;stroke-width:1.0;" x1="446" x2="727" y1="251.626" y2="251.626"/><text fill="#000000" font-family="sans-serif" font-size="14" lengthAdjust="spacing" textLength="123" x="451" y="270.7334">+index() : JSON:API</text><text fill="#000000" font-family="sans-serif" font-size="14" lengthAdjust="spacing" textLength="122" x="451" y="289.3545">+show() : JSON:API</text><text fill="#000000" font-family="sans-serif" font-size="14" lengthAdjust="spacing" textLength="130" x="451" y="307.9756">+create() : JSON:API</text><text fill="#000000" font-family="sans-serif" font-size="14" lengthAdjust="spacing" textLength="134" x="451" y="326.5967">+update() : JSON:API</text><text fill="#000000" font-family="sans-serif" font-size="14" lengthAdjust="spacing" textLength="137" x="451" y="345.2178">+destroy() : JSON:API</text><text fill="#000000" font-family="sans-serif" font-size="14" lengthAdjust="spacing" textLength="164" x="451" y="363.8389">+available_dates() : JSON</text><text fill="#000000" font-family="sans-serif" font-size="14" lengthAdjust="spacing" textLength="158" x="451" y="382.46">+available_slots() : JSON</text></g><!--class ServicesController--><g id="elem_ServicesController"><rect codeLine="42" fill="#F1F1F1" height="159.7266" id="ServicesController" rx="2.5" ry="2.5" style="stroke:#181818;stroke-width:0.5;" width="219" x="763" y="192.7627"/><ellipse cx="817.75" cy="208.7627" fill="#ADD1B2" rx="11" ry="11" style="stroke:#181818;stroke-width:1.0;"/><path d="M820.5156,204.6377 Q820.6719,204.4189 820.8594,204.3096 Q821.0469,204.2002 821.2656,204.2002 Q821.6406,204.2002 821.875,204.4658 Q822.1094,204.7158 822.1094,205.3252 L822.1094,206.7783 Q822.1094,207.3877 821.875,207.6533 Q821.6406,207.9189 821.2656,207.9189 Q820.9219,207.9189 820.7188,207.7158 Q820.5156,207.5283 820.4063,207.0127 Q820.3594,206.6533 820.1719,206.4658 Q819.8438,206.0908 819.2344,205.8721 Q818.625,205.6533 818,205.6533 Q817.2344,205.6533 816.5938,205.9814 Q815.9688,206.3096 815.4688,207.0596 Q814.9844,207.8096 814.9844,208.8408 L814.9844,209.9346 Q814.9844,211.1689 815.875,211.9971 Q816.7656,212.8096 818.3594,212.8096 Q819.2969,212.8096 819.9531,212.5596 Q820.3438,212.4033 820.7656,211.9658 Q821.0313,211.7002 821.1719,211.6221 Q821.3281,211.5439 821.5313,211.5439 Q821.8594,211.5439 822.1094,211.8096 Q822.375,212.0596 822.375,212.4033 Q822.375,212.7471 822.0313,213.1533 Q821.5313,213.7314 820.7344,214.0596 Q819.6563,214.5127 818.3594,214.5127 Q816.8438,214.5127 815.6406,213.8877 Q814.6563,213.3877 813.9688,212.3252 Q813.2813,211.2471 813.2813,209.9658 L813.2813,208.8096 Q813.2813,207.4814 813.8906,206.3408 Q814.5156,205.1846 815.6094,204.5752 Q816.7031,203.9502 817.9375,203.9502 Q818.6719,203.9502 819.3125,204.1221 Q819.9688,204.2783 820.5156,204.6377 Z " fill="#000000"/><text fill="#000000" font-family="sans-serif" font-size="12" lengthAdjust="spacing" textLength="101" x="838.25" y="213.7314">ServicesController</text><line style="stroke:#181818;stroke-width:0.5;" x1="764" x2="981" y1="224.7627" y2="224.7627"/><line style="stroke:#181818;stroke-width:1.0;stroke-dasharray:1.0,2.0;" x1="764" x2="767" y1="242.0732" y2="242.0732"/><text fill="#000000" font-family="sans-serif" font-size="14" lengthAdjust="spacing" textLength="211" x="767" y="247.3701">skip_before_action: authenticate!</text><line style="stroke:#181818;stroke-width:1.0;stroke-dasharray:1.0,2.0;" x1="978" x2="981" y1="242.0732" y2="242.0732"/><line style="stroke:#181818;stroke-width:1.0;stroke-dasharray:1.0,2.0;" x1="764" x2="839" y1="270.0049" y2="270.0049"/><text fill="#000000" font-family="sans-serif" font-size="14" lengthAdjust="spacing" textLength="67" x="839" y="275.3018">only: index</text><line style="stroke:#181818;stroke-width:1.0;stroke-dasharray:1.0,2.0;" x1="906" x2="981" y1="270.0049" y2="270.0049"/><line style="stroke:#181818;stroke-width:1.0;" x1="764" x2="981" y1="288.626" y2="288.626"/><text fill="#000000" font-family="sans-serif" font-size="14" lengthAdjust="spacing" textLength="123" x="769" y="307.7334">+index() : JSON:API</text><text fill="#000000" font-family="sans-serif" font-size="14" lengthAdjust="spacing" textLength="130" x="769" y="326.3545">+create() : JSON:API</text><text fill="#000000" font-family="sans-serif" font-size="14" lengthAdjust="spacing" textLength="134" x="769" y="344.9756">+update() : JSON:API</text></g><!--class ClientsController--><g id="elem_ClientsController"><rect codeLine="51" fill="#F1F1F1" height="141.1055" id="ClientsController" rx="2.5" ry="2.5" style="stroke:#181818;stroke-width:0.5;" width="149" x="1017" y="202.2627"/><ellipse cx="1042.8" cy="218.2627" fill="#ADD1B2" rx="11" ry="11" style="stroke:#181818;stroke-width:1.0;"/><path d="M1045.5656,214.1377 Q1045.7219,213.9189 1045.9094,213.8096 Q1046.0969,213.7002 1046.3156,213.7002 Q1046.6906,213.7002 1046.925,213.9658 Q1047.1594,214.2158 1047.1594,214.8252 L1047.1594,216.2783 Q1047.1594,216.8877 1046.925,217.1533 Q1046.6906,217.4189 1046.3156,217.4189 Q1045.9719,217.4189 1045.7688,217.2158 Q1045.5656,217.0283 1045.4563,216.5127 Q1045.4094,216.1533 1045.2219,215.9658 Q1044.8938,215.5908 1044.2844,215.3721 Q1043.675,215.1533 1043.05,215.1533 Q1042.2844,215.1533 1041.6438,215.4814 Q1041.0188,215.8096 1040.5188,216.5596 Q1040.0344,217.3096 1040.0344,218.3408 L1040.0344,219.4346 Q1040.0344,220.6689 1040.925,221.4971 Q1041.8156,222.3096 1043.4094,222.3096 Q1044.3469,222.3096 1045.0031,222.0596 Q1045.3938,221.9033 1045.8156,221.4658 Q1046.0813,221.2002 1046.2219,221.1221 Q1046.3781,221.0439 1046.5813,221.0439 Q1046.9094,221.0439 1047.1594,221.3096 Q1047.425,221.5596 1047.425,221.9033 Q1047.425,222.2471 1047.0813,222.6533 Q1046.5813,223.2314 1045.7844,223.5596 Q1044.7063,224.0127 1043.4094,224.0127 Q1041.8938,224.0127 1040.6906,223.3877 Q1039.7063,222.8877 1039.0188,221.8252 Q1038.3313,220.7471 1038.3313,219.4658 L1038.3313,218.3096 Q1038.3313,216.9814 1038.9406,215.8408 Q1039.5656,214.6846 1040.6594,214.0752 Q1041.7531,213.4502 1042.9875,213.4502 Q1043.7219,213.4502 1044.3625,213.6221 Q1045.0188,213.7783 1045.5656,214.1377 Z " fill="#000000"/><text fill="#000000" font-family="sans-serif" font-size="12" lengthAdjust="spacing" textLength="93" x="1059.2" y="223.2314">ClientsController</text><line style="stroke:#181818;stroke-width:0.5;" x1="1018" x2="1165" y1="234.2627" y2="234.2627"/><line style="stroke:#181818;stroke-width:1.0;" x1="1018" x2="1165" y1="242.2627" y2="242.2627"/><text fill="#000000" font-family="sans-serif" font-size="14" lengthAdjust="spacing" textLength="123" x="1023" y="261.3701">+index() : JSON:API</text><text fill="#000000" font-family="sans-serif" font-size="14" lengthAdjust="spacing" textLength="122" x="1023" y="279.9912">+show() : JSON:API</text><text fill="#000000" font-family="sans-serif" font-size="14" lengthAdjust="spacing" textLength="130" x="1023" y="298.6123">+create() : JSON:API</text><text fill="#000000" font-family="sans-serif" font-size="14" lengthAdjust="spacing" textLength="134" x="1023" y="317.2334">+update() : JSON:API</text><text fill="#000000" font-family="sans-serif" font-size="14" lengthAdjust="spacing" textLength="137" x="1023" y="335.8545">+destroy() : JSON:API</text></g><!--class MaterialsController--><g id="elem_MaterialsController"><rect codeLine="60" fill="#F1F1F1" height="141.1055" id="MaterialsController" rx="2.5" ry="2.5" style="stroke:#181818;stroke-width:0.5;" width="149" x="1201" y="202.2627"/><ellipse cx="1221.85" cy="218.2627" fill="#ADD1B2" rx="11" ry="11" style="stroke:#181818;stroke-width:1.0;"/><path d="M1224.6156,214.1377 Q1224.7719,213.9189 1224.9594,213.8096 Q1225.1469,213.7002 1225.3656,213.7002 Q1225.7406,213.7002 1225.975,213.9658 Q1226.2094,214.2158 1226.2094,214.8252 L1226.2094,216.2783 Q1226.2094,216.8877 1225.975,217.1533 Q1225.7406,217.4189 1225.3656,217.4189 Q1225.0219,217.4189 1224.8188,217.2158 Q1224.6156,217.0283 1224.5063,216.5127 Q1224.4594,216.1533 1224.2719,215.9658 Q1223.9438,215.5908 1223.3344,215.3721 Q1222.725,215.1533 1222.1,215.1533 Q1221.3344,215.1533 1220.6938,215.4814 Q1220.0688,215.8096 1219.5688,216.5596 Q1219.0844,217.3096 1219.0844,218.3408 L1219.0844,219.4346 Q1219.0844,220.6689 1219.975,221.4971 Q1220.8656,222.3096 1222.4594,222.3096 Q1223.3969,222.3096 1224.0531,222.0596 Q1224.4438,221.9033 1224.8656,221.4658 Q1225.1313,221.2002 1225.2719,221.1221 Q1225.4281,221.0439 1225.6313,221.0439 Q1225.9594,221.0439 1226.2094,221.3096 Q1226.475,221.5596 1226.475,221.9033 Q1226.475,222.2471 1226.1313,222.6533 Q1225.6313,223.2314 1224.8344,223.5596 Q1223.7563,224.0127 1222.4594,224.0127 Q1220.9438,224.0127 1219.7406,223.3877 Q1218.7563,222.8877 1218.0688,221.8252 Q1217.3813,220.7471 1217.3813,219.4658 L1217.3813,218.3096 Q1217.3813,216.9814 1217.9906,215.8408 Q1218.6156,214.6846 1219.7094,214.0752 Q1220.8031,213.4502 1222.0375,213.4502 Q1222.7719,213.4502 1223.4125,213.6221 Q1224.0688,213.7783 1224.6156,214.1377 Z " fill="#000000"/><text fill="#000000" font-family="sans-serif" font-size="12" lengthAdjust="spacing" textLength="104" x="1237.15" y="223.2314">MaterialsController</text><line style="stroke:#181818;stroke-width:0.5;" x1="1202" x2="1349" y1="234.2627" y2="234.2627"/><line style="stroke:#181818;stroke-width:1.0;" x1="1202" x2="1349" y1="242.2627" y2="242.2627"/><text fill="#000000" font-family="sans-serif" font-size="14" lengthAdjust="spacing" textLength="123" x="1207" y="261.3701">+index() : JSON:API</text><text fill="#000000" font-family="sans-serif" font-size="14" lengthAdjust="spacing" textLength="122" x="1207" y="279.9912">+show() : JSON:API</text><text fill="#000000" font-family="sans-serif" font-size="14" lengthAdjust="spacing" textLength="130" x="1207" y="298.6123">+create() : JSON:API</text><text fill="#000000" font-family="sans-serif" font-size="14" lengthAdjust="spacing" textLength="134" x="1207" y="317.2334">+update() : JSON:API</text><text fill="#000000" font-family="sans-serif" font-size="14" lengthAdjust="spacing" textLength="137" x="1207" y="335.8545">+destroy() : JSON:API</text></g><!--class NotesController--><g id="elem_NotesController"><rect codeLine="69" fill="#F1F1F1" height="215.5898" id="NotesController" rx="2.5" ry="2.5" style="stroke:#181818;stroke-width:0.5;" width="219" x="1385" y="164.7627"/><ellipse cx="1446.75" cy="180.7627" fill="#ADD1B2" rx="11" ry="11" style="stroke:#181818;stroke-width:1.0;"/><path d="M1449.5156,176.6377 Q1449.6719,176.4189 1449.8594,176.3096 Q1450.0469,176.2002 1450.2656,176.2002 Q1450.6406,176.2002 1450.875,176.4658 Q1451.1094,176.7158 1451.1094,177.3252 L1451.1094,178.7783 Q1451.1094,179.3877 1450.875,179.6533 Q1450.6406,179.9189 1450.2656,179.9189 Q1449.9219,179.9189 1449.7188,179.7158 Q1449.5156,179.5283 1449.4063,179.0127 Q1449.3594,178.6533 1449.1719,178.4658 Q1448.8438,178.0908 1448.2344,177.8721 Q1447.625,177.6533 1447,177.6533 Q1446.2344,177.6533 1445.5938,177.9814 Q1444.9688,178.3096 1444.4688,179.0596 Q1443.9844,179.8096 1443.9844,180.8408 L1443.9844,181.9346 Q1443.9844,183.1689 1444.875,183.9971 Q1445.7656,184.8096 1447.3594,184.8096 Q1448.2969,184.8096 1448.9531,184.5596 Q1449.3438,184.4033 1449.7656,183.9658 Q1450.0313,183.7002 1450.1719,183.6221 Q1450.3281,183.5439 1450.5313,183.5439 Q1450.8594,183.5439 1451.1094,183.8096 Q1451.375,184.0596 1451.375,184.4033 Q1451.375,184.7471 1451.0313,185.1533 Q1450.5313,185.7314 1449.7344,186.0596 Q1448.6563,186.5127 1447.3594,186.5127 Q1445.8438,186.5127 1444.6406,185.8877 Q1443.6563,185.3877 1442.9688,184.3252 Q1442.2813,183.2471 1442.2813,181.9658 L1442.2813,180.8096 Q1442.2813,179.4814 1442.8906,178.3408 Q1443.5156,177.1846 1444.6094,176.5752 Q1445.7031,175.9502 1446.9375,175.9502 Q1447.6719,175.9502 1448.3125,176.1221 Q1448.9688,176.2783 1449.5156,176.6377 Z " fill="#000000"/><text fill="#000000" font-family="sans-serif" font-size="12" lengthAdjust="spacing" textLength="87" x="1467.25" y="185.7314">NotesController</text><line style="stroke:#181818;stroke-width:0.5;" x1="1386" x2="1603" y1="196.7627" y2="196.7627"/><line style="stroke:#181818;stroke-width:1.0;stroke-dasharray:1.0,2.0;" x1="1386" x2="1389" y1="214.0732" y2="214.0732"/><text fill="#000000" font-family="sans-serif" font-size="14" lengthAdjust="spacing" textLength="211" x="1389" y="219.3701">skip_before_action: authenticate!</text><line style="stroke:#181818;stroke-width:1.0;stroke-dasharray:1.0,2.0;" x1="1600" x2="1603" y1="214.0732" y2="214.0732"/><line style="stroke:#181818;stroke-width:1.0;stroke-dasharray:1.0,2.0;" x1="1386" x2="1457.5" y1="242.0049" y2="242.0049"/><text fill="#000000" font-family="sans-serif" font-size="14" lengthAdjust="spacing" textLength="74" x="1457.5" y="247.3018">only: create</text><line style="stroke:#181818;stroke-width:1.0;stroke-dasharray:1.0,2.0;" x1="1531.5" x2="1603" y1="242.0049" y2="242.0049"/><line style="stroke:#181818;stroke-width:1.0;" x1="1386" x2="1603" y1="260.626" y2="260.626"/><text fill="#000000" font-family="sans-serif" font-size="14" lengthAdjust="spacing" textLength="123" x="1391" y="279.7334">+index() : JSON:API</text><text fill="#000000" font-family="sans-serif" font-size="14" lengthAdjust="spacing" textLength="130" x="1391" y="298.3545">+create() : JSON:API</text><text fill="#000000" font-family="sans-serif" font-size="14" lengthAdjust="spacing" textLength="122" x="1391" y="316.9756">+complete() : JSON</text><text fill="#000000" font-family="sans-serif" font-size="14" lengthAdjust="spacing" textLength="106" x="1391" y="335.5967">+cancel() : JSON</text><text fill="#000000" font-family="sans-serif" font-size="14" lengthAdjust="spacing" textLength="147" x="1391" y="354.2178">-client_params() : Hash</text><text fill="#000000" font-family="sans-serif" font-size="14" lengthAdjust="spacing" textLength="142" x="1391" y="372.8389">-note_params() : Hash</text></g><!--class MatOpsController--><g id="elem_MatOpsController"><rect codeLine="81" fill="#F1F1F1" height="113.7852" id="MatOpsController" rx="2.5" ry="2.5" style="stroke:#181818;stroke-width:0.5;" width="186" x="1639.5" y="215.7627"/><ellipse cx="1672.05" cy="236.7236" fill="#ADD1B2" rx="11" ry="11" style="stroke:#181818;stroke-width:1.0;"/><path d="M1674.8156,232.5986 Q1674.9719,232.3799 1675.1594,232.2705 Q1675.3469,232.1611 1675.5656,232.1611 Q1675.9406,232.1611 1676.175,232.4268 Q1676.4094,232.6768 1676.4094,233.2861 L1676.4094,234.7393 Q1676.4094,235.3486 1676.175,235.6143 Q1675.9406,235.8799 1675.5656,235.8799 Q1675.2219,235.8799 1675.0188,235.6768 Q1674.8156,235.4893 1674.7063,234.9736 Q1674.6594,234.6143 1674.4719,234.4268 Q1674.1438,234.0518 1673.5344,233.833 Q1672.925,233.6143 1672.3,233.6143 Q1671.5344,233.6143 1670.8938,233.9424 Q1670.2688,234.2705 1669.7688,235.0205 Q1669.2844,235.7705 1669.2844,236.8018 L1669.2844,237.8955 Q1669.2844,239.1299 1670.175,239.958 Q1671.0656,240.7705 1672.6594,240.7705 Q1673.5969,240.7705 1674.2531,240.5205 Q1674.6438,240.3643 1675.0656,239.9268 Q1675.3313,239.6611 1675.4719,239.583 Q1675.6281,239.5049 1675.8313,239.5049 Q1676.1594,239.5049 1676.4094,239.7705 Q1676.675,240.0205 1676.675,240.3643 Q1676.675,240.708 1676.3313,241.1143 Q1675.8313,241.6924 1675.0344,242.0205 Q1673.9563,242.4736 1672.6594,242.4736 Q1671.1438,242.4736 1669.9406,241.8486 Q1668.9563,241.3486 1668.2688,240.2861 Q1667.5813,239.208 1667.5813,237.9268 L1667.5813,236.7705 Q1667.5813,235.4424 1668.1906,234.3018 Q1668.8156,233.1455 1669.9094,232.5361 Q1671.0031,231.9111 1672.2375,231.9111 Q1672.9719,231.9111 1673.6125,232.083 Q1674.2688,232.2393 1674.8156,232.5986 Z " fill="#000000"/><text fill="#000000" font-family="sans-serif" font-size="12" lengthAdjust="spacing" textLength="56" x="1719.45" y="233.7119">Materials::</text><text fill="#000000" font-family="sans-serif" font-size="12" lengthAdjust="spacing" textLength="115" x="1689.95" y="249.6729">OperationsController</text><line style="stroke:#181818;stroke-width:0.5;" x1="1640.5" x2="1824.5" y1="257.6846" y2="257.6846"/><line style="stroke:#181818;stroke-width:1.0;" x1="1640.5" x2="1824.5" y1="265.6846" y2="265.6846"/><text fill="#000000" font-family="sans-serif" font-size="14" lengthAdjust="spacing" textLength="89" x="1645.5" y="284.792">+add() : JSON</text><text fill="#000000" font-family="sans-serif" font-size="14" lengthAdjust="spacing" textLength="116" x="1645.5" y="303.4131">+subtract() : JSON</text><text fill="#000000" font-family="sans-serif" font-size="14" lengthAdjust="spacing" textLength="174" x="1645.5" y="322.0342">-operation_params() : Hash</text></g><!--class ServiceMaterialsController--><g id="elem_ServiceMaterialsController"><rect codeLine="88" fill="#F1F1F1" height="122.4844" id="ServiceMaterialsController" rx="2.5" ry="2.5" style="stroke:#181818;stroke-width:0.5;" width="176" x="1860.5" y="211.7627"/><ellipse cx="1875.5" cy="227.7627" fill="#ADD1B2" rx="11" ry="11" style="stroke:#181818;stroke-width:1.0;"/><path d="M1878.2656,223.6377 Q1878.4219,223.4189 1878.6094,223.3096 Q1878.7969,223.2002 1879.0156,223.2002 Q1879.3906,223.2002 1879.625,223.4658 Q1879.8594,223.7158 1879.8594,224.3252 L1879.8594,225.7783 Q1879.8594,226.3877 1879.625,226.6533 Q1879.3906,226.9189 1879.0156,226.9189 Q1878.6719,226.9189 1878.4688,226.7158 Q1878.2656,226.5283 1878.1563,226.0127 Q1878.1094,225.6533 1877.9219,225.4658 Q1877.5938,225.0908 1876.9844,224.8721 Q1876.375,224.6533 1875.75,224.6533 Q1874.9844,224.6533 1874.3438,224.9814 Q1873.7188,225.3096 1873.2188,226.0596 Q1872.7344,226.8096 1872.7344,227.8408 L1872.7344,228.9346 Q1872.7344,230.1689 1873.625,230.9971 Q1874.5156,231.8096 1876.1094,231.8096 Q1877.0469,231.8096 1877.7031,231.5596 Q1878.0938,231.4033 1878.5156,230.9658 Q1878.7813,230.7002 1878.9219,230.6221 Q1879.0781,230.5439 1879.2813,230.5439 Q1879.6094,230.5439 1879.8594,230.8096 Q1880.125,231.0596 1880.125,231.4033 Q1880.125,231.7471 1879.7813,232.1533 Q1879.2813,232.7314 1878.4844,233.0596 Q1877.4063,233.5127 1876.1094,233.5127 Q1874.5938,233.5127 1873.3906,232.8877 Q1872.4063,232.3877 1871.7188,231.3252 Q1871.0313,230.2471 1871.0313,228.9658 L1871.0313,227.8096 Q1871.0313,226.4814 1871.6406,225.3408 Q1872.2656,224.1846 1873.3594,223.5752 Q1874.4531,222.9502 1875.6875,222.9502 Q1876.4219,222.9502 1877.0625,223.1221 Q1877.7188,223.2783 1878.2656,223.6377 Z " fill="#000000"/><text fill="#000000" font-family="sans-serif" font-size="12" lengthAdjust="spacing" textLength="144" x="1889.5" y="232.7314">ServiceMaterialsController</text><line style="stroke:#181818;stroke-width:0.5;" x1="1861.5" x2="2035.5" y1="243.7627" y2="243.7627"/><line style="stroke:#181818;stroke-width:1.0;" x1="1861.5" x2="2035.5" y1="251.7627" y2="251.7627"/><text fill="#000000" font-family="sans-serif" font-size="14" lengthAdjust="spacing" textLength="123" x="1866.5" y="270.8701">+index() : JSON:API</text><text fill="#000000" font-family="sans-serif" font-size="14" lengthAdjust="spacing" textLength="130" x="1866.5" y="289.4912">+create() : JSON:API</text><text fill="#000000" font-family="sans-serif" font-size="14" lengthAdjust="spacing" textLength="134" x="1866.5" y="308.1123">+update() : JSON:API</text><text fill="#000000" font-family="sans-serif" font-size="14" lengthAdjust="spacing" textLength="137" x="1866.5" y="326.7334">+destroy() : JSON:API</text></g><!--class ServiceMastersController--><g id="elem_ServiceMastersController"><rect codeLine="96" fill="#F1F1F1" height="103.8633" id="ServiceMastersController" rx="2.5" ry="2.5" style="stroke:#181818;stroke-width:0.5;" width="170" x="2071.5" y="220.7627"/><ellipse cx="2086.5" cy="236.7627" fill="#ADD1B2" rx="11" ry="11" style="stroke:#181818;stroke-width:1.0;"/><path d="M2089.2656,232.6377 Q2089.4219,232.4189 2089.6094,232.3096 Q2089.7969,232.2002 2090.0156,232.2002 Q2090.3906,232.2002 2090.625,232.4658 Q2090.8594,232.7158 2090.8594,233.3252 L2090.8594,234.7783 Q2090.8594,235.3877 2090.625,235.6533 Q2090.3906,235.9189 2090.0156,235.9189 Q2089.6719,235.9189 2089.4688,235.7158 Q2089.2656,235.5283 2089.1563,235.0127 Q2089.1094,234.6533 2088.9219,234.4658 Q2088.5938,234.0908 2087.9844,233.8721 Q2087.375,233.6533 2086.75,233.6533 Q2085.9844,233.6533 2085.3438,233.9814 Q2084.7188,234.3096 2084.2188,235.0596 Q2083.7344,235.8096 2083.7344,236.8408 L2083.7344,237.9346 Q2083.7344,239.1689 2084.625,239.9971 Q2085.5156,240.8096 2087.1094,240.8096 Q2088.0469,240.8096 2088.7031,240.5596 Q2089.0938,240.4033 2089.5156,239.9658 Q2089.7813,239.7002 2089.9219,239.6221 Q2090.0781,239.5439 2090.2813,239.5439 Q2090.6094,239.5439 2090.8594,239.8096 Q2091.125,240.0596 2091.125,240.4033 Q2091.125,240.7471 2090.7813,241.1533 Q2090.2813,241.7314 2089.4844,242.0596 Q2088.4063,242.5127 2087.1094,242.5127 Q2085.5938,242.5127 2084.3906,241.8877 Q2083.4063,241.3877 2082.7188,240.3252 Q2082.0313,239.2471 2082.0313,237.9658 L2082.0313,236.8096 Q2082.0313,235.4814 2082.6406,234.3408 Q2083.2656,233.1846 2084.3594,232.5752 Q2085.4531,231.9502 2086.6875,231.9502 Q2087.4219,231.9502 2088.0625,232.1221 Q2088.7188,232.2783 2089.2656,232.6377 Z " fill="#000000"/><text fill="#000000" font-family="sans-serif" font-size="12" lengthAdjust="spacing" textLength="138" x="2100.5" y="241.7314">ServiceMastersController</text><line style="stroke:#181818;stroke-width:0.5;" x1="2072.5" x2="2240.5" y1="252.7627" y2="252.7627"/><line style="stroke:#181818;stroke-width:1.0;" x1="2072.5" x2="2240.5" y1="260.7627" y2="260.7627"/><text fill="#000000" font-family="sans-serif" font-size="14" lengthAdjust="spacing" textLength="123" x="2077.5" y="279.8701">+index() : JSON:API</text><text fill="#000000" font-family="sans-serif" font-size="14" lengthAdjust="spacing" textLength="130" x="2077.5" y="298.4912">+create() : JSON:API</text><text fill="#000000" font-family="sans-serif" font-size="14" lengthAdjust="spacing" textLength="137" x="2077.5" y="317.1123">+destroy() : JSON:API</text></g><!--class SchedulesController--><g id="elem_SchedulesController"><rect codeLine="103" fill="#F1F1F1" height="151.0273" id="SchedulesController" rx="2.5" ry="2.5" style="stroke:#181818;stroke-width:0.5;" width="183" x="2277" y="197.2627"/><ellipse cx="2309.1" cy="218.2236" fill="#ADD1B2" rx="11" ry="11" style="stroke:#181818;stroke-width:1.0;"/><path d="M2311.8656,214.0986 Q2312.0219,213.8799 2312.2094,213.7705 Q2312.3969,213.6611 2312.6156,213.6611 Q2312.9906,213.6611 2313.225,213.9268 Q2313.4594,214.1768 2313.4594,214.7861 L2313.4594,216.2393 Q2313.4594,216.8486 2313.225,217.1143 Q2312.9906,217.3799 2312.6156,217.3799 Q2312.2719,217.3799 2312.0688,217.1768 Q2311.8656,216.9893 2311.7563,216.4736 Q2311.7094,216.1143 2311.5219,215.9268 Q2311.1938,215.5518 2310.5844,215.333 Q2309.975,215.1143 2309.35,215.1143 Q2308.5844,215.1143 2307.9438,215.4424 Q2307.3188,215.7705 2306.8188,216.5205 Q2306.3344,217.2705 2306.3344,218.3018 L2306.3344,219.3955 Q2306.3344,220.6299 2307.225,221.458 Q2308.1156,222.2705 2309.7094,222.2705 Q2310.6469,222.2705 2311.3031,222.0205 Q2311.6938,221.8643 2312.1156,221.4268 Q2312.3813,221.1611 2312.5219,221.083 Q2312.6781,221.0049 2312.8813,221.0049 Q2313.2094,221.0049 2313.4594,221.2705 Q2313.725,221.5205 2313.725,221.8643 Q2313.725,222.208 2313.3813,222.6143 Q2312.8813,223.1924 2312.0844,223.5205 Q2311.0063,223.9736 2309.7094,223.9736 Q2308.1938,223.9736 2306.9906,223.3486 Q2306.0063,222.8486 2305.3188,221.7861 Q2304.6313,220.708 2304.6313,219.4268 L2304.6313,218.2705 Q2304.6313,216.9424 2305.2406,215.8018 Q2305.8656,214.6455 2306.9594,214.0361 Q2308.0531,213.4111 2309.2875,213.4111 Q2310.0219,213.4111 2310.6625,213.583 Q2311.3188,213.7393 2311.8656,214.0986 Z " fill="#000000"/><text fill="#000000" font-family="sans-serif" font-size="12" lengthAdjust="spacing" textLength="50" x="2358.4" y="215.2119">Masters::</text><text fill="#000000" font-family="sans-serif" font-size="12" lengthAdjust="spacing" textLength="113" x="2326.9" y="231.1729">SchedulesController</text><line style="stroke:#181818;stroke-width:0.5;" x1="2278" x2="2459" y1="239.1846" y2="239.1846"/><line style="stroke:#181818;stroke-width:1.0;" x1="2278" x2="2459" y1="247.1846" y2="247.1846"/><text fill="#000000" font-family="sans-serif" font-size="14" lengthAdjust="spacing" textLength="98" x="2283" y="266.292">+index() : JSON</text><text fill="#000000" font-family="sans-serif" font-size="14" lengthAdjust="spacing" textLength="105" x="2283" y="284.9131">+create() : JSON</text><text fill="#000000" font-family="sans-serif" font-size="14" lengthAdjust="spacing" textLength="101" x="2283" y="303.5342">+destroy() : 204</text><text fill="#000000" font-family="sans-serif" font-size="14" lengthAdjust="spacing" textLength="123" x="2283" y="322.1553">-set_master() : void</text><text fill="#000000" font-family="sans-serif" font-size="14" lengthAdjust="spacing" textLength="171" x="2283" y="340.7764">-schedule_params() : Hash</text></g><!--class PriceAnalysisController--><g id="elem_PriceAnalysisController"><rect codeLine="112" fill="#F1F1F1" height="85.2422" id="PriceAnalysisController" rx="2.5" ry="2.5" style="stroke:#181818;stroke-width:0.5;" width="160" x="2495.5" y="230.2627"/><ellipse cx="2510.5" cy="246.2627" fill="#ADD1B2" rx="11" ry="11" style="stroke:#181818;stroke-width:1.0;"/><path d="M2513.2656,242.1377 Q2513.4219,241.9189 2513.6094,241.8096 Q2513.7969,241.7002 2514.0156,241.7002 Q2514.3906,241.7002 2514.625,241.9658 Q2514.8594,242.2158 2514.8594,242.8252 L2514.8594,244.2783 Q2514.8594,244.8877 2514.625,245.1533 Q2514.3906,245.4189 2514.0156,245.4189 Q2513.6719,245.4189 2513.4688,245.2158 Q2513.2656,245.0283 2513.1563,244.5127 Q2513.1094,244.1533 2512.9219,243.9658 Q2512.5938,243.5908 2511.9844,243.3721 Q2511.375,243.1533 2510.75,243.1533 Q2509.9844,243.1533 2509.3438,243.4814 Q2508.7188,243.8096 2508.2188,244.5596 Q2507.7344,245.3096 2507.7344,246.3408 L2507.7344,247.4346 Q2507.7344,248.6689 2508.625,249.4971 Q2509.5156,250.3096 2511.1094,250.3096 Q2512.0469,250.3096 2512.7031,250.0596 Q2513.0938,249.9033 2513.5156,249.4658 Q2513.7813,249.2002 2513.9219,249.1221 Q2514.0781,249.0439 2514.2813,249.0439 Q2514.6094,249.0439 2514.8594,249.3096 Q2515.125,249.5596 2515.125,249.9033 Q2515.125,250.2471 2514.7813,250.6533 Q2514.2813,251.2314 2513.4844,251.5596 Q2512.4063,252.0127 2511.1094,252.0127 Q2509.5938,252.0127 2508.3906,251.3877 Q2507.4063,250.8877 2506.7188,249.8252 Q2506.0313,248.7471 2506.0313,247.4658 L2506.0313,246.3096 Q2506.0313,244.9814 2506.6406,243.8408 Q2507.2656,242.6846 2508.3594,242.0752 Q2509.4531,241.4502 2510.6875,241.4502 Q2511.4219,241.4502 2512.0625,241.6221 Q2512.7188,241.7783 2513.2656,242.1377 Z " fill="#000000"/><text fill="#000000" font-family="sans-serif" font-size="12" lengthAdjust="spacing" textLength="128" x="2524.5" y="251.2314">PriceAnalysisController</text><line style="stroke:#181818;stroke-width:0.5;" x1="2496.5" x2="2654.5" y1="262.2627" y2="262.2627"/><line style="stroke:#181818;stroke-width:1.0;" x1="2496.5" x2="2654.5" y1="270.2627" y2="270.2627"/><text fill="#000000" font-family="sans-serif" font-size="14" lengthAdjust="spacing" textLength="105" x="2501.5" y="289.3701">+create() : JSON</text><text fill="#000000" font-family="sans-serif" font-size="14" lengthAdjust="spacing" textLength="97" x="2501.5" y="307.9912">+show() : JSON</text></g><!--class MaterialForecastController--><g id="elem_MaterialForecastController"><rect codeLine="118" fill="#F1F1F1" height="85.2422" id="MaterialForecastController" rx="2.5" ry="2.5" style="stroke:#181818;stroke-width:0.5;" width="177" x="2691" y="230.2627"/><ellipse cx="2706" cy="246.2627" fill="#ADD1B2" rx="11" ry="11" style="stroke:#181818;stroke-width:1.0;"/><path d="M2708.7656,242.1377 Q2708.9219,241.9189 2709.1094,241.8096 Q2709.2969,241.7002 2709.5156,241.7002 Q2709.8906,241.7002 2710.125,241.9658 Q2710.3594,242.2158 2710.3594,242.8252 L2710.3594,244.2783 Q2710.3594,244.8877 2710.125,245.1533 Q2709.8906,245.4189 2709.5156,245.4189 Q2709.1719,245.4189 2708.9688,245.2158 Q2708.7656,245.0283 2708.6563,244.5127 Q2708.6094,244.1533 2708.4219,243.9658 Q2708.0938,243.5908 2707.4844,243.3721 Q2706.875,243.1533 2706.25,243.1533 Q2705.4844,243.1533 2704.8438,243.4814 Q2704.2188,243.8096 2703.7188,244.5596 Q2703.2344,245.3096 2703.2344,246.3408 L2703.2344,247.4346 Q2703.2344,248.6689 2704.125,249.4971 Q2705.0156,250.3096 2706.6094,250.3096 Q2707.5469,250.3096 2708.2031,250.0596 Q2708.5938,249.9033 2709.0156,249.4658 Q2709.2813,249.2002 2709.4219,249.1221 Q2709.5781,249.0439 2709.7813,249.0439 Q2710.1094,249.0439 2710.3594,249.3096 Q2710.625,249.5596 2710.625,249.9033 Q2710.625,250.2471 2710.2813,250.6533 Q2709.7813,251.2314 2708.9844,251.5596 Q2707.9063,252.0127 2706.6094,252.0127 Q2705.0938,252.0127 2703.8906,251.3877 Q2702.9063,250.8877 2702.2188,249.8252 Q2701.5313,248.7471 2701.5313,247.4658 L2701.5313,246.3096 Q2701.5313,244.9814 2702.1406,243.8408 Q2702.7656,242.6846 2703.8594,242.0752 Q2704.9531,241.4502 2706.1875,241.4502 Q2706.9219,241.4502 2707.5625,241.6221 Q2708.2188,241.7783 2708.7656,242.1377 Z " fill="#000000"/><text fill="#000000" font-family="sans-serif" font-size="12" lengthAdjust="spacing" textLength="145" x="2720" y="251.2314">MaterialForecastController</text><line style="stroke:#181818;stroke-width:0.5;" x1="2692" x2="2867" y1="262.2627" y2="262.2627"/><line style="stroke:#181818;stroke-width:1.0;" x1="2692" x2="2867" y1="270.2627" y2="270.2627"/><text fill="#000000" font-family="sans-serif" font-size="14" lengthAdjust="spacing" textLength="105" x="2697" y="289.3701">+create() : JSON</text><text fill="#000000" font-family="sans-serif" font-size="14" lengthAdjust="spacing" textLength="97" x="2697" y="307.9912">+show() : JSON</text></g><!--class JwtService--><g id="elem_JwtService"><rect fill="#F1F1F1" height="48" id="JwtService" rx="2.5" ry="2.5" style="stroke:#181818;stroke-width:0.5;" width="90" x="2903.5" y="248.7627"/><ellipse cx="2918.5" cy="264.7627" fill="#ADD1B2" rx="11" ry="11" style="stroke:#181818;stroke-width:1.0;"/><path d="M2921.2656,260.6377 Q2921.4219,260.4189 2921.6094,260.3096 Q2921.7969,260.2002 2922.0156,260.2002 Q2922.3906,260.2002 2922.625,260.4658 Q2922.8594,260.7158 2922.8594,261.3252 L2922.8594,262.7783 Q2922.8594,263.3877 2922.625,263.6533 Q2922.3906,263.9189 2922.0156,263.9189 Q2921.6719,263.9189 2921.4688,263.7158 Q2921.2656,263.5283 2921.1563,263.0127 Q2921.1094,262.6533 2920.9219,262.4658 Q2920.5938,262.0908 2919.9844,261.8721 Q2919.375,261.6533 2918.75,261.6533 Q2917.9844,261.6533 2917.3438,261.9814 Q2916.7188,262.3096 2916.2188,263.0596 Q2915.7344,263.8096 2915.7344,264.8408 L2915.7344,265.9346 Q2915.7344,267.1689 2916.625,267.9971 Q2917.5156,268.8096 2919.1094,268.8096 Q2920.0469,268.8096 2920.7031,268.5596 Q2921.0938,268.4033 2921.5156,267.9658 Q2921.7813,267.7002 2921.9219,267.6221 Q2922.0781,267.5439 2922.2813,267.5439 Q2922.6094,267.5439 2922.8594,267.8096 Q2923.125,268.0596 2923.125,268.4033 Q2923.125,268.7471 2922.7813,269.1533 Q2922.2813,269.7314 2921.4844,270.0596 Q2920.4063,270.5127 2919.1094,270.5127 Q2917.5938,270.5127 2916.3906,269.8877 Q2915.4063,269.3877 2914.7188,268.3252 Q2914.0313,267.2471 2914.0313,265.9658 L2914.0313,264.8096 Q2914.0313,263.4814 2914.6406,262.3408 Q2915.2656,261.1846 2916.3594,260.5752 Q2917.4531,259.9502 2918.6875,259.9502 Q2919.4219,259.9502 2920.0625,260.1221 Q2920.7188,260.2783 2921.2656,260.6377 Z " fill="#000000"/><text fill="#000000" font-family="sans-serif" font-size="12" lengthAdjust="spacing" textLength="58" x="2932.5" y="269.7314">JwtService</text><line style="stroke:#181818;stroke-width:0.5;" x1="2904.5" x2="2992.5" y1="280.7627" y2="280.7627"/><line style="stroke:#181818;stroke-width:0.5;" x1="2904.5" x2="2992.5" y1="288.7627" y2="288.7627"/></g><!--class SignInService--><g id="elem_SignInService"><rect fill="#F1F1F1" height="48" id="SignInService" rx="2.5" ry="2.5" style="stroke:#181818;stroke-width:0.5;" width="107" x="63" y="449.7627"/><ellipse cx="78" cy="465.7627" fill="#ADD1B2" rx="11" ry="11" style="stroke:#181818;stroke-width:1.0;"/><path d="M80.7656,461.6377 Q80.9219,461.4189 81.1094,461.3096 Q81.2969,461.2002 81.5156,461.2002 Q81.8906,461.2002 82.125,461.4658 Q82.3594,461.7158 82.3594,462.3252 L82.3594,463.7783 Q82.3594,464.3877 82.125,464.6533 Q81.8906,464.9189 81.5156,464.9189 Q81.1719,464.9189 80.9688,464.7158 Q80.7656,464.5283 80.6563,464.0127 Q80.6094,463.6533 80.4219,463.4658 Q80.0938,463.0908 79.4844,462.8721 Q78.875,462.6533 78.25,462.6533 Q77.4844,462.6533 76.8438,462.9814 Q76.2188,463.3096 75.7188,464.0596 Q75.2344,464.8096 75.2344,465.8408 L75.2344,466.9346 Q75.2344,468.1689 76.125,468.9971 Q77.0156,469.8096 78.6094,469.8096 Q79.5469,469.8096 80.2031,469.5596 Q80.5938,469.4033 81.0156,468.9658 Q81.2813,468.7002 81.4219,468.6221 Q81.5781,468.5439 81.7813,468.5439 Q82.1094,468.5439 82.3594,468.8096 Q82.625,469.0596 82.625,469.4033 Q82.625,469.7471 82.2813,470.1533 Q81.7813,470.7314 80.9844,471.0596 Q79.9063,471.5127 78.6094,471.5127 Q77.0938,471.5127 75.8906,470.8877 Q74.9063,470.3877 74.2188,469.3252 Q73.5313,468.2471 73.5313,466.9658 L73.5313,465.8096 Q73.5313,464.4814 74.1406,463.3408 Q74.7656,462.1846 75.8594,461.5752 Q76.9531,460.9502 78.1875,460.9502 Q78.9219,460.9502 79.5625,461.1221 Q80.2188,461.2783 80.7656,461.6377 Z " fill="#000000"/><text fill="#000000" font-family="sans-serif" font-size="12" lengthAdjust="spacing" textLength="75" x="92" y="470.7314">SignInService</text><line style="stroke:#181818;stroke-width:0.5;" x1="64" x2="169" y1="481.7627" y2="481.7627"/><line style="stroke:#181818;stroke-width:0.5;" x1="64" x2="169" y1="489.7627" y2="489.7627"/></g><!--class AvailableDatesService--><g id="elem_AvailableDatesService"><rect fill="#F1F1F1" height="48" id="AvailableDatesService" rx="2.5" ry="2.5" style="stroke:#181818;stroke-width:0.5;" width="154" x="415.5" y="449.7627"/><ellipse cx="430.5" cy="465.7627" fill="#ADD1B2" rx="11" ry="11" style="stroke:#181818;stroke-width:1.0;"/><path d="M433.2656,461.6377 Q433.4219,461.4189 433.6094,461.3096 Q433.7969,461.2002 434.0156,461.2002 Q434.3906,461.2002 434.625,461.4658 Q434.8594,461.7158 434.8594,462.3252 L434.8594,463.7783 Q434.8594,464.3877 434.625,464.6533 Q434.3906,464.9189 434.0156,464.9189 Q433.6719,464.9189 433.4688,464.7158 Q433.2656,464.5283 433.1563,464.0127 Q433.1094,463.6533 432.9219,463.4658 Q432.5938,463.0908 431.9844,462.8721 Q431.375,462.6533 430.75,462.6533 Q429.9844,462.6533 429.3438,462.9814 Q428.7188,463.3096 428.2188,464.0596 Q427.7344,464.8096 427.7344,465.8408 L427.7344,466.9346 Q427.7344,468.1689 428.625,468.9971 Q429.5156,469.8096 431.1094,469.8096 Q432.0469,469.8096 432.7031,469.5596 Q433.0938,469.4033 433.5156,468.9658 Q433.7813,468.7002 433.9219,468.6221 Q434.0781,468.5439 434.2813,468.5439 Q434.6094,468.5439 434.8594,468.8096 Q435.125,469.0596 435.125,469.4033 Q435.125,469.7471 434.7813,470.1533 Q434.2813,470.7314 433.4844,471.0596 Q432.4063,471.5127 431.1094,471.5127 Q429.5938,471.5127 428.3906,470.8877 Q427.4063,470.3877 426.7188,469.3252 Q426.0313,468.2471 426.0313,466.9658 L426.0313,465.8096 Q426.0313,464.4814 426.6406,463.3408 Q427.2656,462.1846 428.3594,461.5752 Q429.4531,460.9502 430.6875,460.9502 Q431.4219,460.9502 432.0625,461.1221 Q432.7188,461.2783 433.2656,461.6377 Z " fill="#000000"/><text fill="#000000" font-family="sans-serif" font-size="12" lengthAdjust="spacing" textLength="122" x="444.5" y="470.7314">AvailableDatesService</text><line style="stroke:#181818;stroke-width:0.5;" x1="416.5" x2="568.5" y1="481.7627" y2="481.7627"/><line style="stroke:#181818;stroke-width:0.5;" x1="416.5" x2="568.5" y1="489.7627" y2="489.7627"/></g><!--class AvailableSlotsService--><g id="elem_AvailableSlotsService"><rect fill="#F1F1F1" height="48" id="AvailableSlotsService" rx="2.5" ry="2.5" style="stroke:#181818;stroke-width:0.5;" width="149" x="605" y="449.7627"/><ellipse cx="620" cy="465.7627" fill="#ADD1B2" rx="11" ry="11" style="stroke:#181818;stroke-width:1.0;"/><path d="M622.7656,461.6377 Q622.9219,461.4189 623.1094,461.3096 Q623.2969,461.2002 623.5156,461.2002 Q623.8906,461.2002 624.125,461.4658 Q624.3594,461.7158 624.3594,462.3252 L624.3594,463.7783 Q624.3594,464.3877 624.125,464.6533 Q623.8906,464.9189 623.5156,464.9189 Q623.1719,464.9189 622.9688,464.7158 Q622.7656,464.5283 622.6563,464.0127 Q622.6094,463.6533 622.4219,463.4658 Q622.0938,463.0908 621.4844,462.8721 Q620.875,462.6533 620.25,462.6533 Q619.4844,462.6533 618.8438,462.9814 Q618.2188,463.3096 617.7188,464.0596 Q617.2344,464.8096 617.2344,465.8408 L617.2344,466.9346 Q617.2344,468.1689 618.125,468.9971 Q619.0156,469.8096 620.6094,469.8096 Q621.5469,469.8096 622.2031,469.5596 Q622.5938,469.4033 623.0156,468.9658 Q623.2813,468.7002 623.4219,468.6221 Q623.5781,468.5439 623.7813,468.5439 Q624.1094,468.5439 624.3594,468.8096 Q624.625,469.0596 624.625,469.4033 Q624.625,469.7471 624.2813,470.1533 Q623.7813,470.7314 622.9844,471.0596 Q621.9063,471.5127 620.6094,471.5127 Q619.0938,471.5127 617.8906,470.8877 Q616.9063,470.3877 616.2188,469.3252 Q615.5313,468.2471 615.5313,466.9658 L615.5313,465.8096 Q615.5313,464.4814 616.1406,463.3408 Q616.7656,462.1846 617.8594,461.5752 Q618.9531,460.9502 620.1875,460.9502 Q620.9219,460.9502 621.5625,461.1221 Q622.2188,461.2783 622.7656,461.6377 Z " fill="#000000"/><text fill="#000000" font-family="sans-serif" font-size="12" lengthAdjust="spacing" textLength="117" x="634" y="470.7314">AvailableSlotsService</text><line style="stroke:#181818;stroke-width:0.5;" x1="606" x2="753" y1="481.7627" y2="481.7627"/><line style="stroke:#181818;stroke-width:0.5;" x1="606" x2="753" y1="489.7627" y2="489.7627"/></g><!--class CreateNoteService--><g id="elem_CreateNoteService"><rect fill="#F1F1F1" height="48" id="CreateNoteService" rx="2.5" ry="2.5" style="stroke:#181818;stroke-width:0.5;" width="135" x="1190" y="449.7627"/><ellipse cx="1205" cy="465.7627" fill="#ADD1B2" rx="11" ry="11" style="stroke:#181818;stroke-width:1.0;"/><path d="M1207.7656,461.6377 Q1207.9219,461.4189 1208.1094,461.3096 Q1208.2969,461.2002 1208.5156,461.2002 Q1208.8906,461.2002 1209.125,461.4658 Q1209.3594,461.7158 1209.3594,462.3252 L1209.3594,463.7783 Q1209.3594,464.3877 1209.125,464.6533 Q1208.8906,464.9189 1208.5156,464.9189 Q1208.1719,464.9189 1207.9688,464.7158 Q1207.7656,464.5283 1207.6563,464.0127 Q1207.6094,463.6533 1207.4219,463.4658 Q1207.0938,463.0908 1206.4844,462.8721 Q1205.875,462.6533 1205.25,462.6533 Q1204.4844,462.6533 1203.8438,462.9814 Q1203.2188,463.3096 1202.7188,464.0596 Q1202.2344,464.8096 1202.2344,465.8408 L1202.2344,466.9346 Q1202.2344,468.1689 1203.125,468.9971 Q1204.0156,469.8096 1205.6094,469.8096 Q1206.5469,469.8096 1207.2031,469.5596 Q1207.5938,469.4033 1208.0156,468.9658 Q1208.2813,468.7002 1208.4219,468.6221 Q1208.5781,468.5439 1208.7813,468.5439 Q1209.1094,468.5439 1209.3594,468.8096 Q1209.625,469.0596 1209.625,469.4033 Q1209.625,469.7471 1209.2813,470.1533 Q1208.7813,470.7314 1207.9844,471.0596 Q1206.9063,471.5127 1205.6094,471.5127 Q1204.0938,471.5127 1202.8906,470.8877 Q1201.9063,470.3877 1201.2188,469.3252 Q1200.5313,468.2471 1200.5313,466.9658 L1200.5313,465.8096 Q1200.5313,464.4814 1201.1406,463.3408 Q1201.7656,462.1846 1202.8594,461.5752 Q1203.9531,460.9502 1205.1875,460.9502 Q1205.9219,460.9502 1206.5625,461.1221 Q1207.2188,461.2783 1207.7656,461.6377 Z " fill="#000000"/><text fill="#000000" font-family="sans-serif" font-size="12" lengthAdjust="spacing" textLength="103" x="1219" y="470.7314">CreateNoteService</text><line style="stroke:#181818;stroke-width:0.5;" x1="1191" x2="1324" y1="481.7627" y2="481.7627"/><line style="stroke:#181818;stroke-width:0.5;" x1="1191" x2="1324" y1="489.7627" y2="489.7627"/></g><!--class CompleteNoteService--><g id="elem_CompleteNoteService"><rect fill="#F1F1F1" height="48" id="CompleteNoteService" rx="2.5" ry="2.5" style="stroke:#181818;stroke-width:0.5;" width="152" x="1360.5" y="449.7627"/><ellipse cx="1375.5" cy="465.7627" fill="#ADD1B2" rx="11" ry="11" style="stroke:#181818;stroke-width:1.0;"/><path d="M1378.2656,461.6377 Q1378.4219,461.4189 1378.6094,461.3096 Q1378.7969,461.2002 1379.0156,461.2002 Q1379.3906,461.2002 1379.625,461.4658 Q1379.8594,461.7158 1379.8594,462.3252 L1379.8594,463.7783 Q1379.8594,464.3877 1379.625,464.6533 Q1379.3906,464.9189 1379.0156,464.9189 Q1378.6719,464.9189 1378.4688,464.7158 Q1378.2656,464.5283 1378.1563,464.0127 Q1378.1094,463.6533 1377.9219,463.4658 Q1377.5938,463.0908 1376.9844,462.8721 Q1376.375,462.6533 1375.75,462.6533 Q1374.9844,462.6533 1374.3438,462.9814 Q1373.7188,463.3096 1373.2188,464.0596 Q1372.7344,464.8096 1372.7344,465.8408 L1372.7344,466.9346 Q1372.7344,468.1689 1373.625,468.9971 Q1374.5156,469.8096 1376.1094,469.8096 Q1377.0469,469.8096 1377.7031,469.5596 Q1378.0938,469.4033 1378.5156,468.9658 Q1378.7813,468.7002 1378.9219,468.6221 Q1379.0781,468.5439 1379.2813,468.5439 Q1379.6094,468.5439 1379.8594,468.8096 Q1380.125,469.0596 1380.125,469.4033 Q1380.125,469.7471 1379.7813,470.1533 Q1379.2813,470.7314 1378.4844,471.0596 Q1377.4063,471.5127 1376.1094,471.5127 Q1374.5938,471.5127 1373.3906,470.8877 Q1372.4063,470.3877 1371.7188,469.3252 Q1371.0313,468.2471 1371.0313,466.9658 L1371.0313,465.8096 Q1371.0313,464.4814 1371.6406,463.3408 Q1372.2656,462.1846 1373.3594,461.5752 Q1374.4531,460.9502 1375.6875,460.9502 Q1376.4219,460.9502 1377.0625,461.1221 Q1377.7188,461.2783 1378.2656,461.6377 Z " fill="#000000"/><text fill="#000000" font-family="sans-serif" font-size="12" lengthAdjust="spacing" textLength="120" x="1389.5" y="470.7314">CompleteNoteService</text><line style="stroke:#181818;stroke-width:0.5;" x1="1361.5" x2="1511.5" y1="481.7627" y2="481.7627"/><line style="stroke:#181818;stroke-width:0.5;" x1="1361.5" x2="1511.5" y1="489.7627" y2="489.7627"/></g><!--class CancelNoteService--><g id="elem_CancelNoteService"><rect fill="#F1F1F1" height="48" id="CancelNoteService" rx="2.5" ry="2.5" style="stroke:#181818;stroke-width:0.5;" width="137" x="1548" y="449.7627"/><ellipse cx="1563" cy="465.7627" fill="#ADD1B2" rx="11" ry="11" style="stroke:#181818;stroke-width:1.0;"/><path d="M1565.7656,461.6377 Q1565.9219,461.4189 1566.1094,461.3096 Q1566.2969,461.2002 1566.5156,461.2002 Q1566.8906,461.2002 1567.125,461.4658 Q1567.3594,461.7158 1567.3594,462.3252 L1567.3594,463.7783 Q1567.3594,464.3877 1567.125,464.6533 Q1566.8906,464.9189 1566.5156,464.9189 Q1566.1719,464.9189 1565.9688,464.7158 Q1565.7656,464.5283 1565.6563,464.0127 Q1565.6094,463.6533 1565.4219,463.4658 Q1565.0938,463.0908 1564.4844,462.8721 Q1563.875,462.6533 1563.25,462.6533 Q1562.4844,462.6533 1561.8438,462.9814 Q1561.2188,463.3096 1560.7188,464.0596 Q1560.2344,464.8096 1560.2344,465.8408 L1560.2344,466.9346 Q1560.2344,468.1689 1561.125,468.9971 Q1562.0156,469.8096 1563.6094,469.8096 Q1564.5469,469.8096 1565.2031,469.5596 Q1565.5938,469.4033 1566.0156,468.9658 Q1566.2813,468.7002 1566.4219,468.6221 Q1566.5781,468.5439 1566.7813,468.5439 Q1567.1094,468.5439 1567.3594,468.8096 Q1567.625,469.0596 1567.625,469.4033 Q1567.625,469.7471 1567.2813,470.1533 Q1566.7813,470.7314 1565.9844,471.0596 Q1564.9063,471.5127 1563.6094,471.5127 Q1562.0938,471.5127 1560.8906,470.8877 Q1559.9063,470.3877 1559.2188,469.3252 Q1558.5313,468.2471 1558.5313,466.9658 L1558.5313,465.8096 Q1558.5313,464.4814 1559.1406,463.3408 Q1559.7656,462.1846 1560.8594,461.5752 Q1561.9531,460.9502 1563.1875,460.9502 Q1563.9219,460.9502 1564.5625,461.1221 Q1565.2188,461.2783 1565.7656,461.6377 Z " fill="#000000"/><text fill="#000000" font-family="sans-serif" font-size="12" lengthAdjust="spacing" textLength="105" x="1577" y="470.7314">CancelNoteService</text><line style="stroke:#181818;stroke-width:0.5;" x1="1549" x2="1684" y1="481.7627" y2="481.7627"/><line style="stroke:#181818;stroke-width:0.5;" x1="1549" x2="1684" y1="489.7627" y2="489.7627"/></g><!--class OperationsProvider--><g id="elem_OperationsProvider"><rect fill="#F1F1F1" height="48" id="OperationsProvider" rx="2.5" ry="2.5" style="stroke:#181818;stroke-width:0.5;" width="138" x="1720.5" y="449.7627"/><ellipse cx="1735.5" cy="465.7627" fill="#ADD1B2" rx="11" ry="11" style="stroke:#181818;stroke-width:1.0;"/><path d="M1738.2656,461.6377 Q1738.4219,461.4189 1738.6094,461.3096 Q1738.7969,461.2002 1739.0156,461.2002 Q1739.3906,461.2002 1739.625,461.4658 Q1739.8594,461.7158 1739.8594,462.3252 L1739.8594,463.7783 Q1739.8594,464.3877 1739.625,464.6533 Q1739.3906,464.9189 1739.0156,464.9189 Q1738.6719,464.9189 1738.4688,464.7158 Q1738.2656,464.5283 1738.1563,464.0127 Q1738.1094,463.6533 1737.9219,463.4658 Q1737.5938,463.0908 1736.9844,462.8721 Q1736.375,462.6533 1735.75,462.6533 Q1734.9844,462.6533 1734.3438,462.9814 Q1733.7188,463.3096 1733.2188,464.0596 Q1732.7344,464.8096 1732.7344,465.8408 L1732.7344,466.9346 Q1732.7344,468.1689 1733.625,468.9971 Q1734.5156,469.8096 1736.1094,469.8096 Q1737.0469,469.8096 1737.7031,469.5596 Q1738.0938,469.4033 1738.5156,468.9658 Q1738.7813,468.7002 1738.9219,468.6221 Q1739.0781,468.5439 1739.2813,468.5439 Q1739.6094,468.5439 1739.8594,468.8096 Q1740.125,469.0596 1740.125,469.4033 Q1740.125,469.7471 1739.7813,470.1533 Q1739.2813,470.7314 1738.4844,471.0596 Q1737.4063,471.5127 1736.1094,471.5127 Q1734.5938,471.5127 1733.3906,470.8877 Q1732.4063,470.3877 1731.7188,469.3252 Q1731.0313,468.2471 1731.0313,466.9658 L1731.0313,465.8096 Q1731.0313,464.4814 1731.6406,463.3408 Q1732.2656,462.1846 1733.3594,461.5752 Q1734.4531,460.9502 1735.6875,460.9502 Q1736.4219,460.9502 1737.0625,461.1221 Q1737.7188,461.2783 1738.2656,461.6377 Z " fill="#000000"/><text fill="#000000" font-family="sans-serif" font-size="12" lengthAdjust="spacing" textLength="106" x="1749.5" y="470.7314">OperationsProvider</text><line style="stroke:#181818;stroke-width:0.5;" x1="1721.5" x2="1857.5" y1="481.7627" y2="481.7627"/><line style="stroke:#181818;stroke-width:0.5;" x1="1721.5" x2="1857.5" y1="489.7627" y2="489.7627"/></g><!--class MasterScheduleService--><g id="elem_MasterScheduleService"><rect fill="#F1F1F1" height="48" id="MasterScheduleService" rx="2.5" ry="2.5" style="stroke:#181818;stroke-width:0.5;" width="161" x="2133" y="449.7627"/><ellipse cx="2148" cy="465.7627" fill="#ADD1B2" rx="11" ry="11" style="stroke:#181818;stroke-width:1.0;"/><path d="M2150.7656,461.6377 Q2150.9219,461.4189 2151.1094,461.3096 Q2151.2969,461.2002 2151.5156,461.2002 Q2151.8906,461.2002 2152.125,461.4658 Q2152.3594,461.7158 2152.3594,462.3252 L2152.3594,463.7783 Q2152.3594,464.3877 2152.125,464.6533 Q2151.8906,464.9189 2151.5156,464.9189 Q2151.1719,464.9189 2150.9688,464.7158 Q2150.7656,464.5283 2150.6563,464.0127 Q2150.6094,463.6533 2150.4219,463.4658 Q2150.0938,463.0908 2149.4844,462.8721 Q2148.875,462.6533 2148.25,462.6533 Q2147.4844,462.6533 2146.8438,462.9814 Q2146.2188,463.3096 2145.7188,464.0596 Q2145.2344,464.8096 2145.2344,465.8408 L2145.2344,466.9346 Q2145.2344,468.1689 2146.125,468.9971 Q2147.0156,469.8096 2148.6094,469.8096 Q2149.5469,469.8096 2150.2031,469.5596 Q2150.5938,469.4033 2151.0156,468.9658 Q2151.2813,468.7002 2151.4219,468.6221 Q2151.5781,468.5439 2151.7813,468.5439 Q2152.1094,468.5439 2152.3594,468.8096 Q2152.625,469.0596 2152.625,469.4033 Q2152.625,469.7471 2152.2813,470.1533 Q2151.7813,470.7314 2150.9844,471.0596 Q2149.9063,471.5127 2148.6094,471.5127 Q2147.0938,471.5127 2145.8906,470.8877 Q2144.9063,470.3877 2144.2188,469.3252 Q2143.5313,468.2471 2143.5313,466.9658 L2143.5313,465.8096 Q2143.5313,464.4814 2144.1406,463.3408 Q2144.7656,462.1846 2145.8594,461.5752 Q2146.9531,460.9502 2148.1875,460.9502 Q2148.9219,460.9502 2149.5625,461.1221 Q2150.2188,461.2783 2150.7656,461.6377 Z " fill="#000000"/><text fill="#000000" font-family="sans-serif" font-size="12" lengthAdjust="spacing" textLength="129" x="2162" y="470.7314">MasterScheduleService</text><line style="stroke:#181818;stroke-width:0.5;" x1="2134" x2="2293" y1="481.7627" y2="481.7627"/><line style="stroke:#181818;stroke-width:0.5;" x1="2134" x2="2293" y1="489.7627" y2="489.7627"/></g><!--class PriceAnalysisJob--><g id="elem_PriceAnalysisJob"><rect fill="#F1F1F1" height="48" id="PriceAnalysisJob" rx="2.5" ry="2.5" style="stroke:#181818;stroke-width:0.5;" width="126" x="2329.5" y="449.7627"/><ellipse cx="2344.5" cy="465.7627" fill="#ADD1B2" rx="11" ry="11" style="stroke:#181818;stroke-width:1.0;"/><path d="M2347.2656,461.6377 Q2347.4219,461.4189 2347.6094,461.3096 Q2347.7969,461.2002 2348.0156,461.2002 Q2348.3906,461.2002 2348.625,461.4658 Q2348.8594,461.7158 2348.8594,462.3252 L2348.8594,463.7783 Q2348.8594,464.3877 2348.625,464.6533 Q2348.3906,464.9189 2348.0156,464.9189 Q2347.6719,464.9189 2347.4688,464.7158 Q2347.2656,464.5283 2347.1563,464.0127 Q2347.1094,463.6533 2346.9219,463.4658 Q2346.5938,463.0908 2345.9844,462.8721 Q2345.375,462.6533 2344.75,462.6533 Q2343.9844,462.6533 2343.3438,462.9814 Q2342.7188,463.3096 2342.2188,464.0596 Q2341.7344,464.8096 2341.7344,465.8408 L2341.7344,466.9346 Q2341.7344,468.1689 2342.625,468.9971 Q2343.5156,469.8096 2345.1094,469.8096 Q2346.0469,469.8096 2346.7031,469.5596 Q2347.0938,469.4033 2347.5156,468.9658 Q2347.7813,468.7002 2347.9219,468.6221 Q2348.0781,468.5439 2348.2813,468.5439 Q2348.6094,468.5439 2348.8594,468.8096 Q2349.125,469.0596 2349.125,469.4033 Q2349.125,469.7471 2348.7813,470.1533 Q2348.2813,470.7314 2347.4844,471.0596 Q2346.4063,471.5127 2345.1094,471.5127 Q2343.5938,471.5127 2342.3906,470.8877 Q2341.4063,470.3877 2340.7188,469.3252 Q2340.0313,468.2471 2340.0313,466.9658 L2340.0313,465.8096 Q2340.0313,464.4814 2340.6406,463.3408 Q2341.2656,462.1846 2342.3594,461.5752 Q2343.4531,460.9502 2344.6875,460.9502 Q2345.4219,460.9502 2346.0625,461.1221 Q2346.7188,461.2783 2347.2656,461.6377 Z " fill="#000000"/><text fill="#000000" font-family="sans-serif" font-size="12" lengthAdjust="spacing" textLength="94" x="2358.5" y="470.7314">PriceAnalysisJob</text><line style="stroke:#181818;stroke-width:0.5;" x1="2330.5" x2="2454.5" y1="481.7627" y2="481.7627"/><line style="stroke:#181818;stroke-width:0.5;" x1="2330.5" x2="2454.5" y1="489.7627" y2="489.7627"/></g><!--class PriceAnalysisResultService--><g id="elem_PriceAnalysisResultService"><rect fill="#F1F1F1" height="48" id="PriceAnalysisResultService" rx="2.5" ry="2.5" style="stroke:#181818;stroke-width:0.5;" width="182" x="2490.5" y="449.7627"/><ellipse cx="2505.5" cy="465.7627" fill="#ADD1B2" rx="11" ry="11" style="stroke:#181818;stroke-width:1.0;"/><path d="M2508.2656,461.6377 Q2508.4219,461.4189 2508.6094,461.3096 Q2508.7969,461.2002 2509.0156,461.2002 Q2509.3906,461.2002 2509.625,461.4658 Q2509.8594,461.7158 2509.8594,462.3252 L2509.8594,463.7783 Q2509.8594,464.3877 2509.625,464.6533 Q2509.3906,464.9189 2509.0156,464.9189 Q2508.6719,464.9189 2508.4688,464.7158 Q2508.2656,464.5283 2508.1563,464.0127 Q2508.1094,463.6533 2507.9219,463.4658 Q2507.5938,463.0908 2506.9844,462.8721 Q2506.375,462.6533 2505.75,462.6533 Q2504.9844,462.6533 2504.3438,462.9814 Q2503.7188,463.3096 2503.2188,464.0596 Q2502.7344,464.8096 2502.7344,465.8408 L2502.7344,466.9346 Q2502.7344,468.1689 2503.625,468.9971 Q2504.5156,469.8096 2506.1094,469.8096 Q2507.0469,469.8096 2507.7031,469.5596 Q2508.0938,469.4033 2508.5156,468.9658 Q2508.7813,468.7002 2508.9219,468.6221 Q2509.0781,468.5439 2509.2813,468.5439 Q2509.6094,468.5439 2509.8594,468.8096 Q2510.125,469.0596 2510.125,469.4033 Q2510.125,469.7471 2509.7813,470.1533 Q2509.2813,470.7314 2508.4844,471.0596 Q2507.4063,471.5127 2506.1094,471.5127 Q2504.5938,471.5127 2503.3906,470.8877 Q2502.4063,470.3877 2501.7188,469.3252 Q2501.0313,468.2471 2501.0313,466.9658 L2501.0313,465.8096 Q2501.0313,464.4814 2501.6406,463.3408 Q2502.2656,462.1846 2503.3594,461.5752 Q2504.4531,460.9502 2505.6875,460.9502 Q2506.4219,460.9502 2507.0625,461.1221 Q2507.7188,461.2783 2508.2656,461.6377 Z " fill="#000000"/><text fill="#000000" font-family="sans-serif" font-size="12" lengthAdjust="spacing" textLength="150" x="2519.5" y="470.7314">PriceAnalysisResultService</text><line style="stroke:#181818;stroke-width:0.5;" x1="2491.5" x2="2671.5" y1="481.7627" y2="481.7627"/><line style="stroke:#181818;stroke-width:0.5;" x1="2491.5" x2="2671.5" y1="489.7627" y2="489.7627"/></g><!--class MaterialForecastJob--><g id="elem_MaterialForecastJob"><rect fill="#F1F1F1" height="48" id="MaterialForecastJob" rx="2.5" ry="2.5" style="stroke:#181818;stroke-width:0.5;" width="143" x="2708" y="449.7627"/><ellipse cx="2723" cy="465.7627" fill="#ADD1B2" rx="11" ry="11" style="stroke:#181818;stroke-width:1.0;"/><path d="M2725.7656,461.6377 Q2725.9219,461.4189 2726.1094,461.3096 Q2726.2969,461.2002 2726.5156,461.2002 Q2726.8906,461.2002 2727.125,461.4658 Q2727.3594,461.7158 2727.3594,462.3252 L2727.3594,463.7783 Q2727.3594,464.3877 2727.125,464.6533 Q2726.8906,464.9189 2726.5156,464.9189 Q2726.1719,464.9189 2725.9688,464.7158 Q2725.7656,464.5283 2725.6563,464.0127 Q2725.6094,463.6533 2725.4219,463.4658 Q2725.0938,463.0908 2724.4844,462.8721 Q2723.875,462.6533 2723.25,462.6533 Q2722.4844,462.6533 2721.8438,462.9814 Q2721.2188,463.3096 2720.7188,464.0596 Q2720.2344,464.8096 2720.2344,465.8408 L2720.2344,466.9346 Q2720.2344,468.1689 2721.125,468.9971 Q2722.0156,469.8096 2723.6094,469.8096 Q2724.5469,469.8096 2725.2031,469.5596 Q2725.5938,469.4033 2726.0156,468.9658 Q2726.2813,468.7002 2726.4219,468.6221 Q2726.5781,468.5439 2726.7813,468.5439 Q2727.1094,468.5439 2727.3594,468.8096 Q2727.625,469.0596 2727.625,469.4033 Q2727.625,469.7471 2727.2813,470.1533 Q2726.7813,470.7314 2725.9844,471.0596 Q2724.9063,471.5127 2723.6094,471.5127 Q2722.0938,471.5127 2720.8906,470.8877 Q2719.9063,470.3877 2719.2188,469.3252 Q2718.5313,468.2471 2718.5313,466.9658 L2718.5313,465.8096 Q2718.5313,464.4814 2719.1406,463.3408 Q2719.7656,462.1846 2720.8594,461.5752 Q2721.9531,460.9502 2723.1875,460.9502 Q2723.9219,460.9502 2724.5625,461.1221 Q2725.2188,461.2783 2725.7656,461.6377 Z " fill="#000000"/><text fill="#000000" font-family="sans-serif" font-size="12" lengthAdjust="spacing" textLength="111" x="2737" y="470.7314">MaterialForecastJob</text><line style="stroke:#181818;stroke-width:0.5;" x1="2709" x2="2850" y1="481.7627" y2="481.7627"/><line style="stroke:#181818;stroke-width:0.5;" x1="2709" x2="2850" y1="489.7627" y2="489.7627"/></g><!--class MaterialForecastResultService--><g id="elem_MaterialForecastResultService"><rect fill="#F1F1F1" height="48" id="MaterialForecastResultService" rx="2.5" ry="2.5" style="stroke:#181818;stroke-width:0.5;" width="199" x="2886" y="449.7627"/><ellipse cx="2901" cy="465.7627" fill="#ADD1B2" rx="11" ry="11" style="stroke:#181818;stroke-width:1.0;"/><path d="M2903.7656,461.6377 Q2903.9219,461.4189 2904.1094,461.3096 Q2904.2969,461.2002 2904.5156,461.2002 Q2904.8906,461.2002 2905.125,461.4658 Q2905.3594,461.7158 2905.3594,462.3252 L2905.3594,463.7783 Q2905.3594,464.3877 2905.125,464.6533 Q2904.8906,464.9189 2904.5156,464.9189 Q2904.1719,464.9189 2903.9688,464.7158 Q2903.7656,464.5283 2903.6563,464.0127 Q2903.6094,463.6533 2903.4219,463.4658 Q2903.0938,463.0908 2902.4844,462.8721 Q2901.875,462.6533 2901.25,462.6533 Q2900.4844,462.6533 2899.8438,462.9814 Q2899.2188,463.3096 2898.7188,464.0596 Q2898.2344,464.8096 2898.2344,465.8408 L2898.2344,466.9346 Q2898.2344,468.1689 2899.125,468.9971 Q2900.0156,469.8096 2901.6094,469.8096 Q2902.5469,469.8096 2903.2031,469.5596 Q2903.5938,469.4033 2904.0156,468.9658 Q2904.2813,468.7002 2904.4219,468.6221 Q2904.5781,468.5439 2904.7813,468.5439 Q2905.1094,468.5439 2905.3594,468.8096 Q2905.625,469.0596 2905.625,469.4033 Q2905.625,469.7471 2905.2813,470.1533 Q2904.7813,470.7314 2903.9844,471.0596 Q2902.9063,471.5127 2901.6094,471.5127 Q2900.0938,471.5127 2898.8906,470.8877 Q2897.9063,470.3877 2897.2188,469.3252 Q2896.5313,468.2471 2896.5313,466.9658 L2896.5313,465.8096 Q2896.5313,464.4814 2897.1406,463.3408 Q2897.7656,462.1846 2898.8594,461.5752 Q2899.9531,460.9502 2901.1875,460.9502 Q2901.9219,460.9502 2902.5625,461.1221 Q2903.2188,461.2783 2903.7656,461.6377 Z " fill="#000000"/><text fill="#000000" font-family="sans-serif" font-size="12" lengthAdjust="spacing" textLength="167" x="2915" y="470.7314">MaterialForecastResultService</text><line style="stroke:#181818;stroke-width:0.5;" x1="2887" x2="3084" y1="481.7627" y2="481.7627"/><line style="stroke:#181818;stroke-width:0.5;" x1="2887" x2="3084" y1="489.7627" y2="489.7627"/></g><!--reverse link ApplicationController to AuthController--><g id="link_ApplicationController_AuthController"><path codeLine="125" d="M1517.38,25.7627 C1209.73,25.7627 116.5,25.7627 116.5,25.7627 C116.5,25.7627 116.5,143.1727 116.5,216.0927 " fill="none" id="ApplicationController-backto-AuthController" style="stroke:#181818;stroke-width:1.0;"/><polygon fill="none" points="1535.38,25.7627,1517.38,19.7627,1517.38,31.7627,1535.38,25.7627" style="stroke:#181818;stroke-width:1.0;"/></g><!--reverse link ApplicationController to UsersController--><g id="link_ApplicationController_UsersController"><path codeLine="126" d="M1517.48,39.7627 C1240.01,39.7627 335.5,39.7627 335.5,39.7627 C335.5,39.7627 335.5,133.6427 335.5,202.2227 " fill="none" id="ApplicationController-backto-UsersController" style="stroke:#181818;stroke-width:1.0;"/><polygon fill="none" points="1535.48,39.7627,1517.48,33.7627,1517.48,45.7627,1535.48,39.7627" style="stroke:#181818;stroke-width:1.0;"/></g><!--reverse link ApplicationController to MastersController--><g id="link_ApplicationController_MastersController"><path codeLine="127" d="M1558.33,114.0627 C1558.33,144.0327 1558.33,160.7627 1558.33,160.7627 C1558.33,160.7627 997.71,160.7627 728.07,160.7627 " fill="none" id="ApplicationController-backto-MastersController" style="stroke:#181818;stroke-width:1.0;"/><polygon fill="none" points="1558.33,96.0627,1552.33,114.0627,1564.33,114.0627,1558.33,96.0627" style="stroke:#181818;stroke-width:1.0;"/></g><!--reverse link ApplicationController to ServicesController--><g id="link_ApplicationController_ServicesController"><path codeLine="128" d="M1517.25,53.7627 C1326.77,53.7627 872.5,53.7627 872.5,53.7627 C872.5,53.7627 872.5,129.9527 872.5,192.4627 " fill="none" id="ApplicationController-backto-ServicesController" style="stroke:#181818;stroke-width:1.0;"/><polygon fill="none" points="1535.25,53.7627,1517.25,47.7627,1517.25,59.7627,1535.25,53.7627" style="stroke:#181818;stroke-width:1.0;"/></g><!--reverse link ApplicationController to ClientsController--><g id="link_ApplicationController_ClientsController"><path codeLine="129" d="M1517.35,67.7627 C1371.73,67.7627 1091.5,67.7627 1091.5,67.7627 C1091.5,67.7627 1091.5,142.9127 1091.5,202.2127 " fill="none" id="ApplicationController-backto-ClientsController" style="stroke:#181818;stroke-width:1.0;"/><polygon fill="none" points="1535.35,67.7627,1517.35,61.7627,1517.35,73.7627,1535.35,67.7627" style="stroke:#181818;stroke-width:1.0;"/></g><!--reverse link ApplicationController to MaterialsController--><g id="link_ApplicationController_MaterialsController"><path codeLine="130" d="M1517.11,81.7627 C1417.26,81.7627 1275.5,81.7627 1275.5,81.7627 C1275.5,81.7627 1275.5,147.7727 1275.5,202.1827 " fill="none" id="ApplicationController-backto-MaterialsController" style="stroke:#181818;stroke-width:1.0;"/><polygon fill="none" points="1535.11,81.7627,1517.11,75.7627,1517.11,87.7627,1535.11,81.7627" style="stroke:#181818;stroke-width:1.0;"/></g><!--reverse link ApplicationController to NotesController--><g id="link_ApplicationController_NotesController"><path codeLine="131" d="M1581.17,113.8427 C1581.17,133.6627 1581.17,140.2427 1581.17,164.7027 " fill="none" id="ApplicationController-backto-NotesController" style="stroke:#181818;stroke-width:1.0;"/><polygon fill="none" points="1581.17,95.8427,1575.17,113.8427,1587.17,113.8427,1581.17,95.8427" style="stroke:#181818;stroke-width:1.0;"/></g><!--reverse link ApplicationController to MatOpsController--><g id="link_ApplicationController_MatOpsController"><path codeLine="132" d="M1656.83,113.8427 C1656.83,148.0027 1656.83,178.2727 1656.83,215.7627 " fill="none" id="ApplicationController-backto-MatOpsController" style="stroke:#181818;stroke-width:1.0;"/><polygon fill="none" points="1656.83,95.8427,1650.83,113.8427,1662.83,113.8427,1656.83,95.8427" style="stroke:#181818;stroke-width:1.0;"/></g><!--reverse link ApplicationController to ServiceMaterialsController--><g id="link_ApplicationController_ServiceMaterialsController"><path codeLine="133" d="M1709.62,81.7627 C1808.61,81.7627 1948.5,81.7627 1948.5,81.7627 C1948.5,81.7627 1948.5,155.6727 1948.5,211.5427 " fill="none" id="ApplicationController-backto-ServiceMaterialsController" style="stroke:#181818;stroke-width:1.0;"/><polygon fill="none" points="1691.62,81.7627,1709.62,87.7627,1709.62,75.7627,1691.62,81.7627" style="stroke:#181818;stroke-width:1.0;"/></g><!--reverse link ApplicationController to ServiceMastersController--><g id="link_ApplicationController_ServiceMastersController"><path codeLine="134" d="M1709.59,67.7627 C1859.85,67.7627 2156.5,67.7627 2156.5,67.7627 C2156.5,67.7627 2156.5,159.7627 2156.5,220.5027 " fill="none" id="ApplicationController-backto-ServiceMastersController" style="stroke:#181818;stroke-width:1.0;"/><polygon fill="none" points="1691.59,67.7627,1709.59,73.7627,1709.59,61.7627,1691.59,67.7627" style="stroke:#181818;stroke-width:1.0;"/></g><!--reverse link ApplicationController to SchedulesController--><g id="link_ApplicationController_SchedulesController"><path codeLine="135" d="M1674.17,113.8627 C1674.17,158.6727 1674.17,204.7627 1674.17,204.7627 C1674.17,204.7627 2087.95,204.7627 2276.66,204.7627 " fill="none" id="ApplicationController-backto-SchedulesController" style="stroke:#181818;stroke-width:1.0;"/><polygon fill="none" points="1674.17,95.8627,1668.17,113.8627,1680.17,113.8627,1674.17,95.8627" style="stroke:#181818;stroke-width:1.0;"/></g><!--reverse link ApplicationController to PriceAnalysisController--><g id="link_ApplicationController_PriceAnalysisController"><path codeLine="136" d="M1709.82,53.7627 C1939.2,53.7627 2575.5,53.7627 2575.5,53.7627 C2575.5,53.7627 2575.5,166.2827 2575.5,230.0127 " fill="none" id="ApplicationController-backto-PriceAnalysisController" style="stroke:#181818;stroke-width:1.0;"/><polygon fill="none" points="1691.82,53.7627,1709.82,59.7627,1709.82,47.7627,1691.82,53.7627" style="stroke:#181818;stroke-width:1.0;"/></g><!--reverse link ApplicationController to MaterialForecastController--><g id="link_ApplicationController_MaterialForecastController"><path codeLine="137" d="M1709.82,39.7627 C1971.25,39.7627 2779.5,39.7627 2779.5,39.7627 C2779.5,39.7627 2779.5,162.7627 2779.5,230.0227 " fill="none" id="ApplicationController-backto-MaterialForecastController" style="stroke:#181818;stroke-width:1.0;"/><polygon fill="none" points="1691.82,39.7627,1709.82,45.7627,1709.82,33.7627,1691.82,39.7627" style="stroke:#181818;stroke-width:1.0;"/></g><!--link ApplicationController to JwtService--><g id="link_ApplicationController_JwtService"><path codeLine="140" d="M1691.54,25.7627 C1977.08,25.7627 2948.5,25.7627 2948.5,25.7627 C2948.5,25.7627 2948.5,180.4827 2948.5,242.6327 " fill="none" id="ApplicationController-to-JwtService" style="stroke:#181818;stroke-width:1.0;stroke-dasharray:7.0,7.0;"/><polygon fill="#181818" points="2948.5,248.6327,2952.5,239.6327,2948.5,243.6327,2944.5,239.6327,2948.5,248.6327" style="stroke:#181818;stroke-width:1.0;"/><text fill="#000000" font-family="sans-serif" font-size="13" lengthAdjust="spacing" textLength="71" x="2359.45" y="21.791">authenticate</text></g><!--link AuthController to SignInService--><g id="link_AuthController_SignInService"><path codeLine="141" d="M116.5,329.2827 C116.5,369.0027 116.5,414.1227 116.5,443.6927 " fill="none" id="AuthController-to-SignInService" style="stroke:#181818;stroke-width:1.0;stroke-dasharray:7.0,7.0;"/><polygon fill="#181818" points="116.5,449.6927,120.5,440.6927,116.5,444.6927,112.5,440.6927,116.5,449.6927" style="stroke:#181818;stroke-width:1.0;"/><text fill="#000000" font-family="sans-serif" font-size="13" lengthAdjust="spacing" textLength="28" x="87.5" y="385.521">uses</text></g><!--link MastersController to AvailableDatesService--><g id="link_MastersController_AvailableDatesService"><path codeLine="142" d="M507.25,389.9727 C507.25,412.5427 507.25,427.9527 507.25,443.4827 " fill="none" id="MastersController-to-AvailableDatesService" style="stroke:#181818;stroke-width:1.0;stroke-dasharray:7.0,7.0;"/><polygon fill="#181818" points="507.25,449.4827,511.25,440.4827,507.25,444.4827,503.25,440.4827,507.25,449.4827" style="stroke:#181818;stroke-width:1.0;"/><text fill="#000000" font-family="sans-serif" font-size="13" lengthAdjust="spacing" textLength="28" x="478.25" y="415.761">uses</text></g><!--link MastersController to AvailableSlotsService--><g id="link_MastersController_AvailableSlotsService"><path codeLine="143" d="M666.5,389.9727 C666.5,412.5427 666.5,427.9527 666.5,443.4827 " fill="none" id="MastersController-to-AvailableSlotsService" style="stroke:#181818;stroke-width:1.0;stroke-dasharray:7.0,7.0;"/><polygon fill="#181818" points="666.5,449.4827,670.5,440.4827,666.5,444.4827,662.5,440.4827,666.5,449.4827" style="stroke:#181818;stroke-width:1.0;"/><text fill="#000000" font-family="sans-serif" font-size="13" lengthAdjust="spacing" textLength="28" x="637.5" y="415.761">uses</text></g><!--link NotesController to CreateNoteService--><g id="link_NotesController_CreateNoteService"><path codeLine="144" d="M1384.85,366.7627 C1325.02,366.7627 1263,366.7627 1263,366.7627 C1263,366.7627 1263,412.2027 1263,443.7527 " fill="none" id="NotesController-to-CreateNoteService" style="stroke:#181818;stroke-width:1.0;stroke-dasharray:7.0,7.0;"/><polygon fill="#181818" points="1263,449.7527,1267,440.7527,1263,444.7527,1259,440.7527,1263,449.7527" style="stroke:#181818;stroke-width:1.0;"/><text fill="#000000" font-family="sans-serif" font-size="13" lengthAdjust="spacing" textLength="28" x="1253.43" y="362.791">uses</text></g><!--link NotesController to CompleteNoteService--><g id="link_NotesController_CompleteNoteService"><path codeLine="145" d="M1448.75,380.9127 C1448.75,406.7427 1448.75,425.8927 1448.75,443.4927 " fill="none" id="NotesController-to-CompleteNoteService" style="stroke:#181818;stroke-width:1.0;stroke-dasharray:7.0,7.0;"/><polygon fill="#181818" points="1448.75,449.4927,1452.75,440.4927,1448.75,444.4927,1444.75,440.4927,1448.75,449.4927" style="stroke:#181818;stroke-width:1.0;"/><text fill="#000000" font-family="sans-serif" font-size="13" lengthAdjust="spacing" textLength="28" x="1419.75" y="411.231">uses</text></g><!--link NotesController to CancelNoteService--><g id="link_NotesController_CancelNoteService"><path codeLine="146" d="M1576,380.9127 C1576,406.7427 1576,425.8927 1576,443.4927 " fill="none" id="NotesController-to-CancelNoteService" style="stroke:#181818;stroke-width:1.0;stroke-dasharray:7.0,7.0;"/><polygon fill="#181818" points="1576,449.4927,1580,440.4927,1576,444.4927,1572,440.4927,1576,449.4927" style="stroke:#181818;stroke-width:1.0;"/><text fill="#000000" font-family="sans-serif" font-size="13" lengthAdjust="spacing" textLength="28" x="1547" y="411.231">uses</text></g><!--link MatOpsController to OperationsProvider--><g id="link_MatOpsController_OperationsProvider"><path codeLine="147" d="M1773,329.8227 C1773,369.4027 1773,414.1127 1773,443.5627 " fill="none" id="MatOpsController-to-OperationsProvider" style="stroke:#181818;stroke-width:1.0;stroke-dasharray:7.0,7.0;"/><polygon fill="#181818" points="1773,449.5627,1777,440.5627,1773,444.5627,1769,440.5627,1773,449.5627" style="stroke:#181818;stroke-width:1.0;"/><text fill="#000000" font-family="sans-serif" font-size="13" lengthAdjust="spacing" textLength="28" x="1744" y="385.721">uses</text></g><!--link SchedulesController to MasterScheduleService--><g id="link_SchedulesController_MasterScheduleService"><path codeLine="148" d="M2285.5,348.4627 C2285.5,384.3027 2285.5,418.6227 2285.5,443.6127 " fill="none" id="SchedulesController-to-MasterScheduleService" style="stroke:#181818;stroke-width:1.0;stroke-dasharray:7.0,7.0;"/><polygon fill="#181818" points="2285.5,449.6127,2289.5,440.6127,2285.5,444.6127,2281.5,440.6127,2285.5,449.6127" style="stroke:#181818;stroke-width:1.0;"/><text fill="#000000" font-family="sans-serif" font-size="13" lengthAdjust="spacing" textLength="28" x="2256.5" y="395.061">uses</text></g><!--link PriceAnalysisController to PriceAnalysisJob--><g id="link_PriceAnalysisController_PriceAnalysisJob"><path codeLine="149" d="M2495.06,272.7627 C2483.4,272.7627 2475.25,272.7627 2475.25,272.7627 C2475.25,272.7627 2475.25,473.7627 2475.25,473.7627 C2475.25,473.7627 2472.97,473.7627 2461.64,473.7627 " fill="none" id="PriceAnalysisController-to-PriceAnalysisJob" style="stroke:#181818;stroke-width:1.0;stroke-dasharray:7.0,7.0;"/><polygon fill="#181818" points="2455.64,473.7627,2464.64,477.7627,2460.64,473.7627,2464.64,469.7627,2455.64,473.7627" style="stroke:#181818;stroke-width:1.0;"/><text fill="#000000" font-family="sans-serif" font-size="13" lengthAdjust="spacing" textLength="28" x="2446.25" y="369.191">uses</text></g><!--link PriceAnalysisController to PriceAnalysisResultService--><g id="link_PriceAnalysisController_PriceAnalysisResultService"><path codeLine="150" d="M2575.5,315.3927 C2575.5,356.3027 2575.5,410.6127 2575.5,443.7627 " fill="none" id="PriceAnalysisController-to-PriceAnalysisResultService" style="stroke:#181818;stroke-width:1.0;stroke-dasharray:7.0,7.0;"/><polygon fill="#181818" points="2575.5,449.7627,2579.5,440.7627,2575.5,444.7627,2571.5,440.7627,2575.5,449.7627" style="stroke:#181818;stroke-width:1.0;"/><text fill="#000000" font-family="sans-serif" font-size="13" lengthAdjust="spacing" textLength="28" x="2546.5" y="378.601">uses</text></g><!--link MaterialForecastController to MaterialForecastJob--><g id="link_MaterialForecastController_MaterialForecastJob"><path codeLine="151" d="M2779.5,315.3927 C2779.5,356.3027 2779.5,410.6127 2779.5,443.7627 " fill="none" id="MaterialForecastController-to-MaterialForecastJob" style="stroke:#181818;stroke-width:1.0;stroke-dasharray:7.0,7.0;"/><polygon fill="#181818" points="2779.5,449.7627,2783.5,440.7627,2779.5,444.7627,2775.5,440.7627,2779.5,449.7627" style="stroke:#181818;stroke-width:1.0;"/><text fill="#000000" font-family="sans-serif" font-size="13" lengthAdjust="spacing" textLength="28" x="2750.5" y="378.601">uses</text></g><!--link MaterialForecastController to MaterialForecastResultService--><g id="link_MaterialForecastController_MaterialForecastResultService"><path codeLine="152" d="M2868.02,306.7627 C2883.5,306.7627 2894.75,306.7627 2894.75,306.7627 C2894.75,306.7627 2894.75,397.1627 2894.75,443.4827 " fill="none" id="MaterialForecastController-to-MaterialForecastResultService" style="stroke:#181818;stroke-width:1.0;stroke-dasharray:7.0,7.0;"/><polygon fill="#181818" points="2894.75,449.4827,2898.75,440.4827,2894.75,444.4827,2890.75,440.4827,2894.75,449.4827" style="stroke:#181818;stroke-width:1.0;"/><text fill="#000000" font-family="sans-serif" font-size="13" lengthAdjust="spacing" textLength="28" x="2865.75" y="360.781">uses</text></g><!--SRC=[pLTRRzCm57xFhp3Z0T1eDQOzLGnH3Ksq4bj5nHjIv3g7rPfdHxRJKM3_dMCdQPCu2UrMeJrLzNSkdy_LCRTSfbJJEy84DMPihUQBpCA4AJddlu2SHAOkSgcazSYxqmgKKdPBRs0BdbL0mINOTGf4QRjKKKGNnchAR6wGZDDKS4OjL_82zRKI0ZJv7H7oadnacTOWRPmPF1kHR_Y3m63WKPhP9O9E6LwyVeFuIl4aUeYYmZBY3PF38K5YQRo07qf3Z2pGxQXk2OLA7yV4y1iPS-cjJ-VNLmuf3sD_F-EnpzGijvuTJzDmNHZaCe6V6tEZyMoI-rcg-_2KQK16uNcM9gtd2M1erReER5XzeSQ6l7OF2KegATQZ_0vl2LrHBkX2GEpOcEg14SgQMY3__xqTqA1OJUDna-uMt4Hi3dh56HmgPBi4P9-hRtXU28wEdsF5OS5nAfuViojb3v7MdDHJyihKNIgWWkIdL38GzQd3V9A3eUCWYRVfdaP7cpICHj_bTGhQJzlAzOy8zScwJZioHPEaJj1a2p_4wnHLQRkRJD5IZwkCmzR0XahRM7mSaNw7HuKhbuOvMqAI2MXceUMycqyRbu37wSbPlhN0ndUUm7PN-lF2OtVEPXh3D9PKh0tluDL6ejR7uL2un2PZoES91b-Hy_DpCf5BD6XToxZ_KVkBulsVmQ3n9EYJRApmFj6WWFg4mvNI9nqCzduUGK_rYJT6u3yirqR33XVSaqnNB_RgXAtI9zvHnRj4D2pLilOAtjXmAM1hIiR1z1JXSFY1JEzjgLLVBb7ZmUg4v_ZKdCYjF3w4JHHEB2SwBfypdznJPp-LkNi0DLIQAz8fNFYkTCWkmiLgsrNSxxmMuM0nEUdj6fjfjUA9_pxmucqJr6da8IZHXe-k4USKQzXKBVRM-Gec4pQyLTSOpDdMuOhVFJLRlVy5]--></g></svg>