<?xml version="1.0" encoding="us-ascii" standalone="no"?><svg xmlns="http://www.w3.org/2000/svg" xmlns:xlink="http://www.w3.org/1999/xlink" contentStyleType="text/css" height="580px" preserveAspectRatio="none" style="width:644px;height:580px;background:#FFFFFF;" version="1.1" viewBox="0 0 644 580" width="644px" zoomAndPan="magnify"><defs/><g><!--entity ctrl--><g id="elem_ctrl"><path d="M275,6 L312,6 A3.75,3.75 0 0 1 314.5,8.5 L321.5,33.2813 L375,33.2813 A2.5,2.5 0 0 1 377.5,35.7813 L377.5,69.0625 A2.5,2.5 0 0 1 375,71.5625 L275,71.5625 A2.5,2.5 0 0 1 272.5,69.0625 L272.5,8.5 A2.5,2.5 0 0 1 275,6 " fill="#F1F1F1" style="stroke:#181818;stroke-width:0.5;"/><line style="stroke:#181818;stroke-width:0.5;" x1="272.5" x2="321.5" y1="33.2813" y2="33.2813"/><text fill="#000000" font-family="sans-serif" font-size="16" font-weight="bold" lengthAdjust="spacing" textLength="24" x="282.5" y="26.2656">ctrl</text><text fill="#000000" font-family="sans-serif" font-size="16" lengthAdjust="spacing" textLength="75" x="282.5" y="57.5469">Controllers</text></g><!--entity res--><g id="elem_res"><path d="M8.5,261 L45.5,261 A3.75,3.75 0 0 1 48,263.5 L55,288.2813 L177.5,288.2813 A2.5,2.5 0 0 1 180,290.7813 L180,324.0625 A2.5,2.5 0 0 1 177.5,326.5625 L8.5,326.5625 A2.5,2.5 0 0 1 6,324.0625 L6,263.5 A2.5,2.5 0 0 1 8.5,261 " fill="#F1F1F1" style="stroke:#181818;stroke-width:0.5;"/><line style="stroke:#181818;stroke-width:0.5;" x1="6" x2="55" y1="288.2813" y2="288.2813"/><text fill="#000000" font-family="sans-serif" font-size="16" font-weight="bold" lengthAdjust="spacing" textLength="24" x="16" y="281.2656">res</text><text fill="#000000" font-family="sans-serif" font-size="16" lengthAdjust="spacing" textLength="144" x="16" y="312.5469">Resources (Graphiti)</text></g><!--entity svc--><g id="elem_svc"><path d="M188,261 L228,261 A3.75,3.75 0 0 1 230.5,263.5 L237.5,288.2813 L274,288.2813 A2.5,2.5 0 0 1 276.5,290.7813 L276.5,324.0625 A2.5,2.5 0 0 1 274,326.5625 L188,326.5625 A2.5,2.5 0 0 1 185.5,324.0625 L185.5,263.5 A2.5,2.5 0 0 1 188,261 " fill="#F1F1F1" style="stroke:#181818;stroke-width:0.5;"/><line style="stroke:#181818;stroke-width:0.5;" x1="185.5" x2="237.5" y1="288.2813" y2="288.2813"/><text fill="#000000" font-family="sans-serif" font-size="16" font-weight="bold" lengthAdjust="spacing" textLength="27" x="195.5" y="281.2656">svc</text><text fill="#000000" font-family="sans-serif" font-size="16" lengthAdjust="spacing" textLength="61" x="195.5" y="312.5469">Services</text></g><!--entity ml_svc--><g id="elem_ml_svc"><path d="M313,357 L380,357 A3.75,3.75 0 0 1 382.5,359.5 L389.5,384.2813 L425,384.2813 A2.5,2.5 0 0 1 427.5,386.7813 L427.5,420.0625 A2.5,2.5 0 0 1 425,422.5625 L313,422.5625 A2.5,2.5 0 0 1 310.5,420.0625 L310.5,359.5 A2.5,2.5 0 0 1 313,357 " fill="#F1F1F1" style="stroke:#181818;stroke-width:0.5;"/><line style="stroke:#181818;stroke-width:0.5;" x1="310.5" x2="389.5" y1="384.2813" y2="384.2813"/><text fill="#000000" font-family="sans-serif" font-size="16" font-weight="bold" lengthAdjust="spacing" textLength="54" x="320.5" y="377.2656">ml_svc</text><text fill="#000000" font-family="sans-serif" font-size="16" lengthAdjust="spacing" textLength="87" x="320.5" y="408.5469">ML Services</text></g><!--entity jobs--><g id="elem_jobs"><path d="M447,165 L493,165 A3.75,3.75 0 0 1 495.5,167.5 L502.5,192.2813 L517,192.2813 A2.5,2.5 0 0 1 519.5,194.7813 L519.5,228.0625 A2.5,2.5 0 0 1 517,230.5625 L447,230.5625 A2.5,2.5 0 0 1 444.5,228.0625 L444.5,167.5 A2.5,2.5 0 0 1 447,165 " fill="#F1F1F1" style="stroke:#181818;stroke-width:0.5;"/><line style="stroke:#181818;stroke-width:0.5;" x1="444.5" x2="502.5" y1="192.2813" y2="192.2813"/><text fill="#000000" font-family="sans-serif" font-size="16" font-weight="bold" lengthAdjust="spacing" textLength="33" x="454.5" y="185.2656">jobs</text><text fill="#000000" font-family="sans-serif" font-size="16" lengthAdjust="spacing" textLength="34" x="454.5" y="216.5469">Jobs</text></g><!--entity ml--><g id="elem_ml"><path d="M465.5,357 L496.5,357 A3.75,3.75 0 0 1 499,359.5 L506,384.2813 L634.5,384.2813 A2.5,2.5 0 0 1 637,386.7813 L637,420.0625 A2.5,2.5 0 0 1 634.5,422.5625 L465.5,422.5625 A2.5,2.5 0 0 1 463,420.0625 L463,359.5 A2.5,2.5 0 0 1 465.5,357 " fill="#F1F1F1" style="stroke:#181818;stroke-width:0.5;"/><line style="stroke:#181818;stroke-width:0.5;" x1="463" x2="506" y1="384.2813" y2="384.2813"/><text fill="#000000" font-family="sans-serif" font-size="16" font-weight="bold" lengthAdjust="spacing" textLength="18" x="473" y="377.2656">ml</text><text fill="#000000" font-family="sans-serif" font-size="16" lengthAdjust="spacing" textLength="144" x="473" y="408.5469">ML Pipeline (Python)</text></g><!--entity models--><g id="elem_models"><path d="M189.5,526 C189.5,516 271,516 271,516 C271,516 352.5,516 352.5,526 L352.5,553.6211 C352.5,563.6211 271,563.6211 271,563.6211 C271,563.6211 189.5,563.6211 189.5,553.6211 L189.5,526 " fill="#F1F1F1" style="stroke:#181818;stroke-width:0.5;"/><path d="M189.5,526 C189.5,536 271,536 271,536 C271,536 352.5,536 352.5,526 " fill="none" style="stroke:#181818;stroke-width:0.5;"/><text fill="#000000" font-family="sans-serif" font-size="14" lengthAdjust="spacing" textLength="143" x="199.5" y="555.1074">Models (ActiveRecord)</text></g><!--link ctrl to res--><g id="link_ctrl_res"><path d="M272.32,57.84 C248.17,67.96 220.45,82.55 200,102 C152.08,147.58 122.0017,213.8214 106.2817,255.1814 " fill="none" id="ctrl-to-res" style="stroke:#181818;stroke-width:1.0;"/><polygon fill="#181818" points="104.15,260.79,111.0866,253.7983,105.9264,256.1162,103.6085,250.956,104.15,260.79" style="stroke:#181818;stroke-width:1.0;"/><text fill="#000000" font-family="sans-serif" font-size="12" lengthAdjust="spacing" textLength="53" x="207.5" y="115.9492">JSON:API</text><text fill="#000000" font-family="sans-serif" font-size="12" lengthAdjust="spacing" textLength="66" x="201" y="131.9102">serialization</text></g><!--link ctrl to svc--><g id="link_ctrl_svc"><path d="M304.48,72.08 C298.99,81.49 293.37,91.96 289,102 C265.56,155.86 249.144,216.299 239.774,254.939 " fill="none" id="ctrl-to-svc" style="stroke:#181818;stroke-width:1.0;"/><polygon fill="#181818" points="238.36,260.77,244.3683,252.9661,239.5383,255.9108,236.5936,251.0808,238.36,260.77" style="stroke:#181818;stroke-width:1.0;"/><text fill="#000000" font-family="sans-serif" font-size="12" lengthAdjust="spacing" textLength="52" x="290" y="115.9492">business</text><text fill="#000000" font-family="sans-serif" font-size="12" lengthAdjust="spacing" textLength="26" x="303" y="131.9102">logic</text></g><!--link ctrl to jobs--><g id="link_ctrl_jobs"><path d="M362.71,72.12 C373.36,81.53 384.81,91.98 395,102 C415.57,122.23 433.5153,141.7042 450.2153,160.5042 " fill="none" id="ctrl-to-jobs" style="stroke:#181818;stroke-width:1.0;"/><polygon fill="#181818" points="454.2,164.99,451.2135,155.6049,450.8794,161.2519,445.2324,160.9178,454.2,164.99" style="stroke:#181818;stroke-width:1.0;"/><text fill="#000000" font-family="sans-serif" font-size="12" lengthAdjust="spacing" textLength="18" x="439" y="115.9492">run</text><text fill="#000000" font-family="sans-serif" font-size="12" lengthAdjust="spacing" textLength="46" x="425" y="131.9102">analysis</text></g><!--link ctrl to ml_svc--><g id="link_ctrl_ml_svc"><path d="M338.18,72.03 C341.59,81.53 344.89,92.06 347,102 C366.26,192.93 369.1343,297.23 369.2743,350.76 " fill="none" id="ctrl-to-ml_svc" style="stroke:#181818;stroke-width:1.0;"/><polygon fill="#181818" points="369.29,356.76,373.2664,347.7496,369.2769,351.76,365.2665,347.7705,369.29,356.76" style="stroke:#181818;stroke-width:1.0;"/><text fill="#000000" font-family="sans-serif" font-size="12" lengthAdjust="spacing" textLength="25" x="371.5" y="195.4492">read</text><text fill="#000000" font-family="sans-serif" font-size="12" lengthAdjust="spacing" textLength="38" x="365" y="211.4102">results</text></g><!--link res to models--><g id="link_res_models"><path d="M111.01,327.18 C126.24,353.61 149.16,391.66 172,423 C196.64,456.81 224.523,488.6404 245.363,511.4504 " fill="none" id="res-to-models" style="stroke:#181818;stroke-width:1.0;"/><polygon fill="#181818" points="249.41,515.88,246.2925,506.5376,246.0375,512.1887,240.3864,511.9336,249.41,515.88" style="stroke:#181818;stroke-width:1.0;"/><text fill="#000000" font-family="sans-serif" font-size="12" lengthAdjust="spacing" textLength="27" x="184" y="387.4492">ORM</text><text fill="#000000" font-family="sans-serif" font-size="12" lengthAdjust="spacing" textLength="49" x="173" y="403.4102">mapping</text></g><!--link svc to models--><g id="link_svc_models"><path d="M230.79,327.04 C231.08,353.06 232.58,390.62 238,423 C243.5,455.83 252.9769,486.9465 260.8169,510.1165 " fill="none" id="svc-to-models" style="stroke:#181818;stroke-width:1.0;"/><polygon fill="#181818" points="262.74,515.8,263.6443,505.9927,261.1374,511.0638,256.0664,508.5569,262.74,515.8" style="stroke:#181818;stroke-width:1.0;"/><text fill="#000000" font-family="sans-serif" font-size="12" lengthAdjust="spacing" textLength="53" x="239" y="387.4492">queries &amp;</text><text fill="#000000" font-family="sans-serif" font-size="12" lengthAdjust="spacing" textLength="45" x="243" y="403.4102">updates</text></g><!--link svc to svc--><g id="link_svc_svc"><path d="M276.52,276.16 C295.45,274.93 311.5,280.88 311.5,294 C311.5,307.12 301.4374,313.459 282.5074,312.229 " fill="none" id="svc-to-svc" style="stroke:#181818;stroke-width:1.0;"/><polygon fill="#181818" points="276.52,311.84,285.2417,316.4151,281.5095,312.1642,285.7604,308.432,276.52,311.84" style="stroke:#181818;stroke-width:1.0;"/><text fill="#000000" font-family="sans-serif" font-size="12" lengthAdjust="spacing" textLength="39" x="317.5" y="291.4492">service</text><text fill="#000000" font-family="sans-serif" font-size="12" lengthAdjust="spacing" textLength="37" x="318.5" y="307.4102">chains</text></g><!--link ml_svc to models--><g id="link_ml_svc_models"><path d="M347.74,423.11 C329.27,451 306.2834,485.7178 289.7634,510.6578 " fill="none" id="ml_svc-to-models" style="stroke:#181818;stroke-width:1.0;"/><polygon fill="#181818" points="286.45,515.66,294.7548,510.3657,289.2111,511.4915,288.0853,505.9479,286.45,515.66" style="stroke:#181818;stroke-width:1.0;"/><text fill="#000000" font-family="sans-serif" font-size="12" lengthAdjust="spacing" textLength="42" x="326" y="474.9492">queries</text></g><!--link jobs to ml_svc--><g id="link_jobs_ml_svc"><path d="M456.67,231.15 C449.66,240.56 442.27,251.01 436,261 C416.21,292.55 399.4467,325.1707 386.6667,351.5407 " fill="none" id="jobs-to-ml_svc" style="stroke:#181818;stroke-width:1.0;"/><polygon fill="#181818" points="384.05,356.94,391.5747,350.5855,386.2306,352.4406,384.3756,347.0965,384.05,356.94" style="stroke:#181818;stroke-width:1.0;"/><text fill="#000000" font-family="sans-serif" font-size="12" lengthAdjust="spacing" textLength="33" x="450" y="291.4492">export</text><text fill="#000000" font-family="sans-serif" font-size="12" lengthAdjust="spacing" textLength="59" x="437" y="307.4102">CSV/JSON</text></g><!--link jobs to ml--><g id="link_jobs_ml"><path d="M493.54,231.23 C506.08,266.28 523.9781,316.3009 536.4981,351.2809 " fill="none" id="jobs-to-ml" style="stroke:#181818;stroke-width:1.0;"/><polygon fill="#181818" points="538.52,356.93,539.2532,347.1085,536.8351,352.2224,531.7211,349.8043,538.52,356.93" style="stroke:#181818;stroke-width:1.0;"/><text fill="#000000" font-family="sans-serif" font-size="12" lengthAdjust="spacing" textLength="35" x="528" y="291.4492">train &amp;</text><text fill="#000000" font-family="sans-serif" font-size="12" lengthAdjust="spacing" textLength="37" x="527" y="307.4102">predict</text></g><!--link ml to models--><g id="link_ml_models"><path d="M493.03,423.01 C459.43,441.7 416,465.55 377,486 C357.87,496.03 341.9735,504.0807 323.5335,513.2407 " fill="none" id="ml-to-models" style="stroke:#181818;stroke-width:1.0;stroke-dasharray:7.0,7.0;"/><polygon fill="#181818" points="318.16,515.91,327.9998,515.4884,322.6379,513.6856,324.4408,508.3237,318.16,515.91" style="stroke:#181818;stroke-width:1.0;"/><text fill="#000000" font-family="sans-serif" font-size="12" lengthAdjust="spacing" textLength="61" x="441" y="466.9492">predictions</text><text fill="#000000" font-family="sans-serif" font-size="12" lengthAdjust="spacing" textLength="73" x="435" y="482.9102">(via tmp files)</text></g><!--SRC=[RP51Qzj048Nl-okM78fzI49BwS67WWaqD3IDiKfFWZ1UJUHfLhFRsPKRvzTtLbOhY_OYXButxxqPfMVY20ATTQ6BWP7pfy2vebUqRz-Rz1T7SC_GuWG_d44G2RyczEuCDVW4lS_Vy2MlFRNSQO9r-a3vrxtAHuzMq6NWrgCnutTxSQFc4hn7IHSMadLP_4Itc48l3fDTt0h4FMLQ3ZB1DAagb0EfQ23fu2Po_yNEOESVP_mkx4xWXxxCnZOKqHEZNMoEUHzuESwR1ZBi81LLQD1hixNBTC0jkY3DA1k8CMKPUtdviTIrAtjNFNnThJUVQque19vU8LFWIQRTLBRhamQdLBCFBRa9bvBAfUUQWS4V4wM9ddOh7A6fMIFrzsY9aZtmKzsLVTZUrzn1ZCIjCMLcXd_sMavdtjJSHzrMB_r7S_9FfulMxFP0h0bZylzSZ1bAp_hXImoIQxwflb-NavnB56THrv8U1HjokVZRgwipxn7ewVH6YmE1pLsqJ-GnBSrl]--></g></svg>